<svg width="54" height="55" viewBox="0 0 54 55" fill="none" xmlns="http://www.w3.org/2000/svg">
<path d="M49.3875 26.825C49.3875 27.3338 48.9263 27.75 48.3625 27.75H18.6375C18.0738 27.75 17.6125 27.3338 17.6125 26.825V12.95C17.6125 12.4412 18.0738 12.025 18.6375 12.025H48.3625C48.9263 12.025 49.3875 12.4412 49.3875 12.95V26.825Z" fill="#B8CA43"/>
<path d="M48.3625 28.2125H18.6375C17.7662 28.2125 17.1 27.6113 17.1 26.825V12.95C17.1 12.1637 17.7662 11.5625 18.6375 11.5625H48.3625C49.2337 11.5625 49.9 12.1637 49.9 12.95V26.825C49.9 27.6113 49.2337 28.2125 48.3625 28.2125ZM18.6375 12.4875C18.33 12.4875 18.125 12.6725 18.125 12.95V26.825C18.125 27.1025 18.33 27.2875 18.6375 27.2875H48.3625C48.67 27.2875 48.875 27.1025 48.875 26.825V12.95C48.875 12.6725 48.67 12.4875 48.3625 12.4875H18.6375Z" fill="#231C1C"/>
<path d="M46.825 23.5875V16.1875C45.6975 16.1875 44.775 15.355 44.775 14.3375H22.225C22.225 15.355 21.3025 16.1875 20.175 16.1875V23.5875C21.3025 23.5875 22.225 24.42 22.225 25.4375H44.775C44.775 24.42 45.6975 23.5875 46.825 23.5875Z" fill="#B8CA43"/>
<path d="M45.2875 25.9H21.7125V25.4375C21.7125 24.6512 21.0463 24.05 20.175 24.05H19.6625V15.725H20.175C21.0463 15.725 21.7125 15.1237 21.7125 14.3375V13.875H45.2875V14.3375C45.2875 15.1237 45.9538 15.725 46.825 15.725H47.3375V24.05H46.825C45.9538 24.05 45.2875 24.6512 45.2875 25.4375V25.9ZM22.6863 24.975H44.3138C44.5188 24.05 45.2875 23.3563 46.3125 23.1713V16.6037C45.2875 16.4187 44.5188 15.725 44.3138 14.8H22.6863C22.4813 15.725 21.7125 16.4187 20.6875 16.6037V23.1713C21.7125 23.3563 22.4813 24.05 22.6863 24.975Z" fill="#231C1C"/>
<path d="M26.8375 19.8875C26.8375 20.7378 27.0098 21.5798 27.3447 22.3654C27.6795 23.151 28.1702 23.8648 28.7889 24.466C29.4076 25.0673 30.142 25.5442 30.9504 25.8696C31.7587 26.195 32.6251 26.3625 33.5 26.3625C34.3749 26.3625 35.2413 26.195 36.0496 25.8696C36.858 25.5442 37.5924 25.0673 38.2111 24.466C38.8298 23.8648 39.3205 23.151 39.6553 22.3654C39.9902 21.5798 40.1625 20.7378 40.1625 19.8875C40.1625 19.0372 39.9902 18.1952 39.6553 17.4096C39.3205 16.624 38.8298 15.9102 38.2111 15.309C36.9616 14.0947 35.267 13.4125 33.5 13.4125C31.733 13.4125 30.0384 14.0947 28.7889 15.309C27.5394 16.5233 26.8375 18.1702 26.8375 19.8875Z" fill="#E1E0A6"/>
<path d="M33.5 26.825C29.5538 26.825 26.325 23.7263 26.325 19.8875C26.325 16.0488 29.5538 12.95 33.5 12.95C37.4463 12.95 40.675 16.0488 40.675 19.8875C40.675 23.7263 37.4463 26.825 33.5 26.825ZM33.5 13.875C30.1175 13.875 27.35 16.5575 27.35 19.8875C27.35 23.2175 30.1175 25.9 33.5 25.9C36.8825 25.9 39.65 23.2175 39.65 19.8875C39.65 16.5575 36.8825 13.875 33.5 13.875Z" fill="#231C1C"/>
<path d="M32.9875 13.4125H34.0125V26.3625H32.9875V13.4125Z" fill="#231C1C"/>
<path d="M33.5 24.975C32.6287 24.975 31.8087 24.6513 31.245 24.0963C30.7325 23.5875 30.425 22.8938 30.425 22.2H31.45C31.45 22.6625 31.655 23.125 32.0137 23.4488C32.4237 23.8188 32.9362 24.05 33.5 24.05C34.6275 24.05 35.55 23.2175 35.55 22.2C35.55 21.1825 34.6275 20.35 33.5 20.35C31.8087 20.35 30.425 19.1012 30.425 17.575C30.425 16.0487 31.8087 14.8 33.5 14.8C35.1912 14.8 36.575 16.0487 36.575 17.575H35.55C35.55 16.5575 34.6275 15.725 33.5 15.725C32.3725 15.725 31.45 16.5575 31.45 17.575C31.45 18.5925 32.3725 19.425 33.5 19.425C35.1912 19.425 36.575 20.6738 36.575 22.2C36.575 23.7263 35.1912 24.975 33.5 24.975Z" fill="#231C1C"/>
<g clip-path="url(#clip0_1_36)">
<path d="M20.004 40.666C19.158 40.666 18.33 40.828 17.493 40.936C16.467 41.062 15.468 40.99 14.442 40.954C12.354 40.873 10.257 40.837 8.196 40.504C7.431 40.378 6.657 40.234 5.901 40.072C5.793 40.675 5.631 41.368 5.811 41.962C6 42.583 6.459 42.979 7.035 43.249C8.34 43.861 9.789 44.014 11.211 44.023C12.093 44.032 12.975 44.005 13.857 44.005C14.649 44.005 15.432 44.077 16.224 44.059C17.034 44.032 17.826 43.933 18.627 43.87C19.275 43.825 19.95 43.798 20.571 43.582C20.607 43.573 20.634 43.564 20.67 43.555C20.292 42.628 20.094 41.656 20.004 40.666ZM19.977 36.877C19.95 36.886 19.914 36.895 19.878 36.895C18.582 36.976 17.286 37.138 15.99 37.228C14.73 37.318 13.461 37.291 12.201 37.201C10.95 37.12 9.708 36.958 8.493 36.67C7.629 36.463 6.828 36.166 6.018 35.959C5.577 35.851 4.911 35.707 4.344 35.455C4.254 36.067 4.218 36.688 4.308 37.3C4.398 37.93 4.569 38.515 5.181 38.803C5.703 39.046 6.27 39.118 6.828 39.226C7.638 39.37 8.439 39.55 9.258 39.64C11.184 39.874 13.128 39.892 15.063 39.982C15.972 40.027 16.836 40.027 17.736 39.892C18.465 39.784 19.194 39.667 19.932 39.667C19.896 38.731 19.932 37.795 19.968 36.877C19.977 36.877 19.977 36.877 19.977 36.877Z" fill="#F6851F"/>
<path d="M18.726 35.068C17.844 35.113 16.971 35.158 16.089 35.212C14.145 35.32 12.12 35.257 10.284 34.537C9.492 34.222 8.682 33.808 7.971 33.34C7.629 33.115 7.341 32.836 7.134 32.494C6.423 32.548 5.676 32.854 5.082 33.232C4.83 33.394 4.173 33.907 4.254 34.186C4.353 34.24 4.425 34.312 4.47 34.42C4.749 34.627 5.181 34.726 5.487 34.816C5.964 34.951 6.45 35.041 6.918 35.203C8.934 35.914 11.112 36.22 13.245 36.274C15.45 36.337 17.61 36.049 19.806 35.905C20.004 35.896 20.139 35.977 20.229 36.094C20.292 35.743 20.355 35.401 20.463 35.059C20.499 34.942 20.535 34.834 20.571 34.717C19.986 34.951 19.338 35.032 18.726 35.068ZM21.192 44.59C21.156 44.527 21.12 44.473 21.084 44.41C21.039 44.455 20.976 44.491 20.904 44.518C20.157 44.779 19.356 44.806 18.573 44.869C17.709 44.941 16.845 45.049 15.972 45.058C15 45.067 14.028 44.995 13.056 45.004C12.111 45.022 11.175 45.031 10.23 44.986C9.843 44.968 9.438 44.932 9.033 44.869C9.096 45.067 9.051 45.31 8.862 45.454C8.862 45.472 8.853 45.49 8.853 45.508C8.853 45.634 8.862 45.751 8.871 45.877C8.907 46.138 8.97 46.39 9.042 46.651C9.195 47.173 9.402 47.605 9.888 47.902C11.139 48.667 12.741 48.757 14.163 48.847C15.9 48.955 17.646 48.892 19.365 48.649C20.976 48.424 22.506 47.983 24.045 47.479C22.911 46.696 21.885 45.751 21.192 44.59ZM28.959 33.484C28.5 33.745 28.059 34.132 27.924 34.645C27.771 35.257 27.879 36.229 28.482 36.58C28.752 36.742 29.049 36.832 29.346 36.877C29.202 35.752 29.049 34.627 28.959 33.484ZM29.976 16.114C29.346 15.862 28.617 15.808 27.951 15.754C27.258 15.7 26.565 15.682 25.881 15.682C24.477 15.673 23.082 15.628 21.678 15.511C20.211 15.385 18.753 15.232 17.286 15.151C16.179 15.088 15.063 15.124 13.956 15.097C13.245 15.079 12.543 15.052 11.832 15.088C11.094 15.115 10.32 15.169 9.618 15.421C9.177 15.583 8.646 15.844 8.637 16.384C8.637 16.456 8.619 16.519 8.601 16.573C10.104 16.843 11.625 17.059 13.155 17.185C14.991 17.338 16.8 17.302 18.636 17.284C20.454 17.266 22.272 17.113 24.09 17.212C25.764 17.302 27.483 17.482 29.139 17.158C29.508 17.086 29.886 17.005 30.228 16.852C30.3 16.825 30.597 16.708 30.606 16.609C30.633 16.393 30.12 16.177 29.976 16.114ZM30.705 17.725C30.084 18.031 29.283 18.13 28.734 18.202C27.375 18.373 26.007 18.283 24.648 18.211C21.786 18.049 18.933 18.346 16.071 18.301C13.299 18.256 10.536 17.95 7.809 17.428C7.611 18.004 7.557 18.733 7.746 19.264C7.908 19.714 8.214 19.849 8.664 19.912C9.213 19.984 9.762 20.002 10.311 20.11C11.688 20.362 13.011 20.731 14.424 20.83C15.873 20.938 17.34 20.92 18.789 20.875C20.247 20.83 21.696 20.803 23.154 20.776C24.549 20.749 25.962 20.695 27.339 20.461C27.879 20.371 28.41 20.245 28.95 20.182C29.382 20.128 29.841 20.092 30.237 19.894C30.903 19.561 30.975 18.409 30.705 17.725ZM28.617 24.997C27.357 25.267 26.061 25.411 24.783 25.582C23.37 25.771 21.957 25.951 20.535 26.059C17.88 26.266 15.252 26.158 12.606 25.933C11.49 25.834 10.365 25.699 9.294 25.33C8.997 25.231 8.682 25.105 8.376 24.952C8.322 24.979 8.259 24.997 8.178 25.006C8.286 24.997 8.214 24.979 8.16 25.114C8.124 25.213 8.097 25.321 8.079 25.42C8.034 25.681 8.007 25.951 8.007 26.212C7.998 26.689 7.962 27.274 8.214 27.697C8.25 27.76 8.295 27.823 8.34 27.877C8.349 27.877 8.358 27.877 8.367 27.877C8.655 27.877 8.835 28.084 8.871 28.309C9.042 28.408 9.222 28.48 9.411 28.552C10.239 28.849 11.121 29.029 11.985 29.146C13.947 29.425 15.936 29.416 17.916 29.353C18.798 29.326 19.68 29.29 20.571 29.254C21.408 29.218 22.236 29.155 23.001 28.795C23.217 28.696 23.397 28.759 23.514 28.903C23.955 28.381 24.432 27.895 24.963 27.445C26.34 26.284 28.023 25.411 29.787 24.934V24.529C29.436 24.763 29.049 24.907 28.617 24.997Z" fill="#FEBF10"/>
<path d="M29.868 21.28C29.814 21.199 29.787 21.118 29.787 21.037C29.427 21.1 29.058 21.145 28.689 21.199C28.149 21.271 27.627 21.415 27.087 21.487C25.692 21.685 24.288 21.748 22.884 21.757C20.004 21.784 17.106 22.027 14.235 21.793C12.831 21.676 11.508 21.307 10.122 21.073C9.528 20.974 8.691 21.01 8.025 20.803C7.962 20.848 7.899 20.911 7.863 20.983C7.548 21.604 7.647 22.441 7.89 23.071C8.187 23.854 8.952 24.196 9.726 24.43C10.806 24.763 11.931 24.889 13.056 24.97C14.316 25.069 15.585 25.177 16.854 25.186C19.716 25.213 22.56 24.88 25.395 24.484C26.124 24.385 26.853 24.286 27.573 24.169C28.041 24.097 28.536 24.043 28.977 23.854C29.913 23.494 30.453 22.171 29.868 21.28ZM20.364 30.28C19.293 30.325 18.231 30.37 17.16 30.388C14.883 30.433 12.552 30.397 10.32 29.857C9.555 29.668 8.772 29.434 8.16 29.02C7.782 29.524 7.674 30.127 7.719 30.784C7.746 31.243 7.791 31.864 8.142 32.206C8.538 32.602 9.06 32.8 9.537 33.07C10.221 33.466 10.959 33.763 11.724 33.943C13.326 34.312 14.973 34.312 16.602 34.177C17.331 34.114 18.06 34.123 18.789 34.069C19.428 34.015 20.121 33.943 20.652 33.556C20.679 33.538 20.706 33.52 20.733 33.502C20.841 33.259 20.958 33.016 21.075 32.782C21.552 31.819 22.092 30.874 22.704 29.992C21.948 30.208 21.147 30.244 20.364 30.28Z" fill="#F6851F"/>
<path d="M31.119 32.881C30.705 32.908 30.3 32.98 29.922 33.097C30.012 34.375 30.192 35.653 30.354 36.931C30.741 36.913 31.128 36.877 31.515 36.868C31.362 35.536 31.209 34.213 31.119 32.881Z" fill="#FEBF10"/>
<path d="M40.551 33.259C37.878 29.551 33.045 27.202 28.5 28.426C26.475 28.975 24.639 30.118 23.307 31.747C22.65 32.548 22.11 33.448 21.723 34.411C21.516 34.924 21.354 35.437 21.237 35.977C21.12 36.535 21.084 37.102 20.958 37.651C20.949 37.687 20.94 37.714 20.931 37.75C20.85 40.027 20.895 42.466 22.245 44.374C23.505 46.156 25.521 47.371 27.555 48.1C29.58 48.829 31.803 49.054 33.918 48.613C36.096 48.154 38.022 46.966 39.462 45.292C42.297 41.989 43.215 36.958 40.551 33.259ZM31.308 28.93C32.019 29.209 32.757 29.146 33.396 29.632C33.909 30.019 33.252 30.757 32.739 30.379C32.235 29.992 31.452 30.046 30.867 29.821C30.273 29.587 30.714 28.705 31.308 28.93ZM22.434 35.167C22.803 34.654 23.55 35.311 23.181 35.824C22.884 36.229 22.866 37.03 23.01 37.498C23.19 38.11 22.254 38.434 22.074 37.822C21.822 36.985 21.921 35.887 22.434 35.167ZM23.028 43.06C22.596 42.295 22.164 41.467 22.137 40.567C22.11 39.928 23.1 39.856 23.127 40.495C23.154 41.215 23.505 41.89 23.856 42.502C24.162 43.06 23.343 43.618 23.028 43.06ZM24.234 32.107C24.945 31.396 25.683 30.523 26.691 30.253C27.303 30.091 27.636 31.027 27.015 31.189C26.178 31.414 25.566 32.161 24.972 32.755C24.531 33.214 23.784 32.566 24.234 32.107ZM26.889 47.029C26.34 46.498 25.62 46.201 24.999 45.769C24.477 45.409 25.134 44.662 25.656 45.022C26.286 45.454 26.988 45.751 27.546 46.282C28.005 46.723 27.357 47.47 26.889 47.029ZM32.568 47.776H30.318C29.679 47.776 29.607 46.786 30.246 46.786H32.496C33.126 46.795 33.207 47.776 32.568 47.776ZM34.251 41.566C33.918 41.989 33.459 42.331 32.964 42.601C33.018 43.105 33.099 43.6 33.207 44.095C33.315 44.167 33.387 44.284 33.387 44.455V44.815C33.387 45.346 32.595 45.589 32.424 45.013C32.235 44.356 32.109 43.681 32.028 42.997C31.839 43.06 31.641 43.114 31.452 43.159C31.155 43.231 30.858 43.267 30.561 43.285C30.588 43.582 30.651 43.87 30.777 44.122C31.065 44.68 30.246 45.247 29.958 44.68C29.733 44.23 29.634 43.744 29.589 43.249C29.094 43.177 28.617 43.015 28.167 42.781C27.762 42.565 27.834 41.845 28.347 41.845H28.527C28.716 41.845 28.851 41.926 28.932 42.043C29.139 42.133 29.355 42.187 29.58 42.232C29.58 42.187 29.58 42.133 29.589 42.088C29.634 41.062 29.706 40.09 29.607 39.073C29.571 38.668 29.517 38.263 29.472 37.858C28.869 37.822 28.266 37.687 27.789 37.3C27.141 36.769 26.844 35.887 26.862 35.068C26.898 33.745 27.744 32.863 28.887 32.377C28.878 31.99 28.869 31.603 28.878 31.207C28.896 30.577 29.877 30.496 29.868 31.135C29.859 31.441 29.859 31.756 29.868 32.062C30.255 31.972 30.66 31.918 31.065 31.9C31.047 31.549 31.038 31.198 31.038 30.847C31.038 30.208 32.019 30.136 32.028 30.775C32.028 31.153 32.037 31.54 32.055 31.918C32.784 31.981 33.468 32.161 34.008 32.44C34.575 32.737 34.134 33.628 33.567 33.331C33.126 33.106 32.631 32.962 32.118 32.908C32.217 34.258 32.37 35.599 32.532 36.949C32.757 37.003 32.973 37.075 33.18 37.192C34.683 38.011 35.385 40.135 34.251 41.566ZM36.186 30.442C36.735 30.874 37.338 31.315 37.59 31.999C37.815 32.602 36.879 32.926 36.654 32.323C36.474 31.828 35.934 31.495 35.538 31.18C35.034 30.793 35.691 30.046 36.186 30.442ZM38.553 43.456C38.265 44.275 37.725 45.121 36.924 45.499C36.348 45.778 36.024 44.833 36.6 44.563C37.14 44.302 37.482 43.537 37.671 43.006C37.761 42.754 38.112 42.673 38.337 42.781C38.589 42.925 38.643 43.204 38.553 43.456ZM39.444 35.572C39.237 34.861 38.553 34.393 38.364 33.682C38.202 33.07 39.138 32.737 39.3 33.358C39.381 33.664 39.633 33.925 39.813 34.177C40.047 34.51 40.263 34.852 40.38 35.248C40.551 35.851 39.615 36.184 39.444 35.572ZM39.894 39.757C40.146 39.478 39.957 38.848 39.948 38.506C39.939 37.867 40.929 37.795 40.938 38.434C40.947 39.109 41.127 39.856 40.632 40.423C40.218 40.891 39.471 40.243 39.894 39.757Z" fill="#FEBF10"/>
<path d="M42.045 31.558C41.154 29.866 39.957 28.291 38.382 27.184C36.456 25.843 34.017 25.312 31.695 25.591C29.346 25.879 26.943 26.905 25.215 28.552C24.99 28.759 24.783 28.984 24.576 29.209C26.934 27.508 29.994 26.716 32.874 27.247C35.142 27.661 37.284 28.732 39.039 30.217C40.74 31.657 42.189 33.484 42.774 35.662C43.611 38.794 42.873 42.115 41.1 44.761C41.991 43.834 42.711 42.754 43.152 41.476C44.25 38.29 43.584 34.501 42.045 31.558Z" fill="#F6851F"/>
<path d="M33.81 39.721C33.729 39.001 33.306 38.335 32.649 38.02C32.649 38.056 32.658 38.083 32.658 38.119C32.775 39.226 32.802 40.351 32.865 41.485C33.459 41.071 33.9 40.513 33.81 39.721ZM30.561 42.304C31.029 42.277 31.488 42.169 31.929 41.989C31.83 40.729 31.812 39.451 31.677 38.2C31.659 38.074 31.65 37.939 31.632 37.813C31.245 37.804 30.858 37.84 30.471 37.867C30.507 38.191 30.543 38.506 30.579 38.83C30.678 39.829 30.642 40.765 30.588 41.764C30.579 41.935 30.57 42.115 30.561 42.304Z" fill="#FEBF10"/>
<path d="M33.18 37.183C32.973 37.066 32.757 36.994 32.532 36.94C32.379 35.599 32.217 34.249 32.118 32.899C32.64 32.962 33.135 33.097 33.567 33.322C34.134 33.619 34.575 32.728 34.008 32.431C33.477 32.152 32.793 31.972 32.055 31.909C32.037 31.531 32.028 31.144 32.028 30.766C32.028 30.127 31.038 30.208 31.038 30.838C31.038 31.189 31.047 31.54 31.065 31.891C30.66 31.909 30.255 31.963 29.868 32.053C29.859 31.747 29.859 31.432 29.868 31.126C29.886 30.487 28.896 30.568 28.878 31.198C28.869 31.585 28.869 31.981 28.887 32.368C27.744 32.863 26.898 33.736 26.862 35.059C26.844 35.878 27.141 36.76 27.789 37.291C28.266 37.678 28.869 37.813 29.472 37.849C29.526 38.254 29.571 38.659 29.607 39.064C29.706 40.09 29.634 41.062 29.589 42.079C29.589 42.124 29.589 42.169 29.58 42.223C29.364 42.178 29.148 42.115 28.932 42.034C28.842 41.917 28.707 41.836 28.527 41.836H28.347C27.834 41.836 27.762 42.556 28.167 42.772C28.617 43.015 29.103 43.168 29.589 43.24C29.625 43.735 29.724 44.221 29.958 44.671C30.246 45.238 31.065 44.68 30.777 44.113C30.651 43.861 30.588 43.582 30.561 43.276C30.858 43.258 31.155 43.222 31.452 43.15C31.641 43.105 31.83 43.051 32.028 42.988C32.109 43.672 32.226 44.338 32.424 45.004C32.586 45.571 33.387 45.337 33.387 44.806V44.446C33.387 44.275 33.315 44.158 33.207 44.086C33.099 43.591 33.018 43.096 32.964 42.592C33.459 42.322 33.918 41.98 34.251 41.557C35.385 40.135 34.683 38.011 33.18 37.183ZM28.482 36.589C27.879 36.238 27.762 35.266 27.924 34.654C28.05 34.141 28.5 33.745 28.959 33.493C29.049 34.627 29.202 35.761 29.355 36.895C29.049 36.841 28.761 36.751 28.482 36.589ZM29.922 33.088C30.309 32.98 30.714 32.908 31.119 32.872C31.209 34.204 31.362 35.527 31.515 36.85C31.128 36.859 30.741 36.895 30.354 36.913C30.192 35.644 30.012 34.375 29.922 33.088ZM30.561 42.304C30.57 42.115 30.588 41.935 30.597 41.764C30.651 40.765 30.687 39.829 30.588 38.83C30.552 38.506 30.516 38.191 30.48 37.867C30.858 37.84 31.254 37.804 31.641 37.813C31.659 37.939 31.668 38.074 31.686 38.2C31.821 39.451 31.848 40.729 31.938 41.989C31.488 42.169 31.02 42.277 30.561 42.304ZM32.874 41.485C32.802 40.36 32.784 39.226 32.667 38.119C32.667 38.083 32.658 38.056 32.658 38.02C33.315 38.335 33.738 38.992 33.819 39.721C33.9 40.513 33.459 41.071 32.874 41.485Z" fill="black"/>
<path d="M42.342 30.073C41.352 28.444 40.011 27.013 38.373 26.014C36.33 24.763 33.828 24.34 31.47 24.628C31.236 24.655 31.002 24.691 30.777 24.736V24.475C30.777 24.259 30.597 24.088 30.399 24.034C30.516 23.89 30.633 23.737 30.723 23.566C31.182 22.72 31.227 21.577 30.705 20.758C31.2 20.497 31.542 20.056 31.695 19.462C31.893 18.697 31.875 17.752 31.461 17.05C31.497 16.987 31.524 16.924 31.542 16.852C31.821 15.997 30.858 15.385 30.192 15.142C28.932 14.692 27.456 14.719 26.133 14.701C24.999 14.683 23.865 14.692 22.74 14.611C21.516 14.521 20.301 14.404 19.077 14.296C17.223 14.143 15.369 14.152 13.506 14.098C11.841 14.053 8.25 13.855 7.71 15.952C7.026 16.366 6.783 17.176 6.702 17.95C6.612 18.751 6.666 19.606 7.179 20.254C6.36 21.172 6.675 22.927 7.188 23.917C7.269 24.07 7.368 24.205 7.485 24.331C6.864 25.006 6.954 26.599 7.071 27.319C7.134 27.706 7.26 28.03 7.44 28.3C7.152 28.615 6.981 29.011 6.855 29.416C6.648 30.073 6.675 30.838 6.81 31.522C6.081 31.621 5.379 31.936 4.74 32.278C4.101 32.629 3.399 33.214 3.273 33.97C3.219 34.294 3.291 34.573 3.444 34.798C3.156 36.256 3.012 38.191 4.119 39.289C4.344 39.514 4.632 39.676 4.929 39.793C4.704 41.269 4.569 42.745 5.919 43.735C6.576 44.212 7.368 44.518 8.187 44.707C7.845 44.995 7.809 45.481 7.863 45.94C7.926 46.498 8.07 47.155 8.34 47.65C9.123 49.108 10.968 49.468 12.462 49.657C14.496 49.909 16.566 49.918 18.609 49.711C20.697 49.504 22.677 48.946 24.666 48.289C24.828 48.235 24.918 48.136 24.963 48.019C25.458 48.289 25.962 48.541 26.475 48.757C28.959 49.81 31.74 50.107 34.323 49.513C34.44 49.657 34.62 49.729 34.845 49.648C38.85 48.109 42.891 45.742 44.214 41.386C45.357 37.642 44.331 33.34 42.342 30.073ZM8.628 16.375C8.637 15.835 9.168 15.574 9.609 15.412C10.311 15.16 11.085 15.115 11.823 15.079C12.534 15.052 13.236 15.07 13.947 15.088C15.054 15.124 16.17 15.088 17.277 15.142C18.744 15.223 20.211 15.376 21.669 15.502C23.073 15.619 24.459 15.664 25.872 15.673C26.565 15.673 27.258 15.691 27.942 15.745C28.608 15.799 29.346 15.853 29.967 16.105C30.111 16.168 30.624 16.384 30.588 16.582C30.57 16.681 30.273 16.789 30.21 16.825C29.868 16.978 29.481 17.059 29.121 17.131C27.465 17.455 25.746 17.275 24.072 17.185C22.254 17.086 20.436 17.239 18.618 17.257C16.782 17.275 14.973 17.311 13.137 17.158C11.607 17.032 10.095 16.825 8.583 16.546C8.619 16.51 8.628 16.447 8.628 16.375ZM7.809 17.428C10.536 17.95 13.299 18.256 16.071 18.301C18.933 18.346 21.786 18.049 24.648 18.211C26.007 18.283 27.375 18.373 28.734 18.202C29.292 18.13 30.093 18.031 30.705 17.725C30.975 18.409 30.903 19.561 30.246 19.885C29.85 20.074 29.391 20.119 28.959 20.173C28.419 20.245 27.888 20.362 27.348 20.452C25.962 20.686 24.558 20.749 23.163 20.767C21.705 20.794 20.256 20.812 18.798 20.866C17.34 20.911 15.882 20.929 14.433 20.821C13.029 20.713 11.706 20.353 10.32 20.101C9.771 20.002 9.222 19.984 8.673 19.903C8.223 19.84 7.908 19.705 7.755 19.255C7.557 18.733 7.611 18.004 7.809 17.428ZM20.58 29.281C19.698 29.326 18.816 29.353 17.925 29.38C15.945 29.434 13.956 29.452 11.994 29.173C11.13 29.047 10.239 28.876 9.42 28.579C9.231 28.507 9.051 28.435 8.88 28.336C8.835 28.111 8.664 27.904 8.376 27.904C8.367 27.904 8.358 27.904 8.349 27.904C8.304 27.85 8.259 27.787 8.223 27.724C7.971 27.301 7.998 26.716 8.016 26.239C8.025 25.969 8.043 25.708 8.088 25.447C8.106 25.348 8.124 25.24 8.169 25.141C8.223 25.006 8.295 25.024 8.187 25.033C8.259 25.024 8.322 25.006 8.385 24.979C8.691 25.132 9.006 25.258 9.303 25.357C10.374 25.726 11.49 25.87 12.615 25.96C15.261 26.185 17.889 26.293 20.544 26.086C21.966 25.978 23.379 25.798 24.792 25.609C26.07 25.438 27.366 25.294 28.626 25.024C29.049 24.934 29.445 24.79 29.796 24.583V24.988C28.032 25.465 26.349 26.338 24.972 27.499C24.45 27.94 23.964 28.435 23.523 28.957C23.415 28.813 23.235 28.75 23.01 28.849C22.245 29.182 21.408 29.236 20.58 29.281ZM22.704 29.992C22.083 30.874 21.552 31.819 21.075 32.782C20.958 33.025 20.841 33.259 20.733 33.502C20.706 33.52 20.679 33.529 20.652 33.556C20.121 33.943 19.428 34.015 18.789 34.069C18.06 34.123 17.331 34.123 16.602 34.177C14.973 34.312 13.326 34.312 11.724 33.943C10.95 33.763 10.221 33.466 9.537 33.07C9.06 32.791 8.538 32.593 8.142 32.206C7.791 31.855 7.746 31.234 7.719 30.784C7.674 30.127 7.782 29.524 8.16 29.02C8.772 29.443 9.564 29.677 10.32 29.857C12.552 30.397 14.883 30.433 17.16 30.388C18.231 30.37 19.293 30.325 20.364 30.28C21.147 30.244 21.948 30.208 22.704 29.992ZM28.977 23.872C28.536 24.052 28.041 24.106 27.573 24.187C26.844 24.304 26.115 24.403 25.395 24.502C22.569 24.907 19.716 25.231 16.854 25.204C15.585 25.195 14.316 25.078 13.056 24.988C11.931 24.898 10.806 24.772 9.726 24.448C8.952 24.214 8.187 23.863 7.89 23.089C7.647 22.459 7.548 21.613 7.863 21.001C7.899 20.929 7.953 20.866 8.025 20.821C8.691 21.028 9.528 20.992 10.122 21.091C11.508 21.325 12.822 21.703 14.235 21.811C17.115 22.045 20.004 21.802 22.884 21.775C24.288 21.766 25.701 21.703 27.087 21.505C27.627 21.424 28.149 21.289 28.689 21.217C29.058 21.163 29.418 21.127 29.787 21.055C29.796 21.136 29.814 21.217 29.868 21.298C30.453 22.171 29.913 23.494 28.977 23.872ZM5.082 33.223C5.676 32.845 6.423 32.539 7.134 32.485C7.332 32.827 7.629 33.106 7.971 33.331C8.682 33.799 9.492 34.222 10.284 34.528C12.12 35.248 14.145 35.311 16.089 35.203C16.971 35.149 17.844 35.104 18.726 35.059C19.338 35.023 19.986 34.951 20.562 34.717C20.526 34.825 20.49 34.942 20.454 35.059C20.346 35.401 20.283 35.743 20.22 36.094C20.13 35.968 19.995 35.887 19.797 35.905C17.601 36.049 15.441 36.328 13.236 36.274C11.103 36.22 8.925 35.914 6.909 35.203C6.441 35.041 5.955 34.942 5.478 34.816C5.172 34.735 4.749 34.627 4.461 34.42C4.425 34.321 4.344 34.24 4.245 34.186C4.173 33.898 4.83 33.394 5.082 33.223ZM5.181 38.812C4.56 38.524 4.398 37.939 4.308 37.309C4.218 36.697 4.254 36.076 4.344 35.464C4.911 35.716 5.586 35.86 6.018 35.968C6.828 36.175 7.629 36.472 8.493 36.679C9.708 36.967 10.959 37.129 12.201 37.21C13.461 37.291 14.73 37.318 15.99 37.237C17.286 37.147 18.582 36.985 19.878 36.904C19.914 36.904 19.95 36.895 19.977 36.886V36.895C19.941 37.813 19.905 38.749 19.941 39.685C19.203 39.685 18.474 39.802 17.745 39.91C16.845 40.045 15.981 40.036 15.072 40C13.137 39.91 11.193 39.892 9.267 39.658C8.448 39.559 7.647 39.388 6.837 39.244C6.27 39.127 5.694 39.055 5.181 38.812ZM7.035 43.24C6.459 42.97 6 42.574 5.811 41.953C5.631 41.359 5.793 40.666 5.901 40.063C6.657 40.225 7.431 40.369 8.196 40.495C10.257 40.837 12.363 40.873 14.442 40.945C15.468 40.981 16.467 41.062 17.493 40.927C18.33 40.819 19.158 40.657 20.004 40.657C20.103 41.647 20.301 42.628 20.679 43.546C20.643 43.555 20.616 43.555 20.58 43.573C19.959 43.789 19.284 43.807 18.636 43.861C17.835 43.924 17.034 44.023 16.233 44.05C15.441 44.077 14.658 43.996 13.866 43.996C12.984 43.996 12.102 44.023 11.22 44.014C9.789 44.014 8.34 43.861 7.035 43.24ZM19.374 48.631C17.655 48.874 15.9 48.928 14.172 48.829C12.741 48.739 11.139 48.658 9.897 47.884C9.411 47.587 9.204 47.155 9.051 46.633C8.979 46.381 8.916 46.129 8.88 45.859C8.862 45.733 8.853 45.616 8.862 45.49C8.862 45.463 8.862 45.445 8.871 45.436C9.06 45.292 9.105 45.049 9.042 44.851C9.447 44.914 9.852 44.95 10.239 44.968C11.184 45.022 12.12 45.004 13.065 44.986C14.037 44.968 15.009 45.04 15.981 45.04C16.854 45.031 17.709 44.932 18.582 44.851C19.365 44.788 20.166 44.761 20.913 44.5C20.985 44.473 21.048 44.437 21.093 44.392C21.129 44.455 21.165 44.509 21.201 44.572C21.903 45.742 22.92 46.687 24.063 47.443C22.515 47.965 20.985 48.406 19.374 48.631ZM33.9 48.622C31.785 49.063 29.562 48.838 27.537 48.109C25.503 47.38 23.496 46.165 22.227 44.383C20.877 42.484 20.832 40.036 20.913 37.759C20.922 37.732 20.94 37.696 20.94 37.66C21.066 37.111 21.102 36.544 21.219 35.986C21.336 35.446 21.498 34.924 21.705 34.42C22.092 33.457 22.632 32.557 23.289 31.756C24.621 30.127 26.457 28.984 28.482 28.435C33.018 27.202 37.86 29.56 40.533 33.268C43.197 36.967 42.279 41.998 39.435 45.301C38.004 46.975 36.078 48.163 33.9 48.622ZM43.152 41.485C42.72 42.763 42 43.843 41.1 44.77C42.882 42.124 43.62 38.803 42.774 35.671C42.189 33.493 40.74 31.666 39.039 30.226C37.284 28.741 35.142 27.67 32.874 27.256C29.994 26.725 26.934 27.517 24.576 29.218C24.783 28.993 24.99 28.777 25.215 28.561C26.943 26.914 29.337 25.888 31.695 25.6C34.017 25.321 36.456 25.852 38.382 27.193C39.966 28.291 41.163 29.866 42.045 31.567C43.584 34.501 44.25 38.29 43.152 41.485Z" fill="black"/>
<path d="M40.38 35.239C40.263 34.843 40.047 34.501 39.813 34.168C39.633 33.916 39.381 33.655 39.3 33.349C39.138 32.728 38.202 33.061 38.364 33.673C38.553 34.384 39.237 34.852 39.444 35.563C39.615 36.184 40.551 35.851 40.38 35.239ZM40.938 38.425C40.929 37.786 39.939 37.867 39.948 38.497C39.957 38.839 40.137 39.469 39.894 39.748C39.471 40.225 40.218 40.882 40.641 40.405C41.136 39.856 40.956 39.1 40.938 38.425ZM22.434 35.167C21.912 35.887 21.822 36.985 22.065 37.822C22.245 38.434 23.181 38.11 23.001 37.498C22.866 37.03 22.884 36.238 23.172 35.824C23.55 35.311 22.812 34.654 22.434 35.167ZM23.847 42.511C23.496 41.89 23.145 41.224 23.118 40.504C23.091 39.865 22.11 39.946 22.128 40.576C22.164 41.467 22.587 42.304 23.019 43.069C23.343 43.618 24.162 43.06 23.847 42.511ZM27.546 46.282C26.988 45.751 26.286 45.454 25.656 45.022C25.134 44.662 24.477 45.4 24.999 45.769C25.62 46.201 26.34 46.498 26.889 47.029C27.357 47.47 28.005 46.723 27.546 46.282ZM32.487 46.795H30.237C29.598 46.795 29.679 47.785 30.309 47.785H32.559C33.207 47.776 33.126 46.795 32.487 46.795ZM38.328 42.79C38.112 42.682 37.752 42.754 37.662 43.015C37.473 43.546 37.131 44.311 36.591 44.572C36.024 44.842 36.339 45.778 36.915 45.508C37.716 45.13 38.256 44.284 38.544 43.465C38.643 43.204 38.589 42.925 38.328 42.79ZM26.691 30.262C25.683 30.532 24.936 31.405 24.234 32.116C23.784 32.566 24.531 33.223 24.981 32.773C25.575 32.179 26.178 31.423 27.024 31.207C27.636 31.027 27.312 30.1 26.691 30.262ZM33.396 29.632C32.757 29.146 32.019 29.209 31.308 28.93C30.714 28.696 30.273 29.587 30.867 29.821C31.452 30.046 32.235 29.992 32.739 30.379C33.252 30.766 33.9 30.019 33.396 29.632ZM37.59 31.999C37.338 31.315 36.735 30.874 36.186 30.442C35.691 30.046 35.034 30.784 35.529 31.189C35.925 31.504 36.465 31.837 36.645 32.332C36.87 32.926 37.806 32.602 37.59 31.999Z" fill="black"/>
</g>
<defs>
<clipPath id="clip0_1_36">
<rect width="48" height="48" fill="white" transform="translate(0 7)"/>
</clipPath>
</defs>
</svg>
