<svg width="763" height="573" viewBox="0 0 763 573" fill="none" xmlns="http://www.w3.org/2000/svg">
<g filter="url(#filter0_dddddddf_2002_17)">
<g filter="url(#filter1_dii_2002_17)">
<path d="M147.673 470.909C148.539 465.578 149.718 461.387 151.089 456.51C125.739 460.074 105.163 453.913 92.2516 430.565C91.222 428.703 88.5427 427.2 86.3431 426.622C54.7098 418.311 42.6448 394.54 36.1397 365.334C33.34 352.764 28.6989 340.256 22.7837 328.811C13.8904 311.603 17.8589 298.3 29.8891 284.429C38.3256 274.702 44.7309 276.144 49.9391 285.409C63.1931 308.988 84.5774 322.66 108.725 336.655C106.184 317.815 114.141 301.404 105.039 282.867C96.6295 265.736 109.05 251.099 134.676 240.926C150.046 265.772 165.635 290.969 181.223 316.167C189.001 295.617 191.76 277.281 213.015 268.657C227.011 262.979 238.053 263.8 248.782 273.847C260.302 284.634 271.817 295.427 285.308 308.066C272.398 314.086 261.76 319.046 250.878 324.12C293.074 385.091 284.008 415.526 230.675 459.257C231.057 460.721 231.255 462.379 231.903 463.837C248.233 500.592 248.707 505.845 216.403 528.048C196.845 541.492 175.303 555.197 148.525 552.242C130.23 550.223 125.331 543.858 130.941 526.715C136.877 508.576 142.324 490.278 147.673 470.909ZM202.07 318.048C198.453 335.909 194.837 353.77 190.384 375.758C160.459 368.297 131.228 365.102 105.827 353.513C80.9867 342.178 60.0524 322.283 37.2845 306.06C32.2883 318.234 39.872 327.108 47.5486 336.63C50.8799 340.762 53.2991 347.257 52.9424 352.46C51.156 378.537 63.6723 398.331 87.658 408.378C95.0858 411.488 101.016 418.318 107.403 423.715C111.053 426.799 113.779 431.147 117.722 433.68C131.399 442.465 145.571 442.492 160.535 436.103C164.62 434.358 170.535 436.024 175.299 437.293C176.687 437.662 178.327 442.57 177.584 444.545C173.544 455.283 168.056 465.508 164.454 476.371C158.175 495.306 152.907 514.578 146.838 534.977C171.816 538.969 190.063 526.081 207.03 514.215C230.814 497.58 231.149 492.514 218.229 466.574C212.607 455.286 212.235 447.579 224.83 441.795C228.583 440.072 231.479 436.487 234.779 433.768C258.162 414.499 265.028 385.692 251.816 358.633C245.486 345.667 237.678 333.422 230.014 319.925C239.493 315.505 247.341 311.845 256.23 307.7C250.149 300.928 245.331 294.562 239.519 289.293C227.007 277.949 213.285 281.247 207.451 296.915C205.21 302.932 204.348 309.463 202.07 318.048ZM174.631 352.543C176.087 346.845 180.689 339.008 178.5 335.789C161.834 311.282 143.842 287.678 123.836 260.495C124.078 270.893 124.133 279.62 124.527 288.332C124.924 297.141 127.429 306.258 125.897 314.673C121.962 336.298 128.209 346.243 150.121 349.616C157.536 350.758 164.908 352.181 174.631 352.543Z" fill="#23AAE2"/>
</g>
<g filter="url(#filter2_di_2002_17)">
<path d="M294.144 303.575L258.979 228.164L273.119 221.57L308.284 296.982L294.144 303.575ZM347.581 280.187C342.554 282.532 337.478 283.496 332.354 283.08C327.267 282.562 322.575 280.797 318.28 277.784C314.023 274.669 310.64 270.423 308.133 265.047C305.561 259.53 304.466 254.175 304.849 248.981C305.27 243.684 306.968 238.94 309.943 234.747C312.886 230.485 316.871 227.181 321.898 224.837C326.994 222.46 332.088 221.531 337.175 222.049C342.298 222.465 346.99 224.23 351.248 227.345C355.542 230.358 358.961 234.587 361.5 240.033C364.04 245.48 365.099 250.852 364.679 256.148C364.296 261.342 362.632 266.071 359.69 270.333C356.716 274.525 352.677 277.811 347.581 280.187ZM341.867 267.933C344.24 266.827 346.074 265.291 347.37 263.327C348.734 261.331 349.403 258.936 349.376 256.143C349.417 253.319 348.642 250.195 347.046 246.773C345.451 243.352 343.573 240.785 341.415 239.071C339.293 237.255 337.029 236.228 334.622 235.99C332.252 235.65 329.917 236.017 327.613 237.091C325.377 238.134 323.595 239.687 322.264 241.753C320.899 243.749 320.196 246.16 320.153 248.985C320.148 251.708 320.943 254.781 322.538 258.202C324.133 261.623 325.992 264.242 328.114 266.058C330.306 267.841 332.57 268.868 334.906 269.139C337.312 269.377 339.631 268.975 341.867 267.933ZM407.725 250.612C404.024 252.338 400.516 253.293 397.203 253.478C393.927 253.561 390.901 252.634 388.128 250.697C385.32 248.691 382.828 245.347 380.647 240.669L370.195 218.255L361.187 222.455L355.668 210.62L364.676 206.419L359.556 191.338L372.124 185.477L378.816 199.826L392.746 193.33L398.265 205.166L384.335 211.661L394.884 234.285C395.991 236.659 397.28 238.056 398.751 238.475C400.221 238.894 402.214 238.518 404.727 237.346L411.64 234.122L417.257 246.167L407.725 250.612ZM453.445 230.822C448.417 233.167 443.34 234.132 438.217 233.715C433.13 233.197 428.438 231.432 424.144 228.419C419.886 225.304 416.503 221.058 413.996 215.682C411.424 210.166 410.329 204.81 410.713 199.616C411.132 194.32 412.832 189.574 415.806 185.382C418.748 181.12 422.734 177.816 427.762 175.472C432.858 173.095 437.951 172.166 443.038 172.684C448.162 173.1 452.854 174.865 457.112 177.98C461.406 180.993 464.824 185.222 467.364 190.668C469.904 196.115 470.962 201.487 470.543 206.783C470.16 211.977 468.496 216.706 465.554 220.968C462.579 225.16 458.541 228.446 453.445 230.822ZM447.73 218.568C450.104 217.462 451.938 215.926 453.233 213.962C454.598 211.966 455.266 209.571 455.239 206.778C455.281 203.954 454.505 200.83 452.91 197.408C451.315 193.987 449.436 191.42 447.278 189.706C445.156 187.89 442.892 186.863 440.486 186.625C438.116 186.285 435.78 186.652 433.476 187.726C431.241 188.769 429.459 190.322 428.127 192.388C426.762 194.385 426.058 196.796 426.016 199.621C426.011 202.344 426.806 205.416 428.401 208.837C429.997 212.258 431.855 214.877 433.977 216.693C436.168 218.477 438.432 219.504 440.769 219.774C443.176 220.012 445.495 219.61 447.73 218.568ZM346.752 416.394L311.392 340.563L323.96 334.702L328.95 341.301C329.351 339.244 330.027 337.229 330.977 335.256C331.894 333.213 333.221 331.319 334.958 329.574C336.732 327.727 339.05 326.136 341.913 324.801C346.871 322.489 351.804 321.676 356.715 322.361C361.625 323.047 366.14 324.98 370.257 328.16C374.414 331.238 377.728 335.43 380.202 340.737C382.677 346.044 383.775 351.312 383.493 356.544C383.179 361.706 381.691 366.353 379.028 370.485C376.364 374.617 372.623 377.807 367.805 380.054C363.895 381.877 360.183 382.758 356.669 382.696C353.192 382.532 349.96 381.617 346.972 379.95L360.892 409.8L346.752 416.394ZM358.691 369.257C361.483 367.955 363.634 366.187 365.143 363.953C366.722 361.687 367.567 359.125 367.68 356.267C367.792 353.41 367.148 350.479 365.748 347.477C364.348 344.475 362.518 342.098 360.256 340.347C357.962 338.527 355.439 337.493 352.689 337.245C349.975 336.895 347.222 337.371 344.429 338.674C341.706 339.944 339.571 341.747 338.025 344.083C336.517 346.316 335.671 348.878 335.489 351.769C335.376 354.626 336.02 357.557 337.42 360.559C338.82 363.561 340.667 365.973 342.961 367.794C345.293 369.512 347.799 370.511 350.48 370.791C353.23 371.039 355.967 370.527 358.691 369.257ZM404.955 361.2L380.339 308.412L394.479 301.819L419.095 354.607L404.955 361.2ZM384.092 297.864C381.578 299.036 379.141 299.28 376.782 298.595C374.458 297.808 372.761 296.262 371.687 293.958C370.612 291.653 370.535 289.394 371.458 287.179C372.418 284.861 374.154 283.116 376.668 281.944C379.251 280.74 381.704 280.531 384.027 281.318C386.386 282.003 388.103 283.497 389.178 285.801C390.252 288.106 390.31 290.417 389.35 292.734C388.427 294.95 386.674 296.66 384.092 297.864ZM450.829 367.862L450.127 332.995L446.985 334.461L403.948 297.404L419.344 290.224L450.3 317.231L448.042 276.842L463.02 269.858L465.807 360.878L450.829 367.862ZM510.689 313.426C506.29 315.477 502.332 316.473 498.82 316.41C495.272 316.279 492.246 315.353 489.745 313.629C487.276 311.805 485.361 309.425 483.994 306.492C482.496 303.28 481.979 300.078 482.447 296.885C482.983 293.66 484.565 290.584 487.197 287.657C489.897 284.697 493.761 282.045 498.789 279.701L511.881 273.596C510.676 271.013 509.333 269.046 507.854 267.695C506.34 266.276 504.658 265.488 502.8 265.334C500.943 265.18 498.791 265.674 496.349 266.812C493.695 268.05 491.703 269.701 490.371 271.767C489.076 273.732 488.774 275.998 489.462 278.567L475.741 284.965C474.33 281.033 474.04 277.215 474.865 273.515C475.726 269.713 477.544 266.23 480.32 263.065C483.165 259.869 486.751 257.261 491.081 255.242C496.037 252.931 500.722 251.767 505.136 251.749C509.548 251.732 513.463 252.839 516.885 255.068C520.305 257.299 523.09 260.718 525.239 265.327L540.477 298.005L528.537 303.573L523.206 296.241C523.088 297.996 522.767 299.676 522.241 301.281C521.714 302.887 520.946 304.435 519.942 305.923C518.936 307.413 517.657 308.774 516.108 310.006C514.588 311.31 512.784 312.449 510.689 313.426ZM508.962 300.97C510.775 300.124 512.236 299.061 513.34 297.781C514.481 296.399 515.314 294.905 515.841 293.299C516.335 291.624 516.518 289.923 516.394 288.196C516.306 286.367 515.96 284.53 515.355 282.687L515.306 282.582L504.518 287.613C502.352 288.623 500.701 289.733 499.567 290.942C498.467 292.05 497.833 293.238 497.66 294.509C497.488 295.779 497.695 297.043 498.281 298.3C498.932 299.697 499.783 300.702 500.835 301.317C501.887 301.931 503.119 302.207 504.535 302.142C505.948 302.078 507.424 301.687 508.962 300.97ZM553.666 291.855L529.05 239.067L541.514 233.255L546.566 241.355C546.806 237.673 547.967 234.242 550.053 231.059C552.211 227.842 555.349 225.274 559.467 223.354C563.866 221.302 567.991 220.484 571.839 220.9C575.69 221.314 579.195 222.91 582.359 225.685C585.594 228.427 588.398 232.348 590.775 237.445L604.987 267.924L590.952 274.468L577.375 245.351C575.421 241.161 573.017 238.372 570.158 236.985C567.372 235.564 564.128 235.717 560.426 237.443C558.053 238.549 556.183 240.102 554.818 242.098C553.526 244.061 552.841 246.335 552.771 248.918C552.668 251.432 553.3 254.155 554.667 257.087L567.805 285.262L553.666 291.855ZM652.369 275.412C647.342 277.757 642.65 279.179 638.293 279.681C633.969 280.252 630.174 279.769 626.907 278.232C623.741 276.733 621.313 274.167 619.62 270.536C618.48 268.092 618.034 265.495 618.282 262.744C618.529 259.994 619.434 257.192 620.993 254.339C622.592 251.384 624.913 248.431 627.956 245.482L636.522 249.904C633.799 252.448 632.061 254.832 631.311 257.051C630.663 259.309 630.763 261.345 631.61 263.16C632.359 264.766 633.517 265.884 635.085 266.513C636.723 267.109 638.563 267.229 640.608 266.87C642.754 266.55 644.979 265.852 647.283 264.778C649.518 263.735 651.306 262.562 652.653 261.254C654.068 259.913 654.97 258.473 655.356 256.933C655.846 255.429 655.748 253.945 655.064 252.478C654.185 250.593 652.804 249.367 650.925 248.798C649.046 248.229 646.049 248.734 641.939 250.31C638.248 251.692 634.891 252.789 631.871 253.603C628.887 254.314 626.185 254.809 623.765 255.087C621.312 255.296 619.14 255.288 617.251 255.064C615.43 254.808 613.855 254.438 612.525 253.953L611.401 251.544L616.992 234.273L628.665 232.783L621.525 251.924L622.281 243.155C623.246 243.216 624.174 243.293 625.067 243.387C625.999 243.377 627.104 243.286 628.383 243.115C629.629 242.874 631.226 242.47 633.173 241.902C635.119 241.334 637.538 240.504 640.427 239.412C645.231 237.682 649.409 236.796 652.96 236.755C656.58 236.682 659.61 237.437 662.05 239.02C664.456 240.533 666.407 242.896 667.905 246.108C669.37 249.25 669.864 252.59 669.389 256.127C669.016 259.701 667.439 263.157 664.66 266.493C661.912 269.899 657.816 272.872 652.369 275.412ZM633.761 235.507C629.362 237.558 625.165 238.495 621.172 238.317C617.216 238.036 613.697 236.872 610.617 234.823C607.574 232.672 605.222 229.815 603.561 226.254C601.901 222.693 601.241 219.091 601.582 215.446C601.959 211.7 603.313 208.221 605.641 205.01C608.038 201.767 611.438 199.119 615.837 197.068C620.305 194.984 624.518 194.082 628.474 194.363C632.499 194.611 636.035 195.81 639.078 197.961C642.089 200.043 644.425 202.864 646.085 206.425C647.746 209.986 648.422 213.624 648.114 217.338C647.773 220.982 646.402 224.427 644.005 227.67C641.645 230.811 638.229 233.423 633.761 235.507ZM628.731 224.719C631.454 223.449 633.328 221.725 634.352 219.547C635.377 217.369 635.254 214.919 633.984 212.195C632.715 209.472 630.916 207.803 628.589 207.188C626.23 206.503 623.688 206.796 620.965 208.065C618.311 209.303 616.453 211.062 615.392 213.342C614.368 215.52 614.49 217.97 615.76 220.694C617.03 223.417 618.828 225.086 621.155 225.701C623.551 226.284 626.076 225.957 628.731 224.719ZM629.91 204.277L622.917 195.297L644.597 185.187L648.505 193.566L629.91 204.277ZM704.171 223.204C699.144 225.548 694.067 226.513 688.943 226.097C683.856 225.579 679.164 223.814 674.87 220.8C670.612 217.685 667.23 213.44 664.723 208.063C662.15 202.547 661.056 197.192 661.439 191.997C661.858 186.701 663.558 181.956 666.533 177.763C669.475 173.501 673.461 170.197 678.488 167.853C683.585 165.477 688.678 164.547 693.765 165.065C698.888 165.481 703.58 167.246 707.838 170.361C712.132 173.374 715.551 177.603 718.09 183.05C720.63 188.496 721.689 193.868 721.269 199.164C720.886 204.358 719.222 209.087 716.28 213.349C713.306 217.542 709.267 220.827 704.171 223.204ZM698.457 210.949C700.83 209.843 702.664 208.307 703.96 206.343C705.324 204.347 705.993 201.952 705.966 199.16C706.007 196.335 705.232 193.211 703.636 189.79C702.041 186.368 700.163 183.801 698.005 182.087C695.883 180.271 693.619 179.244 691.212 179.006C688.842 178.666 686.507 179.033 684.203 180.107C681.967 181.15 680.185 182.703 678.853 184.769C677.489 186.766 676.784 189.177 676.743 192.002C676.737 194.725 677.532 197.797 679.128 201.218C680.723 204.64 682.582 207.258 684.704 209.074C686.894 210.858 689.158 211.885 691.496 212.155C693.902 212.393 696.221 211.992 698.457 210.949Z" fill="#0A5799"/>
</g>
</g>
<defs>
<filter id="filter0_dddddddf_2002_17" x="2.95129" y="149.926" width="733.407" height="417.722" filterUnits="userSpaceOnUse" color-interpolation-filters="sRGB">
<feFlood flood-opacity="0" result="BackgroundImageFix"/>
<feColorMatrix in="SourceAlpha" type="matrix" values="0 0 0 0 0 0 0 0 0 0 0 0 0 0 0 0 0 0 127 0" result="hardAlpha"/>
<feOffset dy="4"/>
<feGaussianBlur stdDeviation="2"/>
<feComposite in2="hardAlpha" operator="out"/>
<feColorMatrix type="matrix" values="0 0 0 0 0 0 0 0 0 0 0 0 0 0 0 0 0 0 0.25 0"/>
<feBlend mode="normal" in2="BackgroundImageFix" result="effect1_dropShadow_2002_17"/>
<feColorMatrix in="SourceAlpha" type="matrix" values="0 0 0 0 0 0 0 0 0 0 0 0 0 0 0 0 0 0 127 0" result="hardAlpha"/>
<feOffset dy="4"/>
<feGaussianBlur stdDeviation="2"/>
<feComposite in2="hardAlpha" operator="out"/>
<feColorMatrix type="matrix" values="0 0 0 0 0 0 0 0 0 0 0 0 0 0 0 0 0 0 0.25 0"/>
<feBlend mode="normal" in2="effect1_dropShadow_2002_17" result="effect2_dropShadow_2002_17"/>
<feColorMatrix in="SourceAlpha" type="matrix" values="0 0 0 0 0 0 0 0 0 0 0 0 0 0 0 0 0 0 127 0" result="hardAlpha"/>
<feOffset dy="4"/>
<feGaussianBlur stdDeviation="2"/>
<feComposite in2="hardAlpha" operator="out"/>
<feColorMatrix type="matrix" values="0 0 0 0 0 0 0 0 0 0 0 0 0 0 0 0 0 0 0.25 0"/>
<feBlend mode="normal" in2="effect2_dropShadow_2002_17" result="effect3_dropShadow_2002_17"/>
<feColorMatrix in="SourceAlpha" type="matrix" values="0 0 0 0 0 0 0 0 0 0 0 0 0 0 0 0 0 0 127 0" result="hardAlpha"/>
<feOffset dy="4"/>
<feGaussianBlur stdDeviation="2"/>
<feComposite in2="hardAlpha" operator="out"/>
<feColorMatrix type="matrix" values="0 0 0 0 0 0 0 0 0 0 0 0 0 0 0 0 0 0 0.25 0"/>
<feBlend mode="normal" in2="effect3_dropShadow_2002_17" result="effect4_dropShadow_2002_17"/>
<feColorMatrix in="SourceAlpha" type="matrix" values="0 0 0 0 0 0 0 0 0 0 0 0 0 0 0 0 0 0 127 0" result="hardAlpha"/>
<feOffset dy="4"/>
<feGaussianBlur stdDeviation="2"/>
<feComposite in2="hardAlpha" operator="out"/>
<feColorMatrix type="matrix" values="0 0 0 0 0 0 0 0 0 0 0 0 0 0 0 0 0 0 0.25 0"/>
<feBlend mode="normal" in2="effect4_dropShadow_2002_17" result="effect5_dropShadow_2002_17"/>
<feColorMatrix in="SourceAlpha" type="matrix" values="0 0 0 0 0 0 0 0 0 0 0 0 0 0 0 0 0 0 127 0" result="hardAlpha"/>
<feOffset dy="4"/>
<feGaussianBlur stdDeviation="2"/>
<feComposite in2="hardAlpha" operator="out"/>
<feColorMatrix type="matrix" values="0 0 0 0 0 0 0 0 0 0 0 0 0 0 0 0 0 0 0.25 0"/>
<feBlend mode="normal" in2="effect5_dropShadow_2002_17" result="effect6_dropShadow_2002_17"/>
<feColorMatrix in="SourceAlpha" type="matrix" values="0 0 0 0 0 0 0 0 0 0 0 0 0 0 0 0 0 0 127 0" result="hardAlpha"/>
<feOffset dy="4"/>
<feGaussianBlur stdDeviation="2"/>
<feComposite in2="hardAlpha" operator="out"/>
<feColorMatrix type="matrix" values="0 0 0 0 0 0 0 0 0 0 0 0 0 0 0 0 0 0 0.25 0"/>
<feBlend mode="normal" in2="effect6_dropShadow_2002_17" result="effect7_dropShadow_2002_17"/>
<feBlend mode="normal" in="SourceGraphic" in2="effect7_dropShadow_2002_17" result="shape"/>
<feGaussianBlur stdDeviation="7.5" result="effect8_foregroundBlur_2002_17"/>
</filter>
<filter id="filter1_dii_2002_17" x="13.9513" y="240.926" width="275.357" height="319.721" filterUnits="userSpaceOnUse" color-interpolation-filters="sRGB">
<feFlood flood-opacity="0" result="BackgroundImageFix"/>
<feColorMatrix in="SourceAlpha" type="matrix" values="0 0 0 0 0 0 0 0 0 0 0 0 0 0 0 0 0 0 127 0" result="hardAlpha"/>
<feOffset dy="4"/>
<feGaussianBlur stdDeviation="2"/>
<feComposite in2="hardAlpha" operator="out"/>
<feColorMatrix type="matrix" values="0 0 0 0 0 0 0 0 0 0 0 0 0 0 0 0 0 0 0.25 0"/>
<feBlend mode="normal" in2="BackgroundImageFix" result="effect1_dropShadow_2002_17"/>
<feBlend mode="normal" in="SourceGraphic" in2="effect1_dropShadow_2002_17" result="shape"/>
<feColorMatrix in="SourceAlpha" type="matrix" values="0 0 0 0 0 0 0 0 0 0 0 0 0 0 0 0 0 0 127 0" result="hardAlpha"/>
<feOffset dy="4"/>
<feGaussianBlur stdDeviation="2"/>
<feComposite in2="hardAlpha" operator="arithmetic" k2="-1" k3="1"/>
<feColorMatrix type="matrix" values="0 0 0 0 0 0 0 0 0 0 0 0 0 0 0 0 0 0 0.25 0"/>
<feBlend mode="normal" in2="shape" result="effect2_innerShadow_2002_17"/>
<feColorMatrix in="SourceAlpha" type="matrix" values="0 0 0 0 0 0 0 0 0 0 0 0 0 0 0 0 0 0 127 0" result="hardAlpha"/>
<feOffset dy="4"/>
<feGaussianBlur stdDeviation="2"/>
<feComposite in2="hardAlpha" operator="arithmetic" k2="-1" k3="1"/>
<feColorMatrix type="matrix" values="0 0 0 0 0 0 0 0 0 0 0 0 0 0 0 0 0 0 0.25 0"/>
<feBlend mode="normal" in2="effect2_innerShadow_2002_17" result="effect3_innerShadow_2002_17"/>
</filter>
<filter id="filter2_di_2002_17" x="254.979" y="164.926" width="470.379" height="259.468" filterUnits="userSpaceOnUse" color-interpolation-filters="sRGB">
<feFlood flood-opacity="0" result="BackgroundImageFix"/>
<feColorMatrix in="SourceAlpha" type="matrix" values="0 0 0 0 0 0 0 0 0 0 0 0 0 0 0 0 0 0 127 0" result="hardAlpha"/>
<feOffset dy="4"/>
<feGaussianBlur stdDeviation="2"/>
<feComposite in2="hardAlpha" operator="out"/>
<feColorMatrix type="matrix" values="0 0 0 0 0 0 0 0 0 0 0 0 0 0 0 0 0 0 0.25 0"/>
<feBlend mode="normal" in2="BackgroundImageFix" result="effect1_dropShadow_2002_17"/>
<feBlend mode="normal" in="SourceGraphic" in2="effect1_dropShadow_2002_17" result="shape"/>
<feColorMatrix in="SourceAlpha" type="matrix" values="0 0 0 0 0 0 0 0 0 0 0 0 0 0 0 0 0 0 127 0" result="hardAlpha"/>
<feOffset dy="4"/>
<feGaussianBlur stdDeviation="2"/>
<feComposite in2="hardAlpha" operator="arithmetic" k2="-1" k3="1"/>
<feColorMatrix type="matrix" values="0 0 0 0 0 0 0 0 0 0 0 0 0 0 0 0 0 0 0.25 0"/>
<feBlend mode="normal" in2="shape" result="effect2_innerShadow_2002_17"/>
</filter>
</defs>
</svg>
