<!DOCTYPE svg PUBLIC "-//W3C//DTD SVG 1.1//EN" "http://www.w3.org/Graphics/SVG/1.1/DTD/svg11.dtd">
<!-- Uploaded to: SVG Repo, www.svgrepo.com, Transformed by: SVG Repo Mixer Tools -->
<svg fill="#ffffff" width="64px" height="64px" viewBox="0 0 1024 1024" xmlns="http://www.w3.org/2000/svg">
<g id="SVGRepo_bgCarrier" stroke-width="0"/>
<g id="SVGRepo_tracerCarrier" stroke-linecap="round" stroke-linejoin="round"/>
<g id="SVGRepo_iconCarrier">
<path d="M256 614.4h230.4V768H256V614.4zm512-204.8v153.6H537.6V409.6h-51.2v153.6H256V409.6h91.5c-8.8-15.1-14.2-32.5-14.2-51.2 0-56.6 45.8-102.4 102.4-102.4 30.8 0 58 13.8 76.8 35.3 18.8-21.5 46-35.3 76.8-35.3 56.6 0 102.4 45.8 102.4 102.4 0 18.7-5.4 36.1-14.2 51.2H768zm-281.1-51.2c0-28.3-22.9-51.2-51.2-51.2-28.3 0-51.2 22.9-51.2 51.2 0 28.3 22.9 51.2 51.2 51.2 28.3 0 51.2-22.9 51.2-51.2zm153.6 0c0-28.3-22.9-51.2-51.2-51.2-28.3 0-51.2 22.9-51.2 51.2 0 28.3 22.9 51.2 51.2 51.2 28.3 0 51.2-22.9 51.2-51.2zM537.6 768H768V614.4H537.6V768z"/>
</g>
</svg>