<svg width="220" height="106" viewBox="0 0 220 106" fill="none" xmlns="http://www.w3.org/2000/svg">
<g filter="url(#filter0_ddd_11_2)">
<path d="M22.1249 66.9564C23.0451 65.6041 23.905 64.6044 24.9056 63.4413C17.4914 61.1748 12.6323 56.8502 12.0766 48.7891C12.0323 48.1463 11.4893 47.3907 10.9595 46.9506C3.34044 40.6206 3.07133 32.5517 5.02399 23.7025C5.86438 19.894 6.19147 15.8666 6.03278 11.968C5.7942 6.10651 8.58618 2.96293 13.6636 0.695532C17.2242 -0.894478 18.7978 0.321088 19.0415 3.53082C19.6616 11.6991 23.7812 18.189 28.6182 25.121C30.332 19.6246 34.6164 16.1384 34.491 9.88535C34.3752 4.10692 39.6579 1.679 47.9937 2.1667C49.0326 10.9537 50.0862 19.8651 51.1399 28.7766C55.9049 24.1316 59.0091 19.4517 65.9472 19.8052C70.5155 20.038 73.4411 21.6768 75.1002 25.8077C76.8815 30.243 78.6609 34.6792 80.7462 39.8751C76.4319 39.8751 72.8772 39.8751 69.2409 39.8751C73.019 62.0112 66.6353 69.2046 46.399 74.3818C46.3164 74.8324 46.1586 75.3129 46.1498 75.7962C45.9278 87.9748 45.3854 89.4772 33.6766 91.437C26.5877 92.6236 18.9208 93.6283 11.9489 89.3898C7.18559 86.494 6.65552 84.12 10.3897 80.1324C14.3406 75.9135 18.1777 71.588 22.1249 66.9564ZM56.621 31.9613C53.3423 36.4008 50.0636 40.8404 46.0272 46.3059C38.7681 40.4278 31.1536 35.8095 25.665 29.3772C20.2975 23.0867 17.0979 14.9463 12.9249 7.57935C9.99536 10.2814 10.9411 13.6879 11.8295 17.2839C12.215 18.8445 12.0477 20.9369 11.2838 22.3195C7.45587 29.2483 8.35782 36.2835 13.6556 42.1111C15.2962 43.9157 16.0498 46.5493 17.1122 48.8483C17.7192 50.1618 17.9111 51.7043 18.6692 52.9041C21.2989 57.066 25.1852 58.8873 30.1105 59.0489C31.455 59.093 32.8652 60.3073 34.0105 61.2652C34.3442 61.5443 34.1662 63.1014 33.7095 63.5484C31.2263 65.9786 28.4111 68.0829 26.0321 70.6033C21.8848 74.9971 17.9722 79.6126 13.6955 84.4348C20.0408 88.7277 26.6987 87.5257 32.8746 86.4402C41.5321 84.9185 42.2724 83.5708 42.0463 74.7972C41.9479 70.9792 42.8322 68.8163 47.0295 68.8407C48.2804 68.848 49.5341 68.2347 50.7879 67.9107C59.6723 65.6145 65.244 58.5863 65.081 49.4682C65.003 45.0989 64.4271 40.7385 64.051 36.053C67.2186 36.053 69.841 36.053 72.8114 36.053C72.0092 33.4157 71.5014 31.0519 70.5807 28.8618C68.5983 24.1466 64.4096 23.2954 60.8029 26.8492C59.4177 28.2141 58.3451 29.8963 56.621 31.9613ZM44.6745 37.9175C45.8036 36.5399 48.0697 34.9777 47.8809 33.814C46.4431 24.9542 44.5257 16.1723 42.5136 6.15046C41.2493 9.03551 40.1474 11.4381 39.1403 13.8797C38.122 16.3486 37.6425 19.1715 36.1451 21.2854C32.2972 26.7172 32.739 30.2466 38.3216 33.9771C40.2108 35.2396 42.0521 36.5737 44.6745 37.9175Z" fill="white"/>
<path d="M22.5054 67.2807L22.523 67.2601L22.5382 67.2377C23.4406 65.9116 24.2832 64.9314 25.2846 63.7674L25.7839 63.187L25.0517 62.9631C21.3965 61.8457 18.4167 60.2343 16.2849 57.9472C14.1607 55.6682 12.8463 52.6841 12.5754 48.7548C12.5453 48.3176 12.3527 47.886 12.1212 47.5243C11.886 47.1567 11.5835 46.8189 11.279 46.566C7.55674 43.4735 5.64583 39.9748 4.89282 36.174C4.1366 32.3571 4.54237 28.2056 5.51225 23.8102C6.36243 19.9573 6.6927 15.8868 6.53237 11.9476C6.41667 9.10514 7.03547 6.97044 8.25988 5.27693C9.4913 3.57373 11.3711 2.2669 13.8675 1.15208C15.6135 0.372393 16.695 0.366687 17.3446 0.745276C17.9902 1.12147 18.4241 2.00375 18.5429 3.56867C19.1744 11.8871 23.3728 18.4775 28.2081 25.4071L28.7919 26.2437L29.0955 25.2698C29.7342 23.2215 30.7312 21.4746 31.7438 19.7004C32.059 19.148 32.3758 18.593 32.6838 18.0253C33.969 15.6564 35.0562 13.13 34.9909 9.87533C34.9636 8.5098 35.2548 7.3687 35.8104 6.42702C36.3662 5.48483 37.2033 4.71424 38.3106 4.11616C40.464 2.95302 43.6125 2.45822 47.5466 2.64375L50.6433 28.8353L50.7624 29.8428L51.4889 29.1346C52.2706 28.3726 53.0136 27.6038 53.7297 26.8628C54.1082 26.4711 54.4792 26.0873 54.8444 25.7163C55.9097 24.6342 56.9412 23.6453 58.0317 22.8141C60.1951 21.1654 62.5921 20.1349 65.9218 20.3046C68.1555 20.4184 69.9353 20.8739 71.3473 21.7672C72.7519 22.6558 73.8378 24.0062 74.6362 25.994C75.859 29.0387 77.0809 32.0837 78.4015 35.3748C78.9194 36.6654 79.4525 37.9939 80.0068 39.3751H79.9955H79.9707H79.946H79.9212H79.8965H79.8718H79.8471H79.8224H79.7978H79.7732H79.7485H79.7239H79.6993H79.6748H79.6502H79.6257H79.6011H79.5766H79.5521H79.5276H79.5032H79.4787H79.4543H79.4299H79.4055H79.3811H79.3567H79.3324H79.308H79.2837H79.2594H79.2351H79.2108H79.1865H79.1623H79.1381H79.1138H79.0896H79.0654H79.0413H79.0171H78.993H78.9688H78.9447H78.9206H78.8965H78.8724H78.8484H78.8243H78.8003H78.7763H78.7523H78.7283H78.7043H78.6804H78.6564H78.6325H78.6086H78.5847H78.5608H78.5369H78.5131H78.4892H78.4654H78.4416H78.4177H78.394H78.3702H78.3464H78.3227H78.2989H78.2752H78.2515H78.2278H78.2041H78.1805H78.1568H78.1332H78.1095H78.0859H78.0623H78.0387H78.0152H77.9916H77.9681H77.9445H77.921H77.8975H77.874H77.8505H77.827H77.8036H77.7801H77.7567H77.7333H77.7099H77.6865H77.6631H77.6397H77.6164H77.593H77.5697H77.5464H77.5231H77.4998H77.4765H77.4532H77.43H77.4067H77.3835H77.3603H77.3371H77.3139H77.2907H77.2675H77.2444H77.2212H77.1981H77.175H77.1519H77.1288H77.1057H77.0826H77.0595H77.0365H77.0134H76.9904H76.9674H76.9444H76.9214H76.8984H76.8754H76.8525H76.8295H76.8066H76.7836H76.7607H76.7378H76.7149H76.692H76.6692H76.6463H76.6235H76.6006H76.5778H76.555H76.5322H76.5094H76.4866H76.4638H76.4411H76.4183H76.3956H76.3728H76.3501H76.3274H76.3047H76.282H76.2593H76.2366H76.214H76.1913H76.1687H76.1461H76.1235H76.1008H76.0782H76.0557H76.0331H76.0105H75.988H75.9654H75.9429H75.9203H75.8978H75.8753H75.8528H75.8303H75.8078H75.7854H75.7629H75.7404H75.718H75.6956H75.6731H75.6507H75.6283H75.6059H75.5835H75.5612H75.5388H75.5164H75.4941H75.4717H75.4494H75.4271H75.4048H75.3825H75.3602H75.3379H75.3156H75.2933H75.2711H75.2488H75.2266H75.2043H75.1821H75.1599H75.1377H75.1155H75.0933H75.0711H75.0489H75.0268H75.0046H74.9824H74.9603H74.9382H74.916H74.8939H74.8718H74.8497H74.8276H74.8055H74.7834H74.7614H74.7393H74.7172H74.6952H74.6732H74.6511H74.6291H74.6071H74.5851H74.5631H74.5411H74.5191H74.4971H74.4751H74.4532H74.4312H74.4092H74.3873H74.3654H74.3434H74.3215H74.2996H74.2777H74.2558H74.2339H74.212H74.1901H74.1682H74.1464H74.1245H74.1027H74.0808H74.059H74.0371H74.0153H73.9935H73.9717H73.9499H73.9281H73.9063H73.8845H73.8627H73.8409H73.8191H73.7974H73.7756H73.7539H73.7321H73.7104H73.6887H73.6669H73.6452H73.6235H73.6018H73.5801H73.5584H73.5367H73.515H73.4933H73.4716H73.45H73.4283H73.4066H73.385H73.3633H73.3417H73.32H73.2984H73.2768H73.2552H73.2335H73.2119H73.1903H73.1687H73.1471H73.1255H73.104H73.0824H73.0608H73.0392H73.0177H72.9961H72.9745H72.953H72.9314H72.9099H72.8884H72.8668H72.8453H72.8238H72.8022H72.7807H72.7592H72.7377H72.7162H72.6947H72.6732H72.6517H72.6302H72.6087H72.5873H72.5658H72.5443H72.5229H72.5014H72.4799H72.4585H72.437H72.4156H72.3941H72.3727H72.3513H72.3298H72.3084H72.287H72.2655H72.2441H72.2227H72.2013H72.1799H72.1585H72.1371H72.1157H72.0943H72.0729H72.0515H72.0301H72.0087H71.9874H71.966H71.9446H71.9232H71.9019H71.8805H71.8591H71.8378H71.8164H71.7951H71.7737H71.7524H71.731H71.7097H71.6883H71.667H71.6457H71.6243H71.603H71.5817H71.5603H71.539H71.5177H71.4964H71.4751H71.4537H71.4324H71.4111H71.3898H71.3685H71.3472H71.3259H71.3046H71.2833H71.262H71.2407H71.2194H71.1981H71.1768H71.1555H71.1342H71.1129H71.0916H71.0704H71.0491H71.0278H71.0065H70.9852H70.964H70.9427H70.9214H70.9001H70.8788H70.8576H70.8363H70.815H70.7938H70.7725H70.7512H70.7299H70.7087H70.6874H70.6662H70.6449H70.6236H70.6024H70.5811H70.5598H70.5386H70.5173H70.496H70.4748H70.4535H70.4323H70.411H70.3897H70.3685H70.3472H70.326H70.3047H70.2834H70.2622H70.2409H70.2197H70.1984H70.1771H70.1559H70.1346H70.1134H70.0921H70.0708H70.0496H70.0283H70.007H69.9858H69.9645H69.9433H69.922H69.9007H69.8794H69.8582H69.8369H69.8156H69.7944H69.7731H69.7518H69.7306H69.7093H69.688H69.6667H69.6455H69.6242H69.6029H69.5816H69.5603H69.5391H69.5178H69.4965H69.4752H69.4539H69.4326H69.4113H69.39H69.3687H69.3474H69.3261H69.3048H69.2835H69.2622H69.2409H68.6484L68.7481 39.9592C70.6319 50.9971 69.9505 58.1578 66.4159 63.2011C62.8744 68.2542 56.3809 71.3119 46.2751 73.8974L45.9649 73.9768L45.9072 74.2916C45.8829 74.4243 45.8544 74.5471 45.823 74.6829C45.8024 74.7716 45.7806 74.8657 45.7579 74.9717C45.7048 75.2188 45.6552 75.497 45.6499 75.7871C45.5943 78.8368 45.5187 81.1837 45.2586 83.0327C44.9989 84.8787 44.5619 86.1724 43.8225 87.1463C43.0878 88.114 42.0125 88.8206 40.366 89.408C38.7108 89.9985 36.5203 90.4541 33.5941 90.9439C26.4928 92.1325 19.0038 93.0937 12.2086 88.9626C9.83094 87.5171 8.69363 86.3001 8.47486 85.0821C8.25957 83.8835 8.89911 82.4556 10.7547 80.4742C14.7118 76.2486 18.5542 71.9172 22.5054 67.2807ZM56.2372 31.6409L56.2277 31.6523L56.2188 31.6643L45.9348 45.5893C43.8116 43.8864 41.6523 42.2782 39.5368 40.7026C38.161 39.678 36.8038 38.6672 35.4872 37.6532C31.9988 34.9665 28.7557 32.229 26.0454 29.0527C23.397 25.9488 21.2753 22.3789 19.2884 18.647C18.5223 17.2081 17.7726 15.7376 17.02 14.2615C15.8325 11.9321 14.6377 9.58855 13.36 7.33292L13.0493 6.78445L12.5859 7.21181C11.0046 8.67033 10.4655 10.3366 10.4455 12.0907C10.427 13.7063 10.8506 15.4141 11.2661 17.089C11.2921 17.1941 11.3182 17.299 11.344 17.4038C11.705 18.865 11.5386 20.8244 10.8462 22.0778C8.88837 25.6215 8.12763 29.2174 8.55125 32.6888C8.97481 36.1596 10.5778 39.4687 13.2857 42.4474C14.0529 43.2914 14.6257 44.3442 15.1446 45.4992C15.3868 46.0381 15.6137 46.5911 15.8437 47.1516L15.892 47.2694C16.1375 47.8671 16.3875 48.4722 16.6583 49.058C16.8975 49.5757 17.0677 50.1294 17.2489 50.719C17.2843 50.834 17.32 50.9502 17.3568 51.0679C17.5761 51.7699 17.8294 52.511 18.2465 53.1711C20.9805 57.4981 25.0351 59.3827 30.0941 59.5486C30.6306 59.5662 31.2264 59.8225 31.8639 60.2343C32.4608 60.62 33.0406 61.1053 33.5918 61.5667C33.6107 61.5826 33.6296 61.5984 33.6485 61.6142C33.656 61.6388 33.6651 61.6787 33.6721 61.7365C33.689 61.8778 33.6867 62.0702 33.6602 62.2819C33.634 62.4921 33.5866 62.7012 33.5249 62.875C33.4593 63.06 33.3941 63.1575 33.3598 63.191C32.2885 64.2394 31.155 65.2265 30.0091 66.2243C29.8406 66.371 29.6718 66.5179 29.5029 66.6653C28.1909 67.8106 26.8762 68.9807 25.6685 70.2601C22.7557 73.3461 19.9549 76.545 17.0703 79.8397C15.841 81.2439 14.5964 82.6654 13.3214 84.103L12.9432 84.5295L13.4153 84.8489C19.8919 89.2307 26.6884 88.0356 32.795 86.9618L32.9612 86.9326C35.1289 86.5516 36.837 86.1759 38.1662 85.6814C39.5023 85.1843 40.4931 84.5539 41.1893 83.6415C41.8832 82.732 42.2436 81.5956 42.4222 80.1658C42.6003 78.7405 42.6027 76.9772 42.5462 74.7844C42.4972 72.8858 42.7036 71.5409 43.3323 70.6709C43.931 69.8424 45.0059 69.3289 47.0266 69.3407C47.73 69.3448 48.4151 69.1748 49.0548 68.9778C49.3058 68.9005 49.543 68.8216 49.774 68.7448C50.1593 68.6168 50.5273 68.4945 50.913 68.3948C60.0111 66.0434 65.7482 58.819 65.581 49.4592C65.5272 46.4529 65.2383 43.4383 64.9416 40.3427C64.8219 39.0942 64.701 37.8326 64.5937 36.553H64.6024H64.6206H64.6387H64.6569H64.6751H64.6932H64.7114H64.7295H64.7476H64.7657H64.7838H64.8019H64.82H64.8381H64.8561H64.8742H64.8922H64.9102H64.9282H64.9462H64.9642H64.9822H65.0002H65.0181H65.0361H65.054H65.072H65.0899H65.1078H65.1257H65.1436H65.1615H65.1793H65.1972H65.215H65.2329H65.2507H65.2685H65.2863H65.3041H65.3219H65.3397H65.3575H65.3752H65.393H65.4107H65.4285H65.4462H65.4639H65.4816H65.4993H65.517H65.5346H65.5523H65.57H65.5876H65.6053H65.6229H65.6405H65.6581H65.6757H65.6933H65.7109H65.7285H65.7461H65.7636H65.7812H65.7987H65.8162H65.8338H65.8513H65.8688H65.8863H65.9038H65.9213H65.9387H65.9562H65.9737H65.9911H66.0086H66.026H66.0434H66.0608H66.0782H66.0956H66.113H66.1304H66.1478H66.1652H66.1825H66.1999H66.2172H66.2346H66.2519H66.2692H66.2865H66.3038H66.3212H66.3384H66.3557H66.373H66.3903H66.4075H66.4248H66.4421H66.4593H66.4765H66.4938H66.511H66.5282H66.5454H66.5626H66.5798H66.597H66.6142H66.6313H66.6485H66.6657H66.6828H66.7H66.7171H66.7342H66.7514H66.7685H66.7856H66.8027H66.8198H66.8369H66.854H66.8711H66.8882H66.9052H66.9223H66.9394H66.9564H66.9735H66.9905H67.0076H67.0246H67.0416H67.0586H67.0756H67.0926H67.1096H67.1266H67.1436H67.1606H67.1776H67.1946H67.2115H67.2285H67.2455H67.2624H67.2794H67.2963H67.3132H67.3302H67.3471H67.364H67.3809H67.3979H67.4148H67.4317H67.4486H67.4655H67.4823H67.4992H67.5161H67.533H67.5499H67.5667H67.5836H67.6004H67.6173H67.6341H67.651H67.6678H67.6847H67.7015H67.7183H67.7351H67.7519H67.7688H67.7856H67.8024H67.8192H67.836H67.8528H67.8696H67.8864H67.9031H67.9199H67.9367H67.9535H67.9702H67.987H68.0038H68.0205H68.0373H68.054H68.0708H68.0875H68.1043H68.121H68.1377H68.1545H68.1712H68.1879H68.2046H68.2214H68.2381H68.2548H68.2715H68.2882H68.3049H68.3216H68.3383H68.355H68.3717H68.3884H68.4051H68.4218H68.4385H68.4551H68.4718H68.4885H68.5052H68.5219H68.5385H68.5552H68.5719H68.5885H68.6052H68.6218H68.6385H68.6552H68.6718H68.6885H68.7051H68.7218H68.7384H68.7551H68.7717H68.7883H68.805H68.8216H68.8383H68.8549H68.8715H68.8882H68.9048H68.9214H68.938H68.9547H68.9713H68.9879H69.0046H69.0212H69.0378H69.0544H69.071H69.0877H69.1043H69.1209H69.1375H69.1541H69.1708H69.1874H69.204H69.2206H69.2372H69.2538H69.2704H69.287H69.3037H69.3203H69.3369H69.3535H69.3701H69.3867H69.4033H69.4199H69.4365H69.4532H69.4698H69.4864H69.503H69.5196H69.5362H69.5528H69.5694H69.586H69.6027H69.6193H69.6359H69.6525H69.6691H69.6857H69.7023H69.7189H69.7356H69.7522H69.7688H69.7854H69.802H69.8187H69.8353H69.8519H69.8685H69.8851H69.9018H69.9184H69.935H69.9516H69.9683H69.9849H70.0015H70.0182H70.0348H70.0514H70.0681H70.0847H70.1014H70.118H70.1346H70.1513H70.1679H70.1846H70.2012H70.2179H70.2345H70.2512H70.2679H70.2845H70.3012H70.3178H70.3345H70.3512H70.3678H70.3845H70.4012H70.4179H70.4345H70.4512H70.4679H70.4846H70.5013H70.518H70.5347H70.5514H70.5681H70.5848H70.6015H70.6182H70.6349H70.6516H70.6683H70.6851H70.7018H70.7185H70.7352H70.752H70.7687H70.7854H70.8022H70.8189H70.8357H70.8524H70.8692H70.8859H70.9027H70.9194H70.9362H70.953H70.9698H70.9865H71.0033H71.0201H71.0369H71.0537H71.0705H71.0873H71.1041H71.1209H71.1377H71.1545H71.1714H71.1882H71.205H71.2219H71.2387H71.2555H71.2724H71.2892H71.3061H71.323H71.3398H71.3567H71.3736H71.3904H71.4073H71.4242H71.4411H71.458H71.4749H71.4918H71.5087H71.5256H71.5426H71.5595H71.5764H71.5934H71.6103H71.6272H71.6442H71.6611H71.6781H71.6951H71.7121H71.729H71.746H71.763H71.78H71.797H71.814H71.831H71.848H71.8651H71.8821H71.8991H71.9162H71.9332H71.9503H71.9673H71.9844H72.0015H72.0185H72.0356H72.0527H72.0698H72.0869H72.104H72.1211H72.1383H72.1554H72.1725H72.1897H72.2068H72.224H72.2411H72.2583H72.2755H72.2926H72.3098H72.327H72.3442H72.3614H72.3786H72.3959H72.4131H72.4303H72.4476H72.4648H72.4821H72.4993H72.5166H72.5339H72.5512H72.5685H72.5858H72.6031H72.6204H72.6377H72.655H72.6724H72.6897H72.7071H72.7244H72.7418H72.7592H72.7766H72.794H72.8114H73.486L73.2897 35.9075C73.0405 35.0883 72.8171 34.2836 72.5984 33.4959C72.1278 31.8007 71.6789 30.1838 71.0416 28.668C70.008 26.2096 68.3566 24.6657 66.4014 24.2648C64.445 23.8636 62.3351 24.6376 60.452 26.493C59.7338 27.2007 59.1021 27.9852 58.4435 28.8368C58.2989 29.0238 58.153 29.214 58.0045 29.4076C57.4721 30.1017 56.905 30.841 56.2372 31.6409ZM44.4465 38.3624L44.8055 38.5464L45.0612 38.2344C45.3242 37.9136 45.6598 37.5746 46.0271 37.2171C46.1214 37.1253 46.2182 37.032 46.3159 36.9378C46.5911 36.6724 46.8739 36.3997 47.1316 36.1329C47.4804 35.7717 47.8119 35.3929 48.0445 35.0139C48.2727 34.6421 48.4499 34.1992 48.3744 33.7339C47.2841 27.0154 45.9179 20.3386 44.446 13.1458C43.9742 10.8404 43.4916 8.4819 43.0038 6.05203L42.6918 4.49801L42.0556 5.94978C41.6584 6.85632 41.2762 7.7173 40.9074 8.5481C40.1068 10.3517 39.3694 12.013 38.6781 13.6891C38.3202 14.5567 38.0233 15.4797 37.7342 16.3785C37.6058 16.7777 37.4789 17.1722 37.3489 17.5549C36.9182 18.8229 36.4425 20.0006 35.7371 20.9964C33.7921 23.742 32.8437 26.1216 33.2033 28.3489C33.5641 30.5841 35.214 32.5018 38.0438 34.3929C38.3554 34.601 38.6669 34.8121 38.9819 35.0255C40.5626 36.0965 42.2325 37.2279 44.4465 38.3624Z" stroke="white"/>
</g>
<g filter="url(#filter1_dd_11_2)">
<path d="M83.31 59V33.8H88.035V59H83.31ZM100.971 59.42C99.2911 59.42 97.7744 59.035 96.4211 58.265C95.0911 57.4717 94.0294 56.3867 93.2361 55.01C92.4661 53.61 92.0811 52.0117 92.0811 50.215C92.0811 48.3717 92.4661 46.7617 93.2361 45.385C94.0294 43.985 95.1027 42.9 96.4561 42.13C97.8094 41.3367 99.3261 40.94 101.006 40.94C102.709 40.94 104.226 41.3367 105.556 42.13C106.909 42.9 107.971 43.985 108.741 45.385C109.534 46.7617 109.931 48.36 109.931 50.18C109.931 52 109.534 53.61 108.741 55.01C107.971 56.3867 106.909 57.4717 105.556 58.265C104.203 59.035 102.674 59.42 100.971 59.42ZM100.971 55.325C101.764 55.325 102.464 55.1383 103.071 54.765C103.701 54.3917 104.191 53.82 104.541 53.05C104.914 52.28 105.101 51.3233 105.101 50.18C105.101 49.0367 104.914 48.0917 104.541 47.345C104.191 46.575 103.701 46.0033 103.071 45.63C102.464 45.2333 101.776 45.035 101.006 45.035C100.259 45.035 99.5711 45.2333 98.9411 45.63C98.3111 46.0033 97.8094 46.575 97.4361 47.345C97.0861 48.0917 96.9111 49.0367 96.9111 50.18C96.9111 51.3233 97.0861 52.28 97.4361 53.05C97.8094 53.82 98.2994 54.3917 98.9061 54.765C99.5361 55.1383 100.224 55.325 100.971 55.325ZM121.265 59C120.028 59 118.943 58.8133 118.01 58.44C117.1 58.0433 116.388 57.4017 115.875 56.515C115.361 55.605 115.105 54.3683 115.105 52.805V45.315H112.095V41.36H115.105L115.63 36.565H119.83V41.36H124.485V45.315H119.83V52.875C119.83 53.6683 120.005 54.2167 120.355 54.52C120.705 54.8233 121.3 54.975 122.14 54.975H124.45V59H121.265ZM136.347 59.42C134.667 59.42 133.15 59.035 131.797 58.265C130.467 57.4717 129.405 56.3867 128.612 55.01C127.842 53.61 127.457 52.0117 127.457 50.215C127.457 48.3717 127.842 46.7617 128.612 45.385C129.405 43.985 130.479 42.9 131.832 42.13C133.185 41.3367 134.702 40.94 136.382 40.94C138.085 40.94 139.602 41.3367 140.932 42.13C142.285 42.9 143.347 43.985 144.117 45.385C144.91 46.7617 145.307 48.36 145.307 50.18C145.307 52 144.91 53.61 144.117 55.01C143.347 56.3867 142.285 57.4717 140.932 58.265C139.579 59.035 138.05 59.42 136.347 59.42ZM136.347 55.325C137.14 55.325 137.84 55.1383 138.447 54.765C139.077 54.3917 139.567 53.82 139.917 53.05C140.29 52.28 140.477 51.3233 140.477 50.18C140.477 49.0367 140.29 48.0917 139.917 47.345C139.567 46.575 139.077 46.0033 138.447 45.63C137.84 45.2333 137.152 45.035 136.382 45.035C135.635 45.035 134.947 45.2333 134.317 45.63C133.687 46.0033 133.185 46.575 132.812 47.345C132.462 48.0917 132.287 49.0367 132.287 50.18C132.287 51.3233 132.462 52.28 132.812 53.05C133.185 53.82 133.675 54.3917 134.282 54.765C134.912 55.1383 135.6 55.325 136.347 55.325ZM83.31 96.7V71.36H87.51L88.035 73.81C88.4083 73.2967 88.8517 72.83 89.365 72.41C89.8783 71.9667 90.485 71.6167 91.185 71.36C91.9083 71.08 92.7483 70.94 93.705 70.94C95.3617 70.94 96.82 71.3483 98.08 72.165C99.34 72.9817 100.332 74.09 101.055 75.49C101.802 76.8667 102.175 78.4417 102.175 80.215C102.175 81.9883 101.802 83.575 101.055 84.975C100.308 86.3517 99.305 87.4367 98.045 88.23C96.785 89.0233 95.35 89.42 93.74 89.42C92.4333 89.42 91.3017 89.1867 90.345 88.72C89.4117 88.23 88.6417 87.565 88.035 86.725V96.7H83.31ZM92.62 85.29C93.5533 85.29 94.37 85.08 95.07 84.66C95.7933 84.24 96.3533 83.645 96.75 82.875C97.1467 82.105 97.345 81.2183 97.345 80.215C97.345 79.2117 97.1467 78.325 96.75 77.555C96.3533 76.7617 95.7933 76.155 95.07 75.735C94.37 75.2917 93.5533 75.07 92.62 75.07C91.71 75.07 90.8933 75.2917 90.17 75.735C89.47 76.155 88.91 76.75 88.49 77.52C88.0933 78.29 87.895 79.1767 87.895 80.18C87.895 81.1833 88.0933 82.0817 88.49 82.875C88.91 83.645 89.47 84.24 90.17 84.66C90.8933 85.08 91.71 85.29 92.62 85.29ZM106.35 89V71.36H111.075V89H106.35ZM108.73 68.945C107.89 68.945 107.19 68.7 106.63 68.21C106.093 67.6967 105.825 67.055 105.825 66.285C105.825 65.515 106.093 64.885 106.63 64.395C107.19 63.8817 107.89 63.625 108.73 63.625C109.593 63.625 110.293 63.8817 110.83 64.395C111.39 64.885 111.67 65.515 111.67 66.285C111.67 67.055 111.39 67.6967 110.83 68.21C110.293 68.7 109.593 68.945 108.73 68.945ZM118.089 96.7L122.359 87.04H121.309L114.239 71.36H119.384L124.424 82.735L128.974 71.36H133.979L123.094 96.7H118.089ZM141.487 89.42C140.017 89.42 138.803 89.1867 137.847 88.72C136.89 88.23 136.178 87.5883 135.712 86.795C135.268 85.9783 135.047 85.08 135.047 84.1C135.047 83.0267 135.315 82.0817 135.852 81.265C136.412 80.4483 137.24 79.8067 138.337 79.34C139.457 78.8733 140.857 78.64 142.537 78.64H146.912C146.912 77.7767 146.795 77.065 146.562 76.505C146.328 75.9217 145.967 75.49 145.477 75.21C144.987 74.93 144.333 74.79 143.517 74.79C142.63 74.79 141.872 74.9883 141.242 75.385C140.635 75.7583 140.262 76.3417 140.122 77.135H135.537C135.653 75.875 136.062 74.79 136.762 73.88C137.485 72.9467 138.43 72.2233 139.597 71.71C140.787 71.1967 142.105 70.94 143.552 70.94C145.208 70.94 146.643 71.22 147.857 71.78C149.07 72.34 150.003 73.145 150.657 74.195C151.31 75.245 151.637 76.54 151.637 78.08V89H147.647L147.122 86.305C146.865 86.7717 146.562 87.1917 146.212 87.565C145.862 87.9383 145.453 88.265 144.987 88.545C144.52 88.825 143.995 89.035 143.412 89.175C142.828 89.3383 142.187 89.42 141.487 89.42ZM142.607 85.78C143.213 85.78 143.75 85.675 144.217 85.465C144.707 85.2317 145.127 84.9283 145.477 84.555C145.827 84.1583 146.095 83.715 146.282 83.225C146.492 82.7117 146.632 82.1633 146.702 81.58V81.545H143.097C142.373 81.545 141.778 81.6383 141.312 81.825C140.868 81.9883 140.542 82.2333 140.332 82.56C140.122 82.8867 140.017 83.26 140.017 83.68C140.017 84.1467 140.122 84.5317 140.332 84.835C140.542 85.1383 140.845 85.3717 141.242 85.535C141.638 85.6983 142.093 85.78 142.607 85.78ZM156.044 89V71.36H160.209L160.559 74.23C161.096 73.25 161.854 72.4567 162.834 71.85C163.838 71.2433 165.028 70.94 166.404 70.94C167.874 70.94 169.111 71.2433 170.114 71.85C171.118 72.4567 171.876 73.3433 172.389 74.51C172.926 75.6767 173.194 77.1117 173.194 78.815V89H168.504V79.27C168.504 77.87 168.201 76.7967 167.594 76.05C167.011 75.3033 166.101 74.93 164.864 74.93C164.071 74.93 163.359 75.1167 162.729 75.49C162.123 75.8633 161.644 76.4 161.294 77.1C160.944 77.7767 160.769 78.605 160.769 79.585V89H156.044ZM185.241 97.12C183.561 97.12 182.091 96.91 180.831 96.49C179.571 96.0933 178.591 95.475 177.891 94.635C177.214 93.8183 176.876 92.8033 176.876 91.59C176.876 90.7733 177.086 90.0033 177.506 89.28C177.926 88.5567 178.533 87.9033 179.326 87.32C180.143 86.7133 181.158 86.2 182.371 85.78L184.156 88.09C183.083 88.44 182.301 88.8717 181.811 89.385C181.344 89.9217 181.111 90.4933 181.111 91.1C181.111 91.6367 181.286 92.0917 181.636 92.465C182.009 92.8383 182.499 93.1067 183.106 93.27C183.736 93.4567 184.436 93.55 185.206 93.55C185.953 93.55 186.594 93.4567 187.131 93.27C187.691 93.0833 188.123 92.8033 188.426 92.43C188.753 92.08 188.916 91.66 188.916 91.17C188.916 90.54 188.694 90.0267 188.251 89.63C187.808 89.2333 186.921 88.9883 185.591 88.895C184.401 88.8017 183.339 88.6733 182.406 88.51C181.496 88.3233 180.691 88.1133 179.991 87.88C179.291 87.6233 178.696 87.3433 178.206 87.04C177.739 86.7367 177.354 86.4333 177.051 86.13V85.325L180.796 81.3L184.191 82.385L179.781 86.725L181.111 84.415C181.368 84.555 181.613 84.695 181.846 84.835C182.103 84.9517 182.418 85.0683 182.791 85.185C183.164 85.2783 183.654 85.3717 184.261 85.465C184.868 85.5583 185.638 85.64 186.571 85.71C188.111 85.85 189.371 86.1417 190.351 86.585C191.354 87.0283 192.089 87.6233 192.556 88.37C193.023 89.0933 193.256 89.9917 193.256 91.065C193.256 92.115 192.964 93.095 192.381 94.005C191.821 94.9383 190.946 95.685 189.756 96.245C188.566 96.8283 187.061 97.12 185.241 97.12ZM185.241 83.785C183.771 83.785 182.499 83.505 181.426 82.945C180.376 82.3617 179.559 81.5917 178.976 80.635C178.416 79.655 178.136 78.57 178.136 77.38C178.136 76.19 178.416 75.1167 178.976 74.16C179.559 73.18 180.376 72.3983 181.426 71.815C182.499 71.2317 183.771 70.94 185.241 70.94C186.734 70.94 188.006 71.2317 189.056 71.815C190.129 72.3983 190.946 73.18 191.506 74.16C192.066 75.1167 192.346 76.19 192.346 77.38C192.346 78.57 192.066 79.655 191.506 80.635C190.946 81.5917 190.129 82.3617 189.056 82.945C188.006 83.505 186.734 83.785 185.241 83.785ZM185.241 80.18C186.151 80.18 186.886 79.9467 187.446 79.48C188.006 79.0133 188.286 78.325 188.286 77.415C188.286 76.505 188.006 75.8167 187.446 75.35C186.886 74.86 186.151 74.615 185.241 74.615C184.354 74.615 183.619 74.86 183.036 75.35C182.476 75.8167 182.196 76.505 182.196 77.415C182.196 78.325 182.476 79.0133 183.036 79.48C183.619 79.9467 184.354 80.18 185.241 80.18ZM188.181 74.72L187.411 71.36H194.656V74.16L188.181 74.72ZM206.142 89.42C204.462 89.42 202.945 89.035 201.592 88.265C200.262 87.4717 199.2 86.3867 198.407 85.01C197.637 83.61 197.252 82.0117 197.252 80.215C197.252 78.3717 197.637 76.7617 198.407 75.385C199.2 73.985 200.274 72.9 201.627 72.13C202.98 71.3367 204.497 70.94 206.177 70.94C207.88 70.94 209.397 71.3367 210.727 72.13C212.08 72.9 213.142 73.985 213.912 75.385C214.705 76.7617 215.102 78.36 215.102 80.18C215.102 82 214.705 83.61 213.912 85.01C213.142 86.3867 212.08 87.4717 210.727 88.265C209.374 89.035 207.845 89.42 206.142 89.42ZM206.142 85.325C206.935 85.325 207.635 85.1383 208.242 84.765C208.872 84.3917 209.362 83.82 209.712 83.05C210.085 82.28 210.272 81.3233 210.272 80.18C210.272 79.0367 210.085 78.0917 209.712 77.345C209.362 76.575 208.872 76.0033 208.242 75.63C207.635 75.2333 206.947 75.035 206.177 75.035C205.43 75.035 204.742 75.2333 204.112 75.63C203.482 76.0033 202.98 76.575 202.607 77.345C202.257 78.0917 202.082 79.0367 202.082 80.18C202.082 81.3233 202.257 82.28 202.607 83.05C202.98 83.82 203.47 84.3917 204.077 84.765C204.707 85.1383 205.395 85.325 206.142 85.325Z" fill="white"/>
</g>
<defs>
<filter id="filter0_ddd_11_2" x="0" y="0" width="84.7462" height="100.467" filterUnits="userSpaceOnUse" color-interpolation-filters="sRGB">
<feFlood flood-opacity="0" result="BackgroundImageFix"/>
<feColorMatrix in="SourceAlpha" type="matrix" values="0 0 0 0 0 0 0 0 0 0 0 0 0 0 0 0 0 0 127 0" result="hardAlpha"/>
<feOffset dy="4"/>
<feGaussianBlur stdDeviation="2"/>
<feComposite in2="hardAlpha" operator="out"/>
<feColorMatrix type="matrix" values="0 0 0 0 0 0 0 0 0 0 0 0 0 0 0 0 0 0 0.25 0"/>
<feBlend mode="normal" in2="BackgroundImageFix" result="effect1_dropShadow_11_2"/>
<feColorMatrix in="SourceAlpha" type="matrix" values="0 0 0 0 0 0 0 0 0 0 0 0 0 0 0 0 0 0 127 0" result="hardAlpha"/>
<feOffset dy="4"/>
<feGaussianBlur stdDeviation="2"/>
<feComposite in2="hardAlpha" operator="out"/>
<feColorMatrix type="matrix" values="0 0 0 0 0 0 0 0 0 0 0 0 0 0 0 0 0 0 0.25 0"/>
<feBlend mode="normal" in2="effect1_dropShadow_11_2" result="effect2_dropShadow_11_2"/>
<feColorMatrix in="SourceAlpha" type="matrix" values="0 0 0 0 0 0 0 0 0 0 0 0 0 0 0 0 0 0 127 0" result="hardAlpha"/>
<feOffset dy="4"/>
<feGaussianBlur stdDeviation="2"/>
<feComposite in2="hardAlpha" operator="out"/>
<feColorMatrix type="matrix" values="0 0 0 0 0 0 0 0 0 0 0 0 0 0 0 0 0 0 0.25 0"/>
<feBlend mode="normal" in2="effect2_dropShadow_11_2" result="effect3_dropShadow_11_2"/>
<feBlend mode="normal" in="SourceGraphic" in2="effect3_dropShadow_11_2" result="shape"/>
</filter>
<filter id="filter1_dd_11_2" x="79.31" y="33.8" width="139.792" height="71.32" filterUnits="userSpaceOnUse" color-interpolation-filters="sRGB">
<feFlood flood-opacity="0" result="BackgroundImageFix"/>
<feColorMatrix in="SourceAlpha" type="matrix" values="0 0 0 0 0 0 0 0 0 0 0 0 0 0 0 0 0 0 127 0" result="hardAlpha"/>
<feOffset dy="4"/>
<feGaussianBlur stdDeviation="2"/>
<feComposite in2="hardAlpha" operator="out"/>
<feColorMatrix type="matrix" values="0 0 0 0 0 0 0 0 0 0 0 0 0 0 0 0 0 0 0.25 0"/>
<feBlend mode="normal" in2="BackgroundImageFix" result="effect1_dropShadow_11_2"/>
<feColorMatrix in="SourceAlpha" type="matrix" values="0 0 0 0 0 0 0 0 0 0 0 0 0 0 0 0 0 0 127 0" result="hardAlpha"/>
<feOffset dy="4"/>
<feGaussianBlur stdDeviation="2"/>
<feComposite in2="hardAlpha" operator="out"/>
<feColorMatrix type="matrix" values="0 0 0 0 0 0 0 0 0 0 0 0 0 0 0 0 0 0 0.25 0"/>
<feBlend mode="normal" in2="effect1_dropShadow_11_2" result="effect2_dropShadow_11_2"/>
<feBlend mode="normal" in="SourceGraphic" in2="effect2_dropShadow_11_2" result="shape"/>
</filter>
</defs>
</svg>
