<svg width="213" height="98" viewBox="0 0 213 98" fill="none" xmlns="http://www.w3.org/2000/svg">
<path d="M18.1249 66.9564C19.0451 65.6041 19.905 64.6044 20.9056 63.4413C13.4914 61.1748 8.63232 56.8502 8.07662 48.7891C8.0323 48.1463 7.48927 47.3907 6.95948 46.9506C-0.659561 40.6206 -0.928667 32.5517 1.02399 23.7025C1.86438 19.894 2.19147 15.8666 2.03278 11.968C1.7942 6.10651 4.58618 2.96293 9.66363 0.695532C13.2242 -0.894478 14.7978 0.321088 15.0415 3.53082C15.6616 11.6991 19.7812 18.189 24.6182 25.121C26.332 19.6246 30.6164 16.1384 30.491 9.88535C30.3752 4.10692 35.6579 1.679 43.9937 2.1667C45.0326 10.9537 46.0862 19.8651 47.1399 28.7766C51.9049 24.1316 55.0091 19.4517 61.9472 19.8052C66.5155 20.038 69.4411 21.6768 71.1002 25.8077C72.8815 30.243 74.6609 34.6792 76.7462 39.8751C72.4319 39.8751 68.8772 39.8751 65.2409 39.8751C69.019 62.0112 62.6353 69.2046 42.399 74.3818C42.3164 74.8324 42.1586 75.3129 42.1498 75.7962C41.9278 87.9748 41.3854 89.4772 29.6766 91.437C22.5877 92.6236 14.9207 93.6283 7.94885 89.3898C3.18559 86.494 2.65552 84.12 6.38974 80.1324C10.3406 75.9135 14.1777 71.588 18.1249 66.9564ZM52.621 31.9613C49.3423 36.4008 46.0636 40.8404 42.0272 46.3059C34.7681 40.4278 27.1536 35.8095 21.665 29.3772C16.2975 23.0867 13.0979 14.9463 8.92493 7.57935C5.99536 10.2814 6.94109 13.6879 7.82945 17.2839C8.21499 18.8445 8.04768 20.937 7.28383 22.3195C3.45587 29.2483 4.35782 36.2835 9.65565 42.1111C11.2962 43.9157 12.0498 46.5493 13.1122 48.8483C13.7192 50.1618 13.9111 51.7043 14.6692 52.9041C17.2989 57.066 21.1852 58.8873 26.1105 59.0489C27.455 59.093 28.8652 60.3073 30.0105 61.2652C30.3442 61.5443 30.1662 63.1014 29.7095 63.5484C27.2263 65.9786 24.4111 68.0829 22.0321 70.6033C17.8848 74.9971 13.9722 79.6126 9.69547 84.4348C16.0408 88.7277 22.6987 87.5257 28.8746 86.4402C37.5321 84.9185 38.2724 83.5708 38.0463 74.7972C37.9479 70.9792 38.8322 68.8163 43.0295 68.8407C44.2804 68.848 45.5341 68.2347 46.7879 67.9107C55.6723 65.6145 61.244 58.5863 61.081 49.4682C61.003 45.0989 60.4271 40.7385 60.051 36.053C63.2186 36.053 65.841 36.053 68.8114 36.053C68.0092 33.4157 67.5014 31.0519 66.5807 28.8618C64.5983 24.1466 60.4096 23.2954 56.8029 26.8492C55.4177 28.2141 54.3451 29.8963 52.621 31.9613ZM40.6745 37.9175C41.8036 36.5399 44.0697 34.9777 43.8809 33.814C42.4431 24.9542 40.5257 16.1723 38.5136 6.15046C37.2493 9.03551 36.1474 11.4381 35.1403 13.8797C34.122 16.3486 33.6425 19.1715 32.1451 21.2854C28.2972 26.7172 28.739 30.2466 34.3216 33.9771C36.2108 35.2396 38.0521 36.5737 40.6745 37.9175Z" fill="#23AAE2"/>
<path d="M79.31 59V33.8H84.035V59H79.31ZM96.9711 59.42C95.2911 59.42 93.7744 59.035 92.4211 58.265C91.0911 57.4717 90.0294 56.3867 89.2361 55.01C88.4661 53.61 88.0811 52.0117 88.0811 50.215C88.0811 48.3717 88.4661 46.7617 89.2361 45.385C90.0294 43.985 91.1027 42.9 92.4561 42.13C93.8094 41.3367 95.3261 40.94 97.0061 40.94C98.7094 40.94 100.226 41.3367 101.556 42.13C102.909 42.9 103.971 43.985 104.741 45.385C105.534 46.7617 105.931 48.36 105.931 50.18C105.931 52 105.534 53.61 104.741 55.01C103.971 56.3867 102.909 57.4717 101.556 58.265C100.203 59.035 98.6744 59.42 96.9711 59.42ZM96.9711 55.325C97.7644 55.325 98.4644 55.1383 99.0711 54.765C99.7011 54.3917 100.191 53.82 100.541 53.05C100.914 52.28 101.101 51.3233 101.101 50.18C101.101 49.0367 100.914 48.0917 100.541 47.345C100.191 46.575 99.7011 46.0033 99.0711 45.63C98.4644 45.2333 97.7761 45.035 97.0061 45.035C96.2594 45.035 95.5711 45.2333 94.9411 45.63C94.3111 46.0033 93.8094 46.575 93.4361 47.345C93.0861 48.0917 92.9111 49.0367 92.9111 50.18C92.9111 51.3233 93.0861 52.28 93.4361 53.05C93.8094 53.82 94.2994 54.3917 94.9061 54.765C95.5361 55.1383 96.2244 55.325 96.9711 55.325ZM117.265 59C116.028 59 114.943 58.8133 114.01 58.44C113.1 58.0433 112.388 57.4017 111.875 56.515C111.361 55.605 111.105 54.3683 111.105 52.805V45.315H108.095V41.36H111.105L111.63 36.565H115.83V41.36H120.485V45.315H115.83V52.875C115.83 53.6683 116.005 54.2167 116.355 54.52C116.705 54.8233 117.3 54.975 118.14 54.975H120.45V59H117.265ZM132.347 59.42C130.667 59.42 129.15 59.035 127.797 58.265C126.467 57.4717 125.405 56.3867 124.612 55.01C123.842 53.61 123.457 52.0117 123.457 50.215C123.457 48.3717 123.842 46.7617 124.612 45.385C125.405 43.985 126.479 42.9 127.832 42.13C129.185 41.3367 130.702 40.94 132.382 40.94C134.085 40.94 135.602 41.3367 136.932 42.13C138.285 42.9 139.347 43.985 140.117 45.385C140.91 46.7617 141.307 48.36 141.307 50.18C141.307 52 140.91 53.61 140.117 55.01C139.347 56.3867 138.285 57.4717 136.932 58.265C135.579 59.035 134.05 59.42 132.347 59.42ZM132.347 55.325C133.14 55.325 133.84 55.1383 134.447 54.765C135.077 54.3917 135.567 53.82 135.917 53.05C136.29 52.28 136.477 51.3233 136.477 50.18C136.477 49.0367 136.29 48.0917 135.917 47.345C135.567 46.575 135.077 46.0033 134.447 45.63C133.84 45.2333 133.152 45.035 132.382 45.035C131.635 45.035 130.947 45.2333 130.317 45.63C129.687 46.0033 129.185 46.575 128.812 47.345C128.462 48.0917 128.287 49.0367 128.287 50.18C128.287 51.3233 128.462 52.28 128.812 53.05C129.185 53.82 129.675 54.3917 130.282 54.765C130.912 55.1383 131.6 55.325 132.347 55.325ZM79.31 96.7V71.36H83.51L84.035 73.81C84.4083 73.2967 84.8517 72.83 85.365 72.41C85.8783 71.9667 86.485 71.6167 87.185 71.36C87.9083 71.08 88.7483 70.94 89.705 70.94C91.3617 70.94 92.82 71.3483 94.08 72.165C95.34 72.9817 96.3317 74.09 97.055 75.49C97.8017 76.8667 98.175 78.4417 98.175 80.215C98.175 81.9883 97.8017 83.575 97.055 84.975C96.3083 86.3517 95.305 87.4367 94.045 88.23C92.785 89.0233 91.35 89.42 89.74 89.42C88.4333 89.42 87.3017 89.1867 86.345 88.72C85.4117 88.23 84.6417 87.565 84.035 86.725V96.7H79.31ZM88.62 85.29C89.5533 85.29 90.37 85.08 91.07 84.66C91.7933 84.24 92.3533 83.645 92.75 82.875C93.1467 82.105 93.345 81.2183 93.345 80.215C93.345 79.2117 93.1467 78.325 92.75 77.555C92.3533 76.7617 91.7933 76.155 91.07 75.735C90.37 75.2917 89.5533 75.07 88.62 75.07C87.71 75.07 86.8933 75.2917 86.17 75.735C85.47 76.155 84.91 76.75 84.49 77.52C84.0933 78.29 83.895 79.1767 83.895 80.18C83.895 81.1833 84.0933 82.0817 84.49 82.875C84.91 83.645 85.47 84.24 86.17 84.66C86.8933 85.08 87.71 85.29 88.62 85.29ZM102.35 89V71.36H107.075V89H102.35ZM104.73 68.945C103.89 68.945 103.19 68.7 102.63 68.21C102.093 67.6967 101.825 67.055 101.825 66.285C101.825 65.515 102.093 64.885 102.63 64.395C103.19 63.8817 103.89 63.625 104.73 63.625C105.593 63.625 106.293 63.8817 106.83 64.395C107.39 64.885 107.67 65.515 107.67 66.285C107.67 67.055 107.39 67.6967 106.83 68.21C106.293 68.7 105.593 68.945 104.73 68.945ZM114.089 96.7L118.359 87.04H117.309L110.239 71.36H115.384L120.424 82.735L124.974 71.36H129.979L119.094 96.7H114.089ZM137.487 89.42C136.017 89.42 134.803 89.1867 133.847 88.72C132.89 88.23 132.178 87.5883 131.712 86.795C131.268 85.9783 131.047 85.08 131.047 84.1C131.047 83.0267 131.315 82.0817 131.852 81.265C132.412 80.4483 133.24 79.8067 134.337 79.34C135.457 78.8733 136.857 78.64 138.537 78.64H142.912C142.912 77.7767 142.795 77.065 142.562 76.505C142.328 75.9217 141.967 75.49 141.477 75.21C140.987 74.93 140.333 74.79 139.517 74.79C138.63 74.79 137.872 74.9883 137.242 75.385C136.635 75.7583 136.262 76.3417 136.122 77.135H131.537C131.653 75.875 132.062 74.79 132.762 73.88C133.485 72.9467 134.43 72.2233 135.597 71.71C136.787 71.1967 138.105 70.94 139.552 70.94C141.208 70.94 142.643 71.22 143.857 71.78C145.07 72.34 146.003 73.145 146.657 74.195C147.31 75.245 147.637 76.54 147.637 78.08V89H143.647L143.122 86.305C142.865 86.7717 142.562 87.1917 142.212 87.565C141.862 87.9383 141.453 88.265 140.987 88.545C140.52 88.825 139.995 89.035 139.412 89.175C138.828 89.3383 138.187 89.42 137.487 89.42ZM138.607 85.78C139.213 85.78 139.75 85.675 140.217 85.465C140.707 85.2317 141.127 84.9283 141.477 84.555C141.827 84.1583 142.095 83.715 142.282 83.225C142.492 82.7117 142.632 82.1633 142.702 81.58V81.545H139.097C138.373 81.545 137.778 81.6383 137.312 81.825C136.868 81.9883 136.542 82.2333 136.332 82.56C136.122 82.8867 136.017 83.26 136.017 83.68C136.017 84.1467 136.122 84.5317 136.332 84.835C136.542 85.1383 136.845 85.3717 137.242 85.535C137.638 85.6983 138.093 85.78 138.607 85.78ZM152.044 89V71.36H156.209L156.559 74.23C157.096 73.25 157.854 72.4567 158.834 71.85C159.838 71.2433 161.028 70.94 162.404 70.94C163.874 70.94 165.111 71.2433 166.114 71.85C167.118 72.4567 167.876 73.3433 168.389 74.51C168.926 75.6767 169.194 77.1117 169.194 78.815V89H164.504V79.27C164.504 77.87 164.201 76.7967 163.594 76.05C163.011 75.3033 162.101 74.93 160.864 74.93C160.071 74.93 159.359 75.1167 158.729 75.49C158.123 75.8633 157.644 76.4 157.294 77.1C156.944 77.7767 156.769 78.605 156.769 79.585V89H152.044ZM181.241 97.12C179.561 97.12 178.091 96.91 176.831 96.49C175.571 96.0933 174.591 95.475 173.891 94.635C173.214 93.8183 172.876 92.8033 172.876 91.59C172.876 90.7733 173.086 90.0033 173.506 89.28C173.926 88.5567 174.533 87.9033 175.326 87.32C176.143 86.7133 177.158 86.2 178.371 85.78L180.156 88.09C179.083 88.44 178.301 88.8717 177.811 89.385C177.344 89.9217 177.111 90.4933 177.111 91.1C177.111 91.6367 177.286 92.0917 177.636 92.465C178.009 92.8383 178.499 93.1067 179.106 93.27C179.736 93.4567 180.436 93.55 181.206 93.55C181.953 93.55 182.594 93.4567 183.131 93.27C183.691 93.0833 184.123 92.8033 184.426 92.43C184.753 92.08 184.916 91.66 184.916 91.17C184.916 90.54 184.694 90.0267 184.251 89.63C183.808 89.2333 182.921 88.9883 181.591 88.895C180.401 88.8017 179.339 88.6733 178.406 88.51C177.496 88.3233 176.691 88.1133 175.991 87.88C175.291 87.6233 174.696 87.3433 174.206 87.04C173.739 86.7367 173.354 86.4333 173.051 86.13V85.325L176.796 81.3L180.191 82.385L175.781 86.725L177.111 84.415C177.368 84.555 177.613 84.695 177.846 84.835C178.103 84.9517 178.418 85.0683 178.791 85.185C179.164 85.2783 179.654 85.3717 180.261 85.465C180.868 85.5583 181.638 85.64 182.571 85.71C184.111 85.85 185.371 86.1417 186.351 86.585C187.354 87.0283 188.089 87.6233 188.556 88.37C189.023 89.0933 189.256 89.9917 189.256 91.065C189.256 92.115 188.964 93.095 188.381 94.005C187.821 94.9383 186.946 95.685 185.756 96.245C184.566 96.8283 183.061 97.12 181.241 97.12ZM181.241 83.785C179.771 83.785 178.499 83.505 177.426 82.945C176.376 82.3617 175.559 81.5917 174.976 80.635C174.416 79.655 174.136 78.57 174.136 77.38C174.136 76.19 174.416 75.1167 174.976 74.16C175.559 73.18 176.376 72.3983 177.426 71.815C178.499 71.2317 179.771 70.94 181.241 70.94C182.734 70.94 184.006 71.2317 185.056 71.815C186.129 72.3983 186.946 73.18 187.506 74.16C188.066 75.1167 188.346 76.19 188.346 77.38C188.346 78.57 188.066 79.655 187.506 80.635C186.946 81.5917 186.129 82.3617 185.056 82.945C184.006 83.505 182.734 83.785 181.241 83.785ZM181.241 80.18C182.151 80.18 182.886 79.9467 183.446 79.48C184.006 79.0133 184.286 78.325 184.286 77.415C184.286 76.505 184.006 75.8167 183.446 75.35C182.886 74.86 182.151 74.615 181.241 74.615C180.354 74.615 179.619 74.86 179.036 75.35C178.476 75.8167 178.196 76.505 178.196 77.415C178.196 78.325 178.476 79.0133 179.036 79.48C179.619 79.9467 180.354 80.18 181.241 80.18ZM184.181 74.72L183.411 71.36H190.656V74.16L184.181 74.72ZM202.142 89.42C200.462 89.42 198.945 89.035 197.592 88.265C196.262 87.4717 195.2 86.3867 194.407 85.01C193.637 83.61 193.252 82.0117 193.252 80.215C193.252 78.3717 193.637 76.7617 194.407 75.385C195.2 73.985 196.274 72.9 197.627 72.13C198.98 71.3367 200.497 70.94 202.177 70.94C203.88 70.94 205.397 71.3367 206.727 72.13C208.08 72.9 209.142 73.985 209.912 75.385C210.705 76.7617 211.102 78.36 211.102 80.18C211.102 82 210.705 83.61 209.912 85.01C209.142 86.3867 208.08 87.4717 206.727 88.265C205.374 89.035 203.845 89.42 202.142 89.42ZM202.142 85.325C202.935 85.325 203.635 85.1383 204.242 84.765C204.872 84.3917 205.362 83.82 205.712 83.05C206.085 82.28 206.272 81.3233 206.272 80.18C206.272 79.0367 206.085 78.0917 205.712 77.345C205.362 76.575 204.872 76.0033 204.242 75.63C203.635 75.2333 202.947 75.035 202.177 75.035C201.43 75.035 200.742 75.2333 200.112 75.63C199.482 76.0033 198.98 76.575 198.607 77.345C198.257 78.0917 198.082 79.0367 198.082 80.18C198.082 81.3233 198.257 82.28 198.607 83.05C198.98 83.82 199.47 84.3917 200.077 84.765C200.707 85.1383 201.395 85.325 202.142 85.325Z" fill="#0A5799"/>
</svg>
