<svg width="155" height="60" viewBox="0 0 155 60" fill="none" xmlns="http://www.w3.org/2000/svg">
<path fill-rule="evenodd" clip-rule="evenodd" d="M54.4864 8.97561C55.7695 10.2635 56.4108 11.9216 56.4108 13.9506V24.6186H53.4349C52.6359 24.6186 51.9881 23.963 51.9881 23.1538V14.8737C51.9881 13.7568 51.6732 12.8626 51.043 12.1897C50.4133 11.5172 49.6253 11.181 48.6797 11.181C47.465 11.181 46.5083 11.62 45.8103 12.4974C45.1128 13.3753 44.7637 14.6804 44.7637 16.4128V24.6186H41.7542C40.9552 24.6186 40.3079 23.963 40.3079 23.1538V14.8737C40.3079 13.7568 39.9926 12.8626 39.3623 12.1897C38.7326 11.5172 37.9447 11.181 36.9996 11.181C35.7838 11.181 34.8387 11.6144 34.1638 12.4806C33.4883 13.3468 33.1509 14.657 33.1509 16.4128V24.6186H30.1413C29.3423 24.6186 28.6945 23.963 28.6945 23.1538V7.55652H31.7669C32.5312 7.55652 33.1509 8.18417 33.1509 8.95831C34.4108 7.68215 36.0876 7.04382 38.1812 7.04382C40.6112 7.04382 42.4567 7.97868 43.7177 9.8474C45.2027 7.97868 47.251 7.04382 49.8619 7.04382C51.6617 7.04382 53.2039 7.68775 54.4864 8.97561Z" fill="white"/>
<path fill-rule="evenodd" clip-rule="evenodd" d="M59.8003 23.1535V7.55677H62.8098C63.6088 7.55677 64.2566 8.2124 64.2566 9.02214V24.6189H61.2471C60.4481 24.6189 59.8003 23.9627 59.8003 23.1535ZM63.9523 1.54116C64.4701 2.07675 64.7287 2.70949 64.7287 3.43887C64.7287 4.19114 64.4701 4.81778 63.9523 5.31929C63.4346 5.8208 62.7933 6.07156 62.0285 6.07156C61.241 6.07156 60.5937 5.8208 60.087 5.31929C59.5808 4.81778 59.3277 4.19114 59.3277 3.43887C59.3277 2.70949 59.5864 2.07675 60.1036 1.54116C60.6214 1.00557 61.2631 0.737518 62.0285 0.737518C62.7933 0.737518 63.4346 1.00557 63.9523 1.54116Z" fill="white"/>
<path fill-rule="evenodd" clip-rule="evenodd" d="M67.6309 23.1535V0H70.6404C71.4394 0 72.0872 0.656137 72.0872 1.46537V24.6189H69.0776C68.2787 24.6189 67.6309 23.9627 67.6309 23.1535Z" fill="white"/>
<path fill-rule="evenodd" clip-rule="evenodd" d="M75.4843 23.1535V0H78.4938C79.2928 0 79.9406 0.656137 79.9406 1.46537V24.6189H76.9311C76.1321 24.6189 75.4843 23.9627 75.4843 23.1535Z" fill="white"/>
<path fill-rule="evenodd" clip-rule="evenodd" d="M83.2389 23.1535V7.55677H86.2484C87.0474 7.55677 87.6952 8.2124 87.6952 9.02214V24.6189H84.6857C83.8867 24.6189 83.2389 23.9627 83.2389 23.1535ZM87.3909 1.54116C87.9091 2.07675 88.1673 2.70949 88.1673 3.43887C88.1673 4.19114 87.9091 4.81778 87.3909 5.31929C86.8731 5.8208 86.2319 6.07156 85.467 6.07156C84.6796 6.07156 84.0323 5.8208 83.5256 5.31929C83.0194 4.81778 82.7663 4.19114 82.7663 3.43887C82.7663 2.70949 83.025 2.07675 83.5427 1.54116C84.0599 1.00557 84.7017 0.737518 85.467 0.737518C86.2319 0.737518 86.8731 1.00557 87.3909 1.54116Z" fill="white"/>
<path fill-rule="evenodd" clip-rule="evenodd" d="M12.6107 47.0884C13.4971 46.1678 13.9405 44.9338 13.9405 43.3881C13.9405 41.8418 13.4971 40.6028 12.6107 39.6705C11.7239 38.7382 10.5955 38.2722 9.22653 38.2722C7.96958 38.2722 6.85775 38.7493 5.89307 39.7046C4.92738 40.6598 4.44478 41.8871 4.44478 43.3881C4.44478 44.8886 4.92738 46.1108 5.89307 47.0543C6.85775 47.9978 7.96958 48.4698 9.22653 48.4698C10.5955 48.4698 11.7239 48.0095 12.6107 47.0884ZM15.7759 36.9249C17.4256 38.6415 18.2507 40.7956 18.2507 43.3881C18.2507 45.9801 17.4316 48.1285 15.7925 49.8335C14.1539 51.5389 12.2235 52.3919 10.0009 52.3919C7.80084 52.3919 5.94881 51.778 4.44478 50.5502V57.6781H1.3132C0.588051 57.6781 0 57.0825 0 56.3481V34.8613H3.09794C3.84217 34.8613 4.44478 35.4722 4.44478 36.226C5.92621 34.9753 7.77825 34.3497 10.0009 34.3497C12.2009 34.3497 14.1263 35.2082 15.7759 36.9249Z" fill="white"/>
<path fill-rule="evenodd" clip-rule="evenodd" d="M20.6304 50.5499V34.8616H23.6324C24.4293 34.8616 25.0751 35.5157 25.0751 36.323V51.88H21.9436C21.2184 51.88 20.6304 51.2844 20.6304 50.5499ZM24.7718 28.7962C25.2886 29.3308 25.5467 29.9615 25.5467 30.6893C25.5467 31.4396 25.2886 32.0647 24.7718 32.5652C24.2556 33.0652 23.6158 33.3154 22.8525 33.3154C22.0671 33.3154 21.4218 33.0652 20.9166 32.5652C20.4114 32.0647 20.1588 31.4396 20.1588 30.6893C20.1588 29.9615 20.4169 29.3308 20.9337 28.7962C21.4494 28.2621 22.0892 27.9946 22.8525 27.9946C23.6158 27.9946 24.2556 28.2621 24.7718 28.7962Z" fill="white"/>
<path fill-rule="evenodd" clip-rule="evenodd" d="M58.3845 47.0541C59.3497 46.1111 59.8323 44.8883 59.8323 43.3879C59.8323 41.8874 59.3497 40.6596 58.3845 39.7044C57.4193 38.7496 56.308 38.272 55.051 38.272C53.6816 38.272 52.5537 38.7379 51.6669 39.6703C50.78 40.6026 50.3371 41.8416 50.3371 43.3879C50.3371 44.9341 50.78 46.1676 51.6669 47.0882C52.5537 48.0093 53.6816 48.4696 55.051 48.4696C56.308 48.4696 57.4193 47.9976 58.3845 47.0541ZM64.2771 51.88H61.1455C60.4203 51.88 59.8323 51.2844 59.8323 50.5499C58.3283 51.7783 56.4767 52.3922 54.2762 52.3922C52.054 52.3922 50.1237 51.5392 48.4845 49.8338C46.8459 48.1288 46.0269 45.9799 46.0269 43.3879C46.0269 40.7959 46.8515 38.6413 48.5016 36.9247C50.1513 35.208 52.0761 34.3495 54.2762 34.3495C56.4988 34.3495 58.3508 34.9751 59.8323 36.2258V34.8616H62.8343C63.6313 34.8616 64.2771 35.5158 64.2771 36.323V51.88Z" fill="white"/>
<path fill-rule="evenodd" clip-rule="evenodd" d="M81.5467 36.3452C82.7811 37.6753 83.3983 39.3975 83.3983 41.5119V51.8799H80.2672C79.5415 51.8799 78.9535 51.2848 78.9535 50.5499V42.4672C78.9535 41.2622 78.6447 40.2958 78.0275 39.5679C77.4103 38.8406 76.5857 38.4769 75.5522 38.4769C72.7692 38.4769 71.3771 40.4321 71.3771 44.343V51.8799H68.2455C67.5204 51.8799 66.9323 51.2848 66.9323 50.5499V34.8616H69.9339C70.7313 34.8616 71.3771 35.5162 71.3771 36.3229V36.3966C72.724 35.0319 74.4861 34.3499 76.6636 34.3499C78.6843 34.3499 80.3119 35.0152 81.5467 36.3452Z" fill="white"/>
<path fill-rule="evenodd" clip-rule="evenodd" d="M96.5008 46.1752C97.7437 45.2958 98.3644 44.0939 98.3644 42.5695C98.3644 41.0451 97.7437 39.8432 96.5008 38.9633C95.7123 38.4053 94.7773 38.1306 93.8151 38.1357C92.4848 38.1434 91.3861 38.5523 90.5188 39.3631C89.6435 40.182 89.2056 41.2506 89.2056 42.5695C89.2056 43.8879 89.6435 44.9565 90.5188 45.7754C91.3861 46.5867 92.4848 46.9956 93.8151 47.0028C94.7768 47.0083 95.7123 46.7337 96.5008 46.1752ZM102.675 50.2432C102.675 52.8123 101.867 54.8077 100.25 56.2288C98.634 57.65 96.4455 58.3605 93.6841 58.3605C89.7781 58.3605 87.0508 57.1098 85.5016 54.6088L88.0612 52.646C88.6306 52.2096 89.4241 52.2798 89.9308 52.7895C90.337 53.1979 90.7348 53.5143 91.1244 53.7391C91.7758 54.1139 92.629 54.3021 93.6841 54.3021C95.1208 54.3021 96.2597 53.881 97.1019 53.0402C97.944 52.1984 98.3644 51.0393 98.3644 49.5612V49.288C97.0853 50.3343 95.3227 50.8572 93.0779 50.8572C90.9231 50.8572 89.0263 50.05 87.3872 48.4356C85.7486 46.8217 84.9296 44.866 84.9296 42.5695C84.9296 40.2954 85.7486 38.3575 87.3872 36.7543C89.0263 35.1516 90.9231 34.3495 93.0779 34.3495C95.278 34.3495 97.0401 34.8728 98.3644 35.9186V34.8616H101.201C101.997 34.8616 102.642 35.5137 102.644 36.3199L102.675 50.2432Z" fill="white"/>
<path fill-rule="evenodd" clip-rule="evenodd" d="M35.0729 57.6783H31.0766L33.7662 51.3438L26.8071 34.8615H30.7863C31.3693 34.8615 31.8946 35.217 32.1176 35.7628L36.1878 45.7254L40.8274 34.8615H45.7698L36.3952 56.7989C36.1672 57.3324 35.6474 57.6783 35.0729 57.6783Z" fill="white"/>
<path fill-rule="evenodd" clip-rule="evenodd" d="M116.783 47.0722C117.758 46.1195 118.246 44.8861 118.246 43.3709C118.246 41.8562 117.758 40.6222 116.783 39.6696C115.809 38.7169 114.698 38.2408 113.452 38.2408C112.16 38.2408 111.021 38.7113 110.036 39.6523C109.05 40.5932 108.557 41.8333 108.557 43.3709C108.557 44.909 109.05 46.1485 110.036 47.0895C111.021 48.0305 112.16 48.5015 113.452 48.5015C114.698 48.5015 115.809 48.0249 116.783 47.0722ZM119.928 36.8802C121.707 38.5679 122.597 40.7311 122.597 43.3709C122.597 46.0107 121.707 48.1739 119.928 49.8611C118.149 51.5482 115.99 52.392 113.452 52.392C110.868 52.392 108.681 51.5482 106.891 49.8611C105.101 48.1739 104.206 46.0107 104.206 43.3709C104.206 40.7311 105.101 38.5679 106.891 36.8802C108.681 35.1936 110.868 34.3498 113.452 34.3498C115.99 34.3498 118.149 35.1936 119.928 36.8802Z" fill="white"/>
<path fill-rule="evenodd" clip-rule="evenodd" d="M138.867 31.0878C136.978 40.1298 133.66 48.482 128.858 56.2209C128.691 56.4829 128.363 56.5922 128.129 56.4661C126.329 55.4981 124.529 54.5302 122.729 53.5623C122.495 53.4361 122.396 53.1198 122.506 52.8548C125.607 45.0701 127.323 36.962 127.679 28.302C127.687 28.007 128.035 27.8509 128.458 27.9541C131.708 28.7476 134.959 29.5415 138.209 30.3355C138.632 30.4388 138.928 30.776 138.867 31.0878Z" fill="white"/>
<path fill-rule="evenodd" clip-rule="evenodd" d="M129.705 58.1077C129.424 58.1077 129.164 58.0253 128.95 57.8702L123.174 53.679C122.621 53.2782 122.497 52.4903 122.898 51.9222C128.125 44.2601 131.724 36.1027 133.893 26.993C134.005 26.4864 134.467 26.1518 135.066 26.1518C135.301 26.1518 135.553 26.2036 135.795 26.3028L146.808 30.8144C147.271 31.0041 147.63 31.3429 147.793 31.7447C147.917 32.0489 147.919 32.3729 147.799 32.6572C143.707 41.9794 137.966 50.3963 130.732 57.684C130.455 57.9556 130.083 58.1077 129.705 58.1077Z" fill="white"/>
<path fill-rule="evenodd" clip-rule="evenodd" d="M135.067 25.4655C134.157 25.4655 133.422 26.0169 133.233 26.8388C131.084 35.8605 127.52 43.9386 122.338 51.535C121.731 52.4104 121.927 53.6194 122.779 54.2374L125.667 56.333L128.555 58.4285C128.885 58.6676 129.282 58.7937 129.705 58.7937C130.257 58.7937 130.801 58.5715 131.196 58.1839C138.503 50.8229 144.292 42.3359 148.414 32.945C148.614 32.4724 148.614 31.9597 148.42 31.4832C148.187 30.912 147.693 30.4364 147.063 30.1785L140.63 27.5433L136.049 25.6669C135.723 25.5332 135.392 25.4655 135.067 25.4655ZM135.067 26.8383C135.211 26.8383 135.373 26.8709 135.541 26.9395C139.212 28.443 142.883 29.9471 146.554 31.4511C147.032 31.6464 147.312 32.0666 147.176 32.387C143.106 41.6589 137.493 49.9059 130.254 57.1976C130.105 57.3441 129.899 57.4214 129.705 57.4214C129.573 57.4214 129.446 57.3858 129.344 57.3121C127.419 55.9154 125.494 54.5187 123.568 53.1215C123.318 52.9399 123.266 52.5823 123.45 52.3214C128.692 44.6364 132.367 36.3274 134.552 27.1542C134.597 26.9502 134.799 26.8383 135.067 26.8383Z" fill="#F8F8F8"/>
<path fill-rule="evenodd" clip-rule="evenodd" d="M129.892 59.314C129.526 59.314 129.193 59.1848 128.954 58.9503L123.627 53.7241C123.391 53.4932 123.26 53.1798 123.257 52.8431C123.255 52.4886 123.4 52.1377 123.656 51.8798C130.815 44.44 136.329 36.2566 140.506 26.8687C140.686 26.4476 141.103 26.1907 141.62 26.1907C141.93 26.1907 142.255 26.2838 142.561 26.4598L153.425 32.7317C153.87 32.9886 154.184 33.3864 154.287 33.8228C154.367 34.1641 154.311 34.5054 154.129 34.7836C147.867 44.1134 140.026 52.2628 130.819 59.0139C130.545 59.2092 130.218 59.314 129.892 59.314Z" fill="white"/>
<path fill-rule="evenodd" clip-rule="evenodd" d="M141.62 25.5045C140.841 25.5045 140.178 25.921 139.885 26.5935C135.741 35.904 130.272 44.0213 123.163 51.4077C122.794 51.7805 122.576 52.3105 122.58 52.8476C122.584 53.3705 122.788 53.8567 123.155 54.2168L126.726 57.7193L128.482 59.443C128.848 59.8021 129.349 60 129.892 60C130.357 60 130.823 59.851 131.202 59.5799C140.487 52.7718 148.383 44.565 154.685 35.1772C154.981 34.7235 155.07 34.1914 154.946 33.6635C154.8 33.0429 154.367 32.4865 153.76 32.136L146.225 27.7857L142.896 25.8636C142.489 25.6286 142.048 25.5045 141.62 25.5045ZM141.62 26.8768C141.804 26.8768 142.017 26.9353 142.225 27.0558C145.847 29.1468 149.468 31.2373 153.089 33.3283C153.56 33.6004 153.774 34.0836 153.564 34.4056C147.327 43.6978 139.646 51.694 130.421 58.4578C130.263 58.5713 130.072 58.6277 129.892 58.6277C129.711 58.6277 129.541 58.5707 129.425 58.4573C127.649 56.7153 125.874 54.9732 124.098 53.2311C123.867 53.0043 123.884 52.6177 124.134 52.3659C131.303 44.916 136.922 36.5922 141.123 27.1504C141.201 26.9698 141.388 26.8768 141.62 26.8768Z" fill="#F8F8F8"/>
</svg>
