<svg width="181" height="70" viewBox="0 0 181 70" fill="none" xmlns="http://www.w3.org/2000/svg">
<path fill-rule="evenodd" clip-rule="evenodd" d="M63.5675 10.4715C65.0644 11.974 65.8126 13.9085 65.8126 16.2756V28.7217H62.3407C61.4085 28.7217 60.6527 27.9568 60.6527 27.0127V17.3527C60.6527 16.0496 60.2854 15.0063 59.5501 14.2213C58.8154 13.4368 57.8962 13.0445 56.793 13.0445C55.3758 13.0445 54.2597 13.5567 53.4453 14.5803C52.6315 15.6045 52.2243 17.1272 52.2243 19.1483V28.7217H48.7132C47.7811 28.7217 47.0259 27.9568 47.0259 27.0127V17.3527C47.0259 16.0496 46.658 15.0063 45.9227 14.2213C45.188 13.4368 44.2688 13.0445 43.1661 13.0445C41.7477 13.0445 40.6451 13.5501 39.8577 14.5607C39.0697 15.5713 38.676 17.0999 38.676 19.1483V28.7217H35.1648C34.2327 28.7217 33.4769 27.9568 33.4769 27.0127V8.81593H37.0613C37.953 8.81593 38.676 9.5482 38.676 10.4514C40.1459 8.96251 42.1022 8.21778 44.5447 8.21778C47.3797 8.21778 49.5328 9.30846 51.004 11.4886C52.7364 9.30846 55.1262 8.21778 58.1722 8.21778C60.2719 8.21778 62.0712 8.96903 63.5675 10.4715Z" fill="#23AAE2"/>
<path fill-rule="evenodd" clip-rule="evenodd" d="M69.767 27.0124V8.81623H73.2782C74.2103 8.81623 74.9661 9.58113 74.9661 10.5258V28.722H71.4549C70.5228 28.722 69.767 27.9565 69.767 27.0124ZM74.611 1.79802C75.2151 2.42287 75.5168 3.16107 75.5168 4.01202C75.5168 4.88966 75.2151 5.62074 74.611 6.20584C74.007 6.79093 73.2588 7.08348 72.3665 7.08348C71.4479 7.08348 70.6927 6.79093 70.1015 6.20584C69.511 5.62074 69.2157 4.88966 69.2157 4.01202C69.2157 3.16107 69.5174 2.42287 70.1209 1.79802C70.7249 1.17316 71.4737 0.860435 72.3665 0.860435C73.2588 0.860435 74.007 1.17316 74.611 1.79802Z" fill="#23AAE2"/>
<path fill-rule="evenodd" clip-rule="evenodd" d="M78.9027 27.0124V0H82.4138C83.3459 0 84.1017 0.765493 84.1017 1.7096V28.722H80.5906C79.6584 28.722 78.9027 27.9565 78.9027 27.0124Z" fill="#23AAE2"/>
<path fill-rule="evenodd" clip-rule="evenodd" d="M88.065 27.0124V0H91.5761C92.5083 0 93.2641 0.765493 93.2641 1.7096V28.722H89.7529C88.8208 28.722 88.065 27.9565 88.065 27.0124Z" fill="#23AAE2"/>
<path fill-rule="evenodd" clip-rule="evenodd" d="M97.112 27.0124V8.81623H100.623C101.555 8.81623 102.311 9.58113 102.311 10.5258V28.722H98.7999C97.8678 28.722 97.112 27.9565 97.112 27.0124ZM101.956 1.79802C102.561 2.42287 102.862 3.16107 102.862 4.01202C102.862 4.88966 102.561 5.62074 101.956 6.20584C101.352 6.79093 100.604 7.08348 99.7116 7.08348C98.7929 7.08348 98.0377 6.79093 97.4466 6.20584C96.856 5.62074 96.5607 4.88966 96.5607 4.01202C96.5607 3.16107 96.8624 2.42287 97.4665 1.79802C98.0699 1.17316 98.8187 0.860435 99.7116 0.860435C100.604 0.860435 101.352 1.17316 101.956 1.79802Z" fill="#23AAE2"/>
<path fill-rule="evenodd" clip-rule="evenodd" d="M14.7125 54.9365C15.7466 53.8624 16.2639 52.4228 16.2639 50.6194C16.2639 48.8155 15.7466 47.3699 14.7125 46.2822C13.6778 45.1945 12.3614 44.651 10.7643 44.651C9.29784 44.651 8.00071 45.2076 6.87524 46.322C5.74861 47.4364 5.18558 48.8683 5.18558 50.6194C5.18558 52.37 5.74861 53.7959 6.87524 54.8967C8.00071 55.9975 9.29784 56.5482 10.7643 56.5482C12.3614 56.5482 13.6778 56.0111 14.7125 54.9365ZM18.4053 43.079C20.3299 45.0818 21.2925 47.5948 21.2925 50.6194C21.2925 53.6434 20.3369 56.15 18.4246 58.1391C16.5129 60.1288 14.2608 61.1239 11.6677 61.1239C9.10098 61.1239 6.94028 60.4077 5.18558 58.9752V67.2912H1.53206C0.68606 67.2912 0 66.5963 0 65.7394V40.6716H3.61426C4.48253 40.6716 5.18558 41.3843 5.18558 42.2637C6.91391 40.8045 9.07462 40.0746 11.6677 40.0746C14.2344 40.0746 16.4807 41.0763 18.4053 43.079Z" fill="#23AAE2"/>
<path fill-rule="evenodd" clip-rule="evenodd" d="M24.0688 58.9749V40.6719H27.5711C28.5009 40.6719 29.2543 41.435 29.2543 42.3768V60.5267H25.6008C24.7548 60.5267 24.0688 59.8318 24.0688 58.9749ZM28.9005 33.5956C29.5033 34.2192 29.8045 34.955 29.8045 35.8042C29.8045 36.6795 29.5033 37.4088 28.9005 37.9927C28.2982 38.576 27.5518 38.868 26.6612 38.868C25.7449 38.868 24.9921 38.576 24.4027 37.9927C23.8133 37.4088 23.5186 36.6795 23.5186 35.8042C23.5186 34.955 23.8198 34.2192 24.4226 33.5956C25.0243 32.9725 25.7707 32.6604 26.6612 32.6604C27.5518 32.6604 28.2982 32.9725 28.9005 33.5956Z" fill="#23AAE2"/>
<path fill-rule="evenodd" clip-rule="evenodd" d="M68.1152 54.8965C69.2413 53.7963 69.8043 52.3697 69.8043 50.6192C69.8043 48.8686 69.2413 47.4362 68.1152 46.3217C66.9892 45.2079 65.6926 44.6507 64.2262 44.6507C62.6285 44.6507 61.3126 45.1943 60.278 46.282C59.2433 47.3697 58.7266 48.8152 58.7266 50.6192C58.7266 52.4231 59.2433 53.8622 60.278 54.9362C61.3126 56.0109 62.6285 56.5479 64.2262 56.5479C65.6926 56.5479 66.9892 55.9972 68.1152 54.8965ZM74.9899 60.5267H71.3364C70.4904 60.5267 69.8043 59.8318 69.8043 58.9749C68.0496 60.408 65.8895 61.1243 63.3222 61.1243C60.7297 61.1243 58.4776 60.1291 56.5653 58.1394C54.6536 56.1503 53.698 53.6432 53.698 50.6192C53.698 47.5952 54.66 45.0815 56.5852 43.0788C58.5098 41.076 60.7555 40.0744 63.3222 40.0744C65.9153 40.0744 68.076 40.8043 69.8043 42.2634V40.6719H73.3067C74.2365 40.6719 74.9899 41.435 74.9899 42.3768V60.5267Z" fill="#23AAE2"/>
<path fill-rule="evenodd" clip-rule="evenodd" d="M95.1379 42.4028C96.5779 43.9545 97.298 45.9638 97.298 48.4306V60.5266H93.6451C92.7985 60.5266 92.1124 59.8323 92.1124 58.9748V49.545C92.1124 48.1392 91.7521 47.0118 91.0321 46.1626C90.312 45.314 89.35 44.8897 88.1443 44.8897C84.8974 44.8897 83.2733 47.1708 83.2733 51.7335V60.5266H79.6198C78.7738 60.5266 78.0877 59.8323 78.0877 58.9748V40.6718H81.5895C82.5199 40.6718 83.2733 41.4355 83.2733 42.3767V42.4627C84.8446 40.8706 86.9005 40.0748 89.4408 40.0748C91.7984 40.0748 93.6972 40.851 95.1379 42.4028Z" fill="#23AAE2"/>
<path fill-rule="evenodd" clip-rule="evenodd" d="M112.584 53.8711C114.034 52.8451 114.758 51.4428 114.758 49.6644C114.758 47.886 114.034 46.4837 112.584 45.4572C111.664 44.8062 110.573 44.4858 109.451 44.4916C107.899 44.5006 106.617 44.9777 105.605 45.9236C104.584 46.879 104.073 48.1257 104.073 49.6644C104.073 51.2025 104.584 52.4493 105.605 53.4046C106.617 54.3511 107.899 54.8282 109.451 54.8366C110.573 54.8431 111.664 54.5226 112.584 53.8711ZM119.787 58.6171C119.787 61.6144 118.844 63.9423 116.958 65.6003C115.073 67.2583 112.52 68.0873 109.298 68.0873C104.741 68.0873 101.559 66.6281 99.7518 63.7103L102.738 61.4204C103.402 60.9112 104.328 60.9931 104.919 61.5877C105.393 62.0642 105.857 62.4333 106.312 62.6956C107.072 63.1329 108.067 63.3525 109.298 63.3525C110.974 63.3525 112.303 62.8612 113.286 61.8803C114.268 60.8982 114.758 59.5458 114.758 57.8214V57.5027C113.266 58.7233 111.21 59.3334 108.591 59.3334C106.077 59.3334 103.864 58.3916 101.952 56.5082C100.04 54.6253 99.0845 52.3436 99.0845 49.6644C99.0845 47.0113 100.04 44.7504 101.952 42.88C103.864 41.0102 106.077 40.0744 108.591 40.0744C111.158 40.0744 113.213 40.685 114.758 41.905V40.6719H118.068C118.996 40.6719 119.749 41.4327 119.751 42.3732L119.787 58.6171Z" fill="#23AAE2"/>
<path fill-rule="evenodd" clip-rule="evenodd" d="M40.9184 67.2913H36.256L39.3939 59.9011L31.2749 40.6717H35.9173C36.5975 40.6717 37.2104 41.0865 37.4705 41.7233L42.219 53.3463L47.6319 40.6717H53.3981L42.461 66.2653C42.195 66.8878 41.5886 67.2913 40.9184 67.2913Z" fill="#23AAE2"/>
<path fill-rule="evenodd" clip-rule="evenodd" d="M136.247 54.9176C137.384 53.8061 137.953 52.3671 137.953 50.5994C137.953 48.8322 137.384 47.3926 136.247 46.2812C135.111 45.1697 133.815 44.6143 132.361 44.6143C130.854 44.6143 129.525 45.1632 128.375 46.261C127.225 47.3588 126.65 48.8055 126.65 50.5994C126.65 52.3938 127.225 53.84 128.375 54.9378C129.525 56.0356 130.854 56.5851 132.361 56.5851C133.815 56.5851 135.111 56.029 136.247 54.9176ZM139.916 43.0269C141.992 44.9958 143.029 47.5196 143.029 50.5994C143.029 53.6791 141.992 56.2029 139.916 58.1712C137.84 60.1396 135.322 61.124 132.361 61.124C129.346 61.124 126.795 60.1396 124.706 58.1712C122.617 56.2029 121.573 53.6791 121.573 50.5994C121.573 47.5196 122.617 44.9958 124.706 43.0269C126.795 41.0592 129.346 40.0747 132.361 40.0747C135.322 40.0747 137.84 41.0592 139.916 43.0269Z" fill="#23AAE2"/>
<path fill-rule="evenodd" clip-rule="evenodd" d="M162.011 36.2691C159.807 46.8181 155.937 56.5624 150.335 65.5911C150.14 65.8967 149.757 66.0242 149.484 65.8771C147.384 64.7478 145.284 63.6186 143.183 62.4893C142.91 62.3422 142.796 61.9731 142.924 61.6639C146.541 52.5818 148.543 43.1223 148.959 33.019C148.968 32.6748 149.374 32.4927 149.867 32.6131C153.66 33.5388 157.452 34.4651 161.244 35.3914C161.738 35.5119 162.083 35.9053 162.011 36.2691Z" fill="#23AAE2"/>
<path fill-rule="evenodd" clip-rule="evenodd" d="M151.322 67.7923C150.995 67.7923 150.691 67.6962 150.441 67.5152L143.703 62.6255C143.058 62.1579 142.914 61.2387 143.381 60.5759C149.479 51.6368 153.678 42.1198 156.209 31.4919C156.339 30.9008 156.878 30.5104 157.577 30.5104C157.852 30.5104 158.145 30.5709 158.428 30.6866L171.276 35.9501C171.816 36.1715 172.235 36.5667 172.425 37.0355C172.57 37.3903 172.572 37.7683 172.432 38.1C167.658 48.976 160.96 58.7957 152.52 67.298C152.198 67.6149 151.764 67.7923 151.322 67.7923Z" fill="#23AAE2"/>
<path fill-rule="evenodd" clip-rule="evenodd" d="M157.578 29.7098C156.517 29.7098 155.659 30.353 155.439 31.312C152.931 41.8372 148.773 51.2617 142.728 60.1242C142.02 61.1454 142.248 62.556 143.242 63.277L146.611 65.7218L149.981 68.1666C150.365 68.4455 150.829 68.5927 151.322 68.5927C151.967 68.5927 152.601 68.3334 153.062 67.8812C161.587 59.2934 168.341 49.3918 173.15 38.4358C173.383 37.8845 173.383 37.2864 173.157 36.7303C172.885 36.064 172.308 35.5091 171.573 35.2083L164.068 32.1338L158.724 29.9447C158.343 29.7887 157.957 29.7098 157.578 29.7098ZM157.578 31.3114C157.746 31.3114 157.936 31.3493 158.131 31.4294C162.414 33.1836 166.697 34.9383 170.98 36.693C171.537 36.9208 171.864 37.411 171.705 37.7848C166.957 48.602 160.408 58.2235 151.963 66.7306C151.789 66.9015 151.549 66.9917 151.322 66.9917C151.168 66.9917 151.02 66.9501 150.902 66.8641C148.655 65.2346 146.409 63.6051 144.163 61.975C143.87 61.7632 143.81 61.346 144.025 61.0416C150.141 52.0758 154.429 42.3819 156.977 31.6799C157.03 31.4419 157.266 31.3114 157.578 31.3114Z" fill="white"/>
<path fill-rule="evenodd" clip-rule="evenodd" d="M151.54 69.1996C151.114 69.1996 150.725 69.0489 150.446 68.7753L144.231 62.6781C143.956 62.4087 143.803 62.0431 143.8 61.6503C143.797 61.2367 143.967 60.8273 144.265 60.5264C152.617 51.8467 159.05 42.2993 163.923 31.3468C164.133 30.8555 164.621 30.5558 165.223 30.5558C165.586 30.5558 165.965 30.6644 166.321 30.8697L178.996 38.187C179.515 38.4867 179.881 38.9508 180.001 39.4599C180.095 39.8581 180.029 40.2562 179.817 40.5808C172.511 51.4657 163.363 60.9732 152.622 68.8495C152.303 69.0774 151.921 69.1996 151.54 69.1996Z" fill="#23AAE2"/>
<path fill-rule="evenodd" clip-rule="evenodd" d="M165.223 29.7552C164.315 29.7552 163.541 30.2412 163.199 31.0257C158.365 41.888 151.984 51.3582 143.691 59.9756C143.259 60.4106 143.006 61.0289 143.01 61.6555C143.014 62.2656 143.253 62.8328 143.681 63.253L147.847 67.3392L149.896 69.3502C150.323 69.7692 150.907 70 151.541 70C152.083 70 152.626 69.8261 153.069 69.5099C163.901 61.5671 173.114 51.9925 180.465 41.04C180.811 40.5107 180.915 39.89 180.77 39.274C180.599 38.5501 180.095 37.9009 179.387 37.492L170.596 32.4166L166.712 30.1742C166.237 29.9 165.722 29.7552 165.223 29.7552ZM165.223 31.3562C165.438 31.3562 165.686 31.4245 165.929 31.5651C170.154 34.0046 174.379 36.4435 178.604 38.883C179.154 39.2005 179.403 39.7642 179.158 40.1398C171.881 50.9808 162.921 60.3097 152.158 68.2008C151.973 68.3331 151.75 68.399 151.541 68.399C151.33 68.399 151.131 68.3325 150.996 68.2002C148.924 66.1678 146.853 64.1354 144.781 62.103C144.511 61.8383 144.531 61.3873 144.823 61.0936C153.187 52.402 159.743 42.6909 164.644 31.6755C164.734 31.4648 164.952 31.3562 165.223 31.3562Z" fill="white"/>
</svg>
