<svg width="124" height="70" viewBox="0 0 124 70" fill="none" xmlns="http://www.w3.org/2000/svg">
<path d="M96.6133 4.5765C99.346 7.63353 100.712 11.5865 100.712 16.4414V40.2499H94.0651C92.3009 40.2499 90.8712 38.7487 90.8712 36.8963V18.6388C90.8712 15.8724 90.1851 13.6507 88.8188 11.98C87.4524 10.3092 85.6248 9.4738 83.3361 9.4738C77.1731 9.4738 74.0887 13.9655 74.0887 22.9429V40.2499H67.4414C65.6773 40.2499 64.2475 38.7487 64.2475 36.8963V1.17442H70.8948C72.6589 1.17442 74.0887 2.67569 74.0887 4.52807V4.69757C77.0693 1.56185 80.9781 1.78391e-05 85.7978 1.78391e-05C90.2716 -0.00601773 93.8748 1.51947 96.6133 4.5765Z" fill="#A25EB5"/>
<path d="M54.9776 5.53518C51.1128 1.84507 46.4276 1.52588e-05 40.9159 1.52588e-05C35.3031 1.52588e-05 30.5583 1.84507 26.6698 5.53518C22.7813 9.22529 20.837 13.9593 20.837 19.7372C20.837 25.5152 22.7813 30.2492 26.6698 33.9393C27.5617 34.789 28.519 35.5052 29.5 36.1606C32.8415 30.9411 37.8895 25.1935 44.1503 19.8283C45.2027 18.924 46.2611 18.0621 47.3135 17.2367C47.3135 17.2367 43.2942 20.0104 41.011 21.7644C38.6148 23.6094 33.0021 28.7804 33.0021 28.7804L34.0723 25.4181C34.7085 23.4152 34.0128 21.2242 32.3421 19.9861L25.1715 14.6694H34.0366C36.0998 14.6694 37.9251 13.316 38.5613 11.3131L41.3023 2.7069L44.0433 11.3131C44.6795 13.316 46.5049 14.6694 48.568 14.6694H50.7561H57.4332L56.8505 15.1003L56.7851 15.0943C52.2901 17.5098 47.4324 20.7872 42.6045 24.7687L43.2585 24.3317C44.0017 23.8401 44.7509 23.3606 45.4941 22.8993L48.9307 33.6965L39.9645 27.0446C36.0463 30.5041 32.574 34.0668 29.7081 37.5323C28.9054 38.5277 27.9244 39.8083 27.2049 40.7429C26.979 41.0525 26.7352 41.3681 26.5212 41.6715C26.5331 41.6473 26.545 41.6169 26.5569 41.5926C26.3606 41.8536 26.2417 42.0114 26.2477 41.9993C26.2774 41.9507 30.2135 37.9754 31.0578 37.1196C33.9772 38.6855 37.2652 39.4684 40.9159 39.4684C46.4276 39.4684 51.1128 37.6233 54.9776 33.9332C58.8423 30.2431 60.7747 25.5091 60.7747 19.7312C60.7687 13.9593 58.8364 9.22529 54.9776 5.53518Z" fill="#A25EB5"/>
<path d="M123.286 69.454H120.009C119.25 69.454 118.635 68.819 118.635 68.0355C117.059 69.3463 115.124 69.9999 112.818 69.9999C110.491 69.9999 108.473 69.0901 106.757 67.2706C105.041 65.451 104.185 63.1599 104.185 60.3934C104.185 57.627 105.048 55.3322 106.775 53.4978C108.502 51.6671 110.516 50.7499 112.818 50.7499C115.146 50.7499 117.081 51.4183 118.635 52.7514V51.2958H121.775C122.61 51.2958 123.286 51.9939 123.286 52.8554V69.454ZM117.12 64.3073C118.131 63.301 118.635 61.9976 118.635 60.3972C118.635 58.7967 118.131 57.4859 117.12 56.4684C116.11 55.451 114.948 54.9386 113.631 54.9386C112.2 54.9386 111.016 55.4361 110.088 56.4313C109.16 57.4265 108.696 58.7484 108.696 60.3972C108.696 62.0459 109.16 63.3604 110.088 64.3444C111.016 65.3285 112.196 65.8186 113.631 65.8186C114.948 65.8149 116.11 65.3136 117.12 64.3073Z" fill="#009ADE"/>
<path d="M65.6727 52.8561C67.0402 54.2653 67.7203 56.0842 67.7203 58.3052V69.9922H64.5515C63.7023 69.9922 63.0112 69.2723 63.0112 68.3877V59.32C63.0112 58.0984 62.6767 57.1181 62.004 56.3791C61.3313 55.6439 60.4931 55.2763 59.4859 55.2763C58.1919 55.2763 57.1736 55.7587 56.431 56.7199C55.6884 57.681 55.3172 59.1094 55.3172 61.0087V69.996H52.1116C51.2624 69.996 50.5713 69.2761 50.5713 68.3916V59.3238C50.5713 58.1023 50.2368 57.122 49.564 56.3829C48.8913 55.6477 48.0532 55.2801 47.0459 55.2801C45.7519 55.2801 44.7447 55.7549 44.0242 56.7046C43.3036 57.6542 42.9471 59.0902 42.9471 61.0125V69.9999H39.7415C38.8923 69.9999 38.2012 69.28 38.2012 68.3954V51.3129H41.4729C42.2854 51.3129 42.9471 52.0022 42.9471 52.8485C44.2888 51.4508 46.0754 50.7499 48.3031 50.7499C50.8911 50.7499 52.8578 51.7725 54.1996 53.8211C55.7803 51.7725 57.9639 50.7499 60.7431 50.7499C62.662 50.7385 64.3052 51.4431 65.6727 52.8561Z" fill="#009ADE"/>
<path d="M88.5574 69.4534H85.2815C84.522 69.4534 83.9064 68.8177 83.9064 68.0332C82.3333 69.3418 80.3966 69.9999 78.0927 69.9999C75.7672 69.9999 73.7477 69.089 72.0306 67.2711C70.3171 65.4532 69.4568 63.1594 69.4568 60.3935C69.4568 57.6275 70.3207 55.33 72.045 53.4972C73.7729 51.6644 75.7852 50.7499 78.0891 50.7499C80.4146 50.7499 82.3513 51.4154 83.9028 52.75V51.2927H87.0455C87.8806 51.2927 88.5538 51.9916 88.5538 52.8504V69.4534H88.5574ZM82.3909 64.3044C83.4024 63.2969 83.9064 61.9921 83.9064 60.3935C83.9064 58.7912 83.4024 57.4826 82.3909 56.4639C81.3793 55.4453 80.2166 54.936 78.9027 54.936C77.4699 54.936 76.2892 55.4341 75.3605 56.4267C74.4317 57.4231 73.9673 58.7428 73.9673 60.3935C73.9673 62.0441 74.4317 63.3601 75.3605 64.3416C76.2892 65.3231 77.4699 65.8138 78.9027 65.8138C80.2166 65.8175 81.3793 65.3119 82.3909 64.3044Z" fill="#009ADE"/>
<path d="M13.8692 52.9445C15.0394 54.4038 15.6278 56.2959 15.6278 58.6169V69.9999H12.7807C12.0256 69.9999 11.4111 69.2798 11.4111 68.3951V59.6663C11.4111 58.3449 11.1169 57.284 10.5318 56.4835C9.94673 55.683 9.16224 55.2847 8.18162 55.2847C5.54049 55.2847 4.21992 57.4296 4.21992 61.7231V69.996H1.3696C0.61452 69.996 0 69.276 0 68.3912V51.3129H2.85033C3.6054 51.3129 4.21992 52.033 4.21992 52.9177V52.9982C5.498 51.5006 7.17158 50.7499 9.23742 50.7499C11.1529 50.7537 12.699 51.4853 13.8692 52.9445Z" fill="#009ADE"/>
<path d="M102.449 50.891L102.286 54.2809C102.258 54.8418 101.856 55.2827 101.364 55.2827C97.7923 55.2827 96.0047 57.7485 96.0047 62.6835V68.2499H93.3202C92.6076 68.2499 92.0302 67.5867 92.0302 66.7683V50.9933H94.7147C95.4273 50.9933 96.0047 51.6565 96.0047 52.4749V54.1398C97.3715 51.8787 99.1653 50.7499 101.395 50.7499C101.859 50.7499 102.209 50.7958 102.449 50.891Z" fill="#009ADE"/>
<path d="M34.7284 69.4367H31.8813C31.1263 69.4367 30.5117 68.7165 30.5117 67.8316V67.7512C29.2337 69.249 27.5601 69.9999 25.4942 69.9999C23.5755 69.9999 22.0327 69.2682 20.8592 67.8086C19.6857 66.3491 19.1006 64.4566 19.1006 62.1352V50.7499H21.9509C22.706 50.7499 23.3205 51.4701 23.3205 52.355V61.0855C23.3205 62.4071 23.6147 63.4683 24.1998 64.2689C24.7849 65.0696 25.5694 65.468 26.55 65.468C29.1912 65.468 30.5117 63.3227 30.5117 59.0283V50.7537H33.3588C34.1139 50.7537 34.7284 51.4739 34.7284 52.3589V69.4367Z" fill="#009ADE"/>
</svg>
