<svg width="106" height="60" viewBox="0 0 106 60" fill="none" xmlns="http://www.w3.org/2000/svg">
<path d="M82.8114 3.92272C85.1537 6.54303 86.3249 9.93127 86.3249 14.0926V34.4999H80.6272C79.1151 34.4999 77.8896 33.2131 77.8896 31.6254V15.9762C77.8896 13.6049 77.3015 11.7006 76.1304 10.2685C74.9592 8.83645 73.3927 8.1204 71.4309 8.1204C66.1484 8.1204 63.5046 11.9704 63.5046 19.6653V34.4999H57.807C56.2948 34.4999 55.0693 33.2131 55.0693 31.6254V1.00665H60.767C62.2791 1.00665 63.5046 2.29345 63.5046 3.88121V4.02649C66.0594 1.33872 69.4098 1.52907e-05 73.541 1.52907e-05C77.3756 -0.00515805 80.4641 1.3024 82.8114 3.92272Z" fill="white"/>
<path d="M47.1236 4.74445C43.811 1.5815 39.795 2.28882e-05 35.0707 2.28882e-05C30.2597 2.28882e-05 26.1928 1.5815 22.8598 4.74445C19.5268 7.9074 17.8603 11.9651 17.8603 16.9176C17.8603 21.8702 19.5268 25.9279 22.8598 29.0908C23.6243 29.8191 24.4448 30.433 25.2857 30.9948C28.1498 26.5209 32.4767 21.5944 37.8431 16.9957C38.7452 16.2205 39.6523 15.4818 40.5544 14.7743C40.5544 14.7743 37.1093 17.1517 35.1522 18.6552C33.0984 20.2367 28.2874 24.6689 28.2874 24.6689L29.2048 21.7869C29.7501 20.0702 29.1538 18.1922 27.7218 17.1309L21.5755 12.5738H29.1742C30.9427 12.5738 32.5072 11.4137 33.0525 9.69696L35.402 2.32021L37.7514 9.69696C38.2967 11.4137 39.8613 12.5738 41.6297 12.5738H43.5052H49.2284L48.729 12.9431L48.6729 12.9379C44.8201 15.0084 40.6563 17.8176 36.5181 21.2303L37.0787 20.8557C37.7157 20.4343 38.3579 20.0234 38.9949 19.628L41.9406 28.8827L34.2553 23.1811C30.8968 26.1464 27.9205 29.2001 25.4641 32.1706C24.7761 33.0237 23.9352 34.1214 23.3185 34.9225C23.1248 35.1878 22.9159 35.4584 22.7324 35.7185C22.7426 35.6977 22.7528 35.6716 22.763 35.6508C22.5948 35.8745 22.4929 36.0098 22.498 35.9994C22.5235 35.9578 25.8973 32.5503 26.6209 31.8168C29.1233 33.159 31.9415 33.8301 35.0707 33.8301C39.795 33.8301 43.811 32.2486 47.1236 29.0856C50.4362 25.9227 52.0926 21.865 52.0926 16.9124C52.0875 11.9651 50.4311 7.9074 47.1236 4.74445Z" fill="white"/>
<path d="M105.674 59.532H102.865C102.214 59.532 101.687 58.9877 101.687 58.3161C100.336 59.4397 98.6777 59.9999 96.7013 59.9999C94.7065 59.9999 92.9768 59.2201 91.5061 57.6605C90.0354 56.1009 89.3016 54.137 89.3016 51.7658C89.3016 49.3946 90.0416 47.4276 91.5215 45.8552C93.0015 44.2861 94.7281 43.4999 96.7013 43.4999C98.6962 43.4999 100.355 44.0728 101.687 45.2155V43.9678H104.379C105.094 43.9678 105.674 44.5662 105.674 45.3046V59.532ZM100.389 55.1206C101.255 54.258 101.687 53.1408 101.687 51.769C101.687 50.3972 101.255 49.2736 100.389 48.4015C99.5225 47.5294 98.5266 47.0902 97.3981 47.0902C96.171 47.0902 95.1566 47.5167 94.3612 48.3697C93.5657 49.2227 93.168 50.3558 93.168 51.769C93.168 53.1822 93.5657 54.3089 94.3612 55.1524C95.1566 55.9958 96.1679 56.416 97.3981 56.416C98.5266 56.4128 99.5225 55.9831 100.389 55.1206Z" fill="#009ADE"/>
<path d="M56.2909 45.3053C57.4631 46.5131 58.046 48.0722 58.046 49.9759V59.9933H55.3299C54.602 59.9933 54.0096 59.3763 54.0096 58.6181V50.8457C54.0096 49.7987 53.7229 48.9584 53.1463 48.3249C52.5697 47.6947 51.8512 47.3796 50.9879 47.3796C49.8787 47.3796 49.0059 47.7932 48.3694 48.6171C47.733 49.4409 47.4147 50.6652 47.4147 52.2932V59.9966H44.6671C43.9392 59.9966 43.3468 59.3795 43.3468 58.6213V50.849C43.3468 49.8019 43.0601 48.9617 42.4835 48.3282C41.9069 47.698 41.1884 47.3829 40.3251 47.3829C39.2159 47.3829 38.3526 47.7899 37.735 48.6039C37.1174 49.4179 36.8118 50.6488 36.8118 52.2965V59.9999H34.0641C33.3363 59.9999 32.7439 59.3828 32.7439 58.6246V43.9825H35.5482C36.2446 43.9825 36.8118 44.5733 36.8118 45.2987C37.9619 44.1007 39.4932 43.4999 41.4027 43.4999C43.621 43.4999 45.3067 44.3764 46.4568 46.1324C47.8117 44.3764 49.6834 43.4999 52.0655 43.4999C53.7103 43.4902 55.1188 44.0941 56.2909 45.3053Z" fill="#009ADE"/>
<path d="M75.9063 59.5315H73.0985C72.4474 59.5315 71.9198 58.9866 71.9198 58.3142C70.5714 59.4359 68.9114 59.9999 66.9366 59.9999C64.9433 59.9999 63.2123 59.2192 61.7405 57.661C60.2718 56.1027 59.5344 54.1366 59.5344 51.7658C59.5344 49.395 60.2749 47.4257 61.7529 45.8548C63.2339 44.2838 64.9588 43.4999 66.9335 43.4999C68.9268 43.4999 70.5868 44.0703 71.9167 45.2143V43.9652H74.6104C75.3262 43.9652 75.9032 44.5642 75.9032 45.3003V59.5315H75.9063ZM70.6208 55.1181C71.4878 54.2545 71.9198 53.136 71.9198 51.7658C71.9198 50.3924 71.4878 49.2708 70.6208 48.3976C69.7537 47.5245 68.7571 47.088 67.6309 47.088C66.4028 47.088 65.3907 47.515 64.5947 48.3658C63.7986 49.2198 63.4006 50.351 63.4006 51.7658C63.4006 53.1807 63.7986 54.3087 64.5947 55.1499C65.3907 55.9912 66.4028 56.4118 67.6309 56.4118C68.7571 56.415 69.7537 55.9816 70.6208 55.1181Z" fill="#009ADE"/>
<path d="M11.8879 45.381C12.8909 46.6318 13.3952 48.2536 13.3952 50.243V59.9999H10.9549C10.3077 59.9999 9.78096 59.3827 9.78096 58.6243V51.1426C9.78096 50.01 9.5288 49.1006 9.02728 48.4145C8.52577 47.7283 7.85335 47.3869 7.01282 47.3869C4.74899 47.3869 3.61708 49.2253 3.61708 52.9055V59.9966H1.17394C0.526732 59.9966 0 59.3794 0 58.6211V43.9825H2.44314C3.09035 43.9825 3.61708 44.5997 3.61708 45.3581V45.427C4.71257 44.1434 6.14707 43.4999 7.91779 43.4999C9.55962 43.5032 10.8849 44.1302 11.8879 45.381Z" fill="#009ADE"/>
<path d="M87.8132 43.6209L87.6737 46.5265C87.65 47.0073 87.3051 47.3852 86.8839 47.3852C83.822 47.3852 82.2898 49.4987 82.2898 53.7287V58.4999H79.9888C79.378 58.4999 78.8831 57.9315 78.8831 57.23V43.7085H81.184C81.7948 43.7085 82.2898 44.277 82.2898 44.9784V46.4056C83.4613 44.4675 84.9988 43.4999 86.9102 43.4999C87.3077 43.4999 87.6079 43.5392 87.8132 43.6209Z" fill="#009ADE"/>
<path d="M29.7672 59.5172H27.3268C26.6796 59.5172 26.1529 58.8999 26.1529 58.1414V58.0724C25.0574 59.3563 23.6229 59.9999 21.8522 59.9999C20.2076 59.9999 18.8851 59.3727 17.8793 58.1217C16.8735 56.8706 16.3719 55.2485 16.3719 53.2587V43.4999H18.8151C19.4623 43.4999 19.989 44.1172 19.989 44.8757V52.359C19.989 53.4918 20.2412 54.4014 20.7427 55.0877C21.2442 55.7739 21.9166 56.1154 22.7572 56.1154C25.021 56.1154 26.1529 54.2766 26.1529 50.5957V43.5032H28.5932C29.2405 43.5032 29.7672 44.1205 29.7672 44.879V59.5172Z" fill="#009ADE"/>
</svg>
