<svg width="100" height="60" viewBox="0 0 100 60" fill="none" xmlns="http://www.w3.org/2000/svg">
<path fill-rule="evenodd" clip-rule="evenodd" d="M33.061 49.2764C33.061 55.1415 28.3062 59.8963 22.4411 59.8963C16.5755 59.8963 11.8207 55.1415 11.8207 49.2764C11.8207 43.4108 16.5755 38.6564 22.4411 38.6564C28.3062 38.6564 33.061 43.4108 33.061 49.2764Z" fill="#23AAE2"/>
<path fill-rule="evenodd" clip-rule="evenodd" d="M50.4106 50.5631C50.4106 55.775 46.1856 60 40.9733 60C35.7613 60 31.5363 55.775 31.5363 50.5631C31.5363 45.3511 35.7613 41.1257 40.9733 41.1257C46.1856 41.1257 50.4106 45.3511 50.4106 50.5631Z" fill="#23AAE2"/>
<path fill-rule="evenodd" clip-rule="evenodd" d="M70.3313 49.2764C70.3313 55.1415 65.5765 59.8963 59.7113 59.8963C53.8458 59.8963 49.091 55.1415 49.091 49.2764C49.091 43.4108 53.8458 38.6564 59.7113 38.6564C65.5765 38.6564 70.3313 43.4108 70.3313 49.2764Z" fill="#23AAE2"/>
<path fill-rule="evenodd" clip-rule="evenodd" d="M87.6807 50.5631C87.6807 55.775 83.4557 60 78.2437 60C73.0318 60 68.8063 55.775 68.8063 50.5631C68.8063 45.3511 73.0318 41.1257 78.2437 41.1257C83.4557 41.1257 87.6807 45.3511 87.6807 50.5631Z" fill="#23AAE2"/>
<path fill-rule="evenodd" clip-rule="evenodd" d="M42.9698 52.72C43.545 52.1651 43.833 51.446 43.833 50.5631C43.833 49.6802 43.545 48.9611 42.9698 48.4062C42.3947 47.8508 41.7389 47.5731 41.0036 47.5731C40.2409 47.5731 39.5685 47.8477 38.9871 48.3959C38.4048 48.9445 38.1141 49.6668 38.1141 50.5631C38.1141 51.4594 38.4048 52.1817 38.9871 52.7299C39.5685 53.2785 40.2409 53.5526 41.0036 53.5526C41.7389 53.5526 42.3947 53.2754 42.9698 52.72ZM44.8257 46.7809C45.8764 47.7638 46.4012 49.0248 46.4012 50.5631C46.4012 52.1014 45.8764 53.362 44.8257 54.3453C43.7755 55.3287 42.5015 55.8203 41.0036 55.8203C39.4783 55.8203 38.1872 55.3287 37.1307 54.3453C36.0738 53.362 35.5458 52.1014 35.5458 50.5631C35.5458 49.0248 36.0738 47.7638 37.1307 46.7809C38.1872 45.7975 39.4783 45.3058 41.0036 45.3058C42.5015 45.3058 43.7755 45.7975 44.8257 46.7809Z" fill="white"/>
<path fill-rule="evenodd" clip-rule="evenodd" d="M80.2401 52.72C80.8152 52.1651 81.1032 51.446 81.1032 50.5631C81.1032 49.6802 80.8152 48.9611 80.2401 48.4062C79.665 47.8508 79.0096 47.5731 78.2734 47.5731C77.5112 47.5731 76.8387 47.8477 76.2569 48.3959C75.675 48.9445 75.3844 49.6668 75.3844 50.5631C75.3844 51.4594 75.675 52.1817 76.2569 52.7299C76.8387 53.2785 77.5112 53.5526 78.2734 53.5526C79.0096 53.5526 79.665 53.2754 80.2401 52.72ZM82.096 46.7809C83.1466 47.7638 83.6711 49.0248 83.6711 50.5631C83.6711 52.1014 83.1466 53.362 82.096 54.3453C81.0458 55.3287 79.7718 55.8203 78.2734 55.8203C76.7486 55.8203 75.4575 55.3287 74.401 54.3453C73.3441 53.362 72.8161 52.1014 72.8161 50.5631C72.8161 49.0248 73.3441 47.7638 74.401 46.7809C75.4575 45.7975 76.7486 45.3058 78.2734 45.3058C79.7718 45.3058 81.0458 45.7975 82.096 46.7809Z" fill="white"/>
<path fill-rule="evenodd" clip-rule="evenodd" d="M63.4076 53.8599C63.5575 54.2937 63.3394 54.7702 62.9137 54.9411C62.265 55.2022 61.6441 55.3327 61.0515 55.3327C59.8205 55.3327 58.8574 55.0016 58.162 54.3395C57.4662 53.6773 57.1186 52.6774 57.1186 51.3396V47.1864H55.8315C55.3564 47.1864 54.9715 46.8011 54.9715 46.3264V45.0192H57.1186V41.9893H58.9072C59.3818 41.9893 59.7672 42.3742 59.7672 42.8493V45.0192H62.178C62.6526 45.0192 63.0375 45.4041 63.0375 45.8787V47.1864H59.7672V51.1391C59.7672 52.2894 60.2557 52.8649 61.2319 52.8649C61.7406 52.8649 62.2955 52.7043 62.8975 52.3831L63.4076 53.8599Z" fill="white"/>
<path fill-rule="evenodd" clip-rule="evenodd" d="M25.6486 54.3694C25.8034 54.8122 25.5827 55.3003 25.1475 55.477C24.4849 55.7462 23.8506 55.8821 23.2445 55.8844C21.9857 55.8893 20.9997 55.5542 20.286 54.8795C19.5722 54.2052 19.2129 53.1837 19.208 51.8159L19.1918 47.5681L19.1837 45.3519L19.2286 41.4441L21.058 41.4374C21.5434 41.4356 21.9386 41.8277 21.9404 42.3135L21.892 45.3421L21.9005 47.5582L21.9153 51.6006C21.9198 52.7769 22.4213 53.3636 23.4199 53.36C23.9399 53.3583 24.5069 53.1918 25.1215 52.8612L25.6486 54.3694Z" fill="white"/>
<path fill-rule="evenodd" clip-rule="evenodd" d="M51.7703 30.2328L52.6738 16.024L55.4507 16.2003C56.1882 16.2474 56.7476 16.8831 56.7005 17.6202L55.7975 31.8294L53.0206 31.6527C52.2831 31.606 51.7236 30.9703 51.7703 30.2328Z" fill="white"/>
<path fill-rule="evenodd" clip-rule="evenodd" d="M84.5106 25.5301C85.4052 24.667 85.8524 23.5481 85.8524 22.1749C85.8524 20.8013 85.4052 19.678 84.5106 18.8036C83.6157 17.9302 82.5856 17.4928 81.4202 17.4928C80.151 17.4928 79.1053 17.9194 78.2835 18.7727C77.4621 19.6259 77.0507 20.76 77.0507 22.1749C77.0507 23.5899 77.4621 24.7186 78.2835 25.5615C79.1053 26.404 80.151 26.8257 81.4202 26.8257C82.5856 26.8257 83.6157 26.3937 84.5106 25.5301ZM90.1582 32.2269L86.8308 31.8353C86.0601 31.7447 85.5092 31.0462 85.5999 30.2755C83.8498 31.3755 81.8073 31.7877 79.4696 31.5123C77.1086 31.2342 75.163 30.0983 73.6323 28.1042C72.1017 26.1106 71.4969 23.7545 71.8172 21.0355C72.1371 18.3165 73.2797 16.16 75.2446 14.5656C77.2095 12.9713 79.361 12.3118 81.6979 12.5868C84.0589 12.865 85.9498 13.7528 87.3692 15.2498L87.5378 13.8191L90.727 14.1942C91.574 14.2942 92.1796 15.0613 92.0796 15.9079L90.1582 32.2269Z" fill="white"/>
<path fill-rule="evenodd" clip-rule="evenodd" d="M28.7802 27.2656C29.6747 26.402 30.1219 25.2836 30.1219 23.9104C30.1219 22.5368 29.6747 21.4135 28.7802 20.5391C27.8852 19.6657 26.8552 19.2283 25.6901 19.2283C24.421 19.2283 23.3749 19.6549 22.553 20.5082C21.7316 21.3614 21.3202 22.4955 21.3202 23.9104C21.3202 25.3253 21.7316 26.454 22.553 27.297C23.3749 28.1395 24.421 28.5612 25.6901 28.5612C26.8552 28.5612 27.8852 28.1292 28.7802 27.2656ZM33.6592 32.2716L30.7639 32.0621C30.0932 32.0137 29.589 31.4309 29.6374 30.7607C28.166 31.7808 26.4137 32.2178 24.3793 32.0706C22.3247 31.9221 20.5962 31.0151 19.1934 29.3489C17.7906 27.6832 17.1751 25.6672 17.346 23.3012C17.5169 20.9348 18.4213 19.0237 20.0605 17.5667C21.6984 16.11 23.535 15.455 25.569 15.6017C27.6232 15.7502 29.2943 16.4447 30.5818 17.6851L30.6715 16.4397L33.447 16.6403C34.1836 16.6937 34.7381 17.3338 34.6847 18.0709L33.6592 32.2716Z" fill="white"/>
<path fill-rule="evenodd" clip-rule="evenodd" d="M91.9771 32.4838L94.2699 4.93333L97.8969 5.23524C98.8601 5.31554 99.5756 6.16117 99.4958 7.12389L97.2025 34.6739L93.5755 34.3719C92.6128 34.2921 91.8968 33.4465 91.9771 32.4838Z" fill="white"/>
<path fill-rule="evenodd" clip-rule="evenodd" d="M60.9028 26.2658C61.4963 26.0891 62.1531 26.2964 62.4963 26.8118C63.0727 27.6776 64.1777 28.0374 65.8106 27.8916C66.6221 27.8189 67.2506 27.6036 67.6961 27.2461C68.1411 26.8876 68.3416 26.461 68.2972 25.9648C68.2304 25.2206 67.5656 24.7688 66.3009 24.6091L62.7879 24.2072C61.2263 24.0282 59.9966 23.5585 59.0994 22.7981C58.2017 22.0373 57.6984 21.0481 57.5898 19.8305C57.4427 18.1846 57.9487 16.7872 59.1075 15.6383C60.2658 14.4894 61.8938 13.821 63.9906 13.6335C65.9524 13.4585 67.6337 13.7739 69.0356 14.5805C70.4371 15.3871 71.3509 16.5212 71.7775 17.9832L68.7898 18.8584C68.1967 19.032 67.5575 18.8131 67.2017 18.3075C67.0084 18.0334 66.7554 17.8001 66.4422 17.6077C65.8294 17.2304 65.0713 17.0824 64.17 17.1627C63.358 17.2358 62.7865 17.4516 62.455 17.8105C62.1235 18.1698 61.9777 18.5749 62.0181 19.0257C62.0827 19.7471 62.6317 20.1755 63.6671 20.3101L67.7706 20.83C69.2411 21.0167 70.3922 21.4994 71.2231 22.2768C72.0543 23.0552 72.5222 24.0304 72.6272 25.2026C72.7905 27.0289 72.2441 28.4869 70.9889 29.5761C69.7346 30.6658 67.9792 31.3114 65.7249 31.5128C63.7183 31.6922 61.9683 31.4338 60.4739 30.7376C58.9796 30.0418 58.0564 28.8687 57.7047 27.2182L60.9028 26.2658Z" fill="white"/>
<path fill-rule="evenodd" clip-rule="evenodd" d="M4.53642 26.7625C5.31027 26.5175 6.17609 26.7741 6.63771 27.4421C7.41335 28.5636 8.86954 29.01 11.0067 28.7812C12.069 28.6677 12.8877 28.3712 13.4637 27.8916C14.0389 27.412 14.2919 26.8477 14.2223 26.1986C14.1183 25.2246 13.2359 24.6477 11.5747 24.4669L6.96026 24.0206C4.90922 23.8223 3.28705 23.2346 2.0933 22.258C0.899101 21.2818 0.216767 19.9965 0.0462951 18.4031C-0.18429 16.2489 0.446453 14.4051 1.93942 12.8726C3.43195 11.3402 5.55073 10.4264 8.29442 10.133C10.8623 9.85842 13.0739 10.2335 14.9293 11.2585C16.7857 12.284 18.009 13.7497 18.6017 15.6562L14.705 16.8724C13.9316 17.1133 13.0887 16.841 12.6109 16.1865C12.3516 15.8312 12.0143 15.5311 11.5998 15.2861C10.7878 14.8061 9.79053 14.6294 8.61069 14.7554C7.54794 14.8689 6.80414 15.165 6.37751 15.6437C5.95089 16.1219 5.7692 16.6562 5.83245 17.2466C5.93339 18.1909 6.66373 18.7395 8.02346 18.8925L13.4144 19.4797C15.3466 19.6906 16.8664 20.2971 17.9736 21.2975C19.0803 22.2983 19.7165 23.5661 19.8806 25.1004C20.1364 27.491 19.454 29.4146 17.8341 30.8713C16.2142 32.3284 13.9285 33.2144 10.9771 33.5302C8.3514 33.811 6.05093 33.5122 4.0766 32.6343C2.10227 31.7564 0.865006 30.2396 0.365704 28.0845L4.53642 26.7625Z" fill="white"/>
<path fill-rule="evenodd" clip-rule="evenodd" d="M43.2614 37.2736L39.3361 37.4553L41.6939 31.1905L34.1178 15.5228L38.0266 15.3416C38.5985 15.3151 39.131 15.6368 39.3742 16.1554L43.8195 25.6309L47.8888 14.8849L52.7436 14.6601L44.5206 36.3603C44.3206 36.8887 43.8257 37.2476 43.2614 37.2736Z" fill="white"/>
<path fill-rule="evenodd" clip-rule="evenodd" d="M31.8812 11.4166L32.542 3.68126L34.0538 3.81046C34.4553 3.845 34.7527 4.19806 34.7187 4.59911L34.0579 12.3345L32.5456 12.2053C32.1441 12.1712 31.8467 11.8181 31.8812 11.4166Z" fill="white"/>
<path fill-rule="evenodd" clip-rule="evenodd" d="M48.545 11.361L49.4956 3.65614L51.0016 3.84186C51.4013 3.89121 51.6853 4.25503 51.6364 4.65474L50.6853 12.36L49.1793 12.1743C48.7796 12.125 48.4957 11.7607 48.545 11.361Z" fill="white"/>
<path fill-rule="evenodd" clip-rule="evenodd" d="M44.7776 9.86685C45.482 9.47073 45.8731 8.87363 45.9517 8.07511C46.0302 7.27658 45.7619 6.61489 45.1482 6.08956C44.7588 5.75625 44.2765 5.56379 43.766 5.51624C43.0599 5.45119 42.4561 5.60821 41.9545 5.98818C41.4481 6.37129 41.1605 6.90783 41.0932 7.59868C41.0255 8.28909 41.2027 8.87184 41.6253 9.34602C42.0434 9.81616 42.605 10.0876 43.3107 10.1607C43.8203 10.2132 44.3308 10.1181 44.7776 9.86685ZM47.8439 12.3185C47.712 13.6639 47.1804 14.667 46.2504 15.3269C45.3196 15.9872 44.1227 16.2456 42.6575 16.1021C40.5858 15.8988 39.2028 15.1017 38.5097 13.7114L39.9686 12.8169C40.2929 12.6177 40.7101 12.6958 40.9528 12.9892C41.147 13.2238 41.3422 13.4104 41.5373 13.5486C41.8635 13.7787 42.3063 13.9214 42.8661 13.9766C43.6283 14.051 44.2541 13.89 44.744 13.4934C45.2339 13.0964 45.5165 12.511 45.5923 11.7371L45.6067 11.594C44.8741 12.0754 43.9123 12.2575 42.7217 12.1409C41.5782 12.0287 40.6136 11.5074 39.8272 10.5766C39.0408 9.64569 38.7066 8.5789 38.8246 7.37617C38.9412 6.18512 39.4755 5.21253 40.427 4.45842C41.379 3.70431 42.426 3.38311 43.5695 3.49526C44.7364 3.60965 45.6443 3.97527 46.293 4.59211L46.3478 4.03807L47.8524 4.18567C48.2741 4.22739 48.5832 4.60242 48.5428 5.02457L47.8439 12.3185Z" fill="white"/>
<path fill-rule="evenodd" clip-rule="evenodd" d="M29.0704 9.02836C28.7707 9.80804 28.1831 10.2549 27.3083 10.3679C26.6232 10.4567 26.0396 10.31 25.5573 9.92872C25.0755 9.5474 24.7889 9.00279 24.6974 8.29533C24.6058 7.58787 24.744 6.98584 25.1128 6.48833C25.4811 5.99127 26.0077 5.69878 26.6928 5.60996C27.5729 5.49601 28.2333 5.77773 28.6743 6.45513C28.8622 6.74359 29.2193 6.86965 29.5356 6.73417L30.973 6.11823C30.5777 5.23626 29.9658 4.56559 29.1363 4.10532C28.3069 3.64505 27.4061 3.47772 26.4335 3.60378C25.1953 3.76393 24.2012 4.31123 23.4511 5.24524C22.7015 6.17969 22.4095 7.28775 22.575 8.56988C22.741 9.852 23.3049 10.8466 24.2671 11.5536C24.8853 12.008 25.5614 12.2808 26.2931 12.3772L26.4048 13.243C26.4564 13.6423 26.822 13.9245 27.2212 13.8724L28.7254 13.6782L28.528 12.1484C29.1175 11.9434 29.6437 11.6245 30.1026 11.1866C30.7984 10.5236 31.2013 9.7071 31.3117 8.73766L29.8294 8.55866C29.4979 8.51874 29.1902 8.71657 29.0704 9.02836Z" fill="white"/>
<path fill-rule="evenodd" clip-rule="evenodd" d="M59.7975 3.98873C60.4906 4.5782 60.8961 5.39691 61.0132 6.44441L61.5888 11.5805L60.0828 11.7492C59.6831 11.7941 59.3224 11.5061 59.2775 11.1064L58.8361 7.16712C58.7693 6.57002 58.5607 6.10885 58.2107 5.78316C57.8604 5.45702 57.4266 5.32379 56.9084 5.38166C55.5115 5.53822 54.9215 6.58483 55.1387 8.52237L55.5572 12.2561L54.0508 12.4248C53.6511 12.4697 53.2904 12.1821 53.246 11.782L52.3824 4.07531L53.8884 3.90618C54.2886 3.86177 54.6488 4.14933 54.6937 4.54949L54.6977 4.58583C55.2979 3.83396 56.144 3.39701 57.2368 3.27454C58.2502 3.16104 59.1039 3.39926 59.7975 3.98873Z" fill="white"/>
<path fill-rule="evenodd" clip-rule="evenodd" d="M36.1792 11.557L35.792 0.0515572L37.307 0.000415777C37.7089 -0.0130425 38.0458 0.301881 38.0593 0.703835L38.4464 12.2098L36.9319 12.2605C36.5295 12.2739 36.1926 11.959 36.1792 11.557Z" fill="white"/>
</svg>
