<svg width="117" height="70" viewBox="0 0 117 70" fill="none" xmlns="http://www.w3.org/2000/svg">
<path fill-rule="evenodd" clip-rule="evenodd" d="M38.5712 57.4891C38.5712 64.3317 33.0239 69.879 26.1813 69.879C19.3381 69.879 13.7908 64.3317 13.7908 57.4891C13.7908 50.6459 19.3381 45.0992 26.1813 45.0992C33.0239 45.0992 38.5712 50.6459 38.5712 57.4891Z" fill="#23AAE2"/>
<path fill-rule="evenodd" clip-rule="evenodd" d="M58.8124 58.9902C58.8124 65.0708 53.8832 70 47.8021 70C41.7215 70 36.7924 65.0708 36.7924 58.9902C36.7924 52.9096 41.7215 47.9799 47.8021 47.9799C53.8832 47.9799 58.8124 52.9096 58.8124 58.9902Z" fill="#23AAE2"/>
<path fill-rule="evenodd" clip-rule="evenodd" d="M82.0531 57.4891C82.0531 64.3317 76.5059 69.879 69.6632 69.879C62.8201 69.879 57.2728 64.3317 57.2728 57.4891C57.2728 50.6459 62.8201 45.0992 69.6632 45.0992C76.5059 45.0992 82.0531 50.6459 82.0531 57.4891Z" fill="#23AAE2"/>
<path fill-rule="evenodd" clip-rule="evenodd" d="M102.294 58.9902C102.294 65.0708 97.365 70 91.2844 70C85.2038 70 80.2741 65.0708 80.2741 58.9902C80.2741 52.9096 85.2038 47.9799 91.2844 47.9799C97.365 47.9799 102.294 52.9096 102.294 58.9902Z" fill="#23AAE2"/>
<path fill-rule="evenodd" clip-rule="evenodd" d="M50.1315 61.5067C50.8024 60.8593 51.1385 60.0203 51.1385 58.9903C51.1385 57.9603 50.8024 57.1213 50.1315 56.4739C49.4605 55.8259 48.6953 55.502 47.8375 55.502C46.9478 55.502 46.1632 55.8223 45.4849 56.4618C44.8056 57.1019 44.4664 57.9446 44.4664 58.9903C44.4664 60.036 44.8056 60.8786 45.4849 61.5182C46.1632 62.1583 46.9478 62.4781 47.8375 62.4781C48.6953 62.4781 49.4605 62.1546 50.1315 61.5067ZM52.2967 54.5777C53.5224 55.7244 54.1348 57.1956 54.1348 58.9903C54.1348 60.7849 53.5224 62.2556 52.2967 63.4029C51.0715 64.5501 49.5851 65.1237 47.8375 65.1237C46.058 65.1237 44.5517 64.5501 43.3192 63.4029C42.0861 62.2556 41.4701 60.7849 41.4701 58.9903C41.4701 57.1956 42.0861 55.7244 43.3192 54.5777C44.5517 53.4304 46.058 52.8568 47.8375 52.8568C49.5851 52.8568 51.0715 53.4304 52.2967 54.5777Z" fill="#FEFEFE"/>
<path fill-rule="evenodd" clip-rule="evenodd" d="M93.6134 61.5067C94.2844 60.8593 94.6204 60.0203 94.6204 58.9903C94.6204 57.9603 94.2844 57.1213 93.6134 56.4739C92.9425 55.8259 92.1778 55.502 91.319 55.502C90.4297 55.502 89.6452 55.8223 88.9664 56.4618C88.2876 57.1019 87.9484 57.9446 87.9484 58.9903C87.9484 60.036 88.2876 60.8786 88.9664 61.5182C89.6452 62.1583 90.4297 62.4781 91.319 62.4781C92.1778 62.4781 92.9425 62.1546 93.6134 61.5067ZM95.7787 54.5777C97.0044 55.7244 97.6162 57.1956 97.6162 58.9903C97.6162 60.7849 97.0044 62.2556 95.7787 63.4029C94.5534 64.5501 93.067 65.1237 91.319 65.1237C89.54 65.1237 88.0337 64.5501 86.8012 63.4029C85.5681 62.2556 84.9521 60.7849 84.9521 58.9903C84.9521 57.1956 85.5681 55.7244 86.8012 54.5777C88.0337 53.4304 89.54 52.8568 91.319 52.8568C93.067 52.8568 94.5534 53.4304 95.7787 54.5777Z" fill="#FEFEFE"/>
<path fill-rule="evenodd" clip-rule="evenodd" d="M73.9756 62.8366C74.1504 63.3427 73.896 63.8985 73.3993 64.0979C72.6425 64.4025 71.9181 64.5548 71.2268 64.5548C69.7906 64.5548 68.6669 64.1686 67.8557 63.3961C67.0439 62.6236 66.6383 61.457 66.6383 59.8963V55.0508H65.1368C64.5825 55.0508 64.1334 54.6012 64.1334 54.0475V52.5224H66.6383V48.9875H68.725C69.2788 48.9875 69.7283 49.4366 69.7283 49.9908V52.5224H72.541C73.0947 52.5224 73.5438 52.9714 73.5438 53.5252V55.0508H69.7283V59.6623C69.7283 61.0042 70.2983 61.6757 71.4372 61.6757C72.0307 61.6757 72.6781 61.4884 73.3805 61.1136L73.9756 62.8366Z" fill="#FEFEFE"/>
<path fill-rule="evenodd" clip-rule="evenodd" d="M29.9234 63.431C30.104 63.9476 29.8465 64.517 29.3388 64.7232C28.5658 65.0372 27.8257 65.1958 27.1186 65.1985C25.65 65.2042 24.4997 64.8132 23.667 64.0261C22.8343 63.2394 22.415 62.0477 22.4093 60.4519L22.3904 55.4961L22.381 52.9106L22.4334 48.3514L24.5677 48.3436C25.134 48.3415 25.5951 48.7989 25.5972 49.3657L25.5406 52.8991L25.5506 55.4845L25.5679 60.2007C25.5731 61.573 26.1582 62.2576 27.3233 62.2534C27.9299 62.2513 28.5914 62.0571 29.3084 61.6714L29.9234 63.431Z" fill="#FEFEFE"/>
<path fill-rule="evenodd" clip-rule="evenodd" d="M60.3987 35.2716L61.4527 18.6947L64.6925 18.9004C65.5529 18.9553 66.2055 19.697 66.1506 20.5569L65.097 37.1343L61.8573 36.9281C60.9969 36.8737 60.3442 36.132 60.3987 35.2716Z" fill="#EA0029"/>
<path fill-rule="evenodd" clip-rule="evenodd" d="M98.5957 29.7851C99.6394 28.7781 100.161 27.4728 100.161 25.8708C100.161 24.2682 99.6394 22.9576 98.5957 21.9376C97.5516 20.9186 96.3499 20.4083 94.9902 20.4083C93.5096 20.4083 92.2896 20.906 91.3307 21.9015C90.3724 22.8969 89.8925 24.22 89.8925 25.8708C89.8925 27.5215 90.3724 28.8383 91.3307 29.8217C92.2896 30.8046 93.5096 31.2966 94.9902 31.2966C96.3499 31.2966 97.5516 30.7926 98.5957 29.7851ZM105.185 37.5981L101.303 37.1412C100.403 37.0354 99.7608 36.2205 99.8665 35.3214C97.8248 36.6047 95.4419 37.0857 92.7145 36.7643C89.96 36.4398 87.6901 35.1147 85.9044 32.7882C84.1186 30.4624 83.4131 27.7136 83.7868 24.5414C84.1599 21.3692 85.493 18.8533 87.7854 16.9932C90.0778 15.1332 92.5879 14.3638 95.3142 14.6846C98.0687 15.0091 100.275 16.0449 101.931 17.7914L102.127 16.1223L105.848 16.5599C106.836 16.6766 107.543 17.5716 107.426 18.5592L105.185 37.5981Z" fill="#EA0029"/>
<path fill-rule="evenodd" clip-rule="evenodd" d="M33.5768 31.8098C34.6205 30.8023 35.1423 29.4976 35.1423 27.8955C35.1423 26.2929 34.6205 24.9824 33.5768 23.9623C32.5327 22.9433 31.331 22.433 29.9718 22.433C28.4912 22.433 27.2707 22.9307 26.3118 23.9262C25.3535 24.9217 24.8736 26.2448 24.8736 27.8955C24.8736 29.5462 25.3535 30.863 26.3118 31.8465C27.2707 32.8294 28.4912 33.3214 29.9718 33.3214C31.331 33.3214 32.5327 32.8173 33.5768 31.8098ZM39.2691 37.6502L35.8912 37.4058C35.1088 37.3493 34.5205 36.6694 34.577 35.8875C32.8603 37.0776 30.816 37.5874 28.4425 37.4157C26.0454 37.2425 24.0289 36.1842 22.3923 34.2404C20.7557 32.2971 20.0376 29.945 20.237 27.1848C20.4364 24.4239 21.4915 22.1944 23.404 20.4944C25.3148 18.795 27.4575 18.0309 29.8305 18.202C32.2271 18.3753 34.1766 19.1855 35.6787 20.6326L35.7834 19.1797L39.0215 19.4136C39.8809 19.4759 40.5278 20.2228 40.4655 21.0827L39.2691 37.6502Z" fill="#EA0029"/>
<path fill-rule="evenodd" clip-rule="evenodd" d="M107.307 37.8977L109.982 5.75555L114.213 6.10778C115.337 6.20146 116.172 7.18803 116.078 8.3112L113.403 40.4528L109.171 40.1006C108.048 40.0074 107.213 39.0209 107.307 37.8977Z" fill="#EA0029"/>
<path fill-rule="evenodd" clip-rule="evenodd" d="M71.0533 30.6435C71.7457 30.4373 72.5119 30.6791 72.9123 31.2804C73.5848 32.2906 74.8739 32.7103 76.779 32.5402C77.7258 32.4554 78.4591 32.2042 78.9788 31.7871C79.498 31.3689 79.7319 30.8712 79.6801 30.2923C79.6021 29.424 78.8265 28.897 77.3511 28.7107L73.2525 28.2417C71.4306 28.0329 69.9961 27.4849 68.9493 26.5978C67.902 25.7101 67.3148 24.5561 67.1881 23.1356C67.0165 21.2154 67.6068 19.5851 68.9587 18.2447C70.3101 16.9043 72.2094 16.1245 74.6557 15.9057C76.9444 15.7016 78.906 16.0695 80.5416 17.0106C82.1766 17.9516 83.2427 19.2747 83.7405 20.9804L80.2548 22.0015C79.5629 22.204 78.817 21.9486 78.402 21.3588C78.1764 21.039 77.8813 20.7668 77.5159 20.5423C76.801 20.1021 75.9165 19.9294 74.865 20.0231C73.9177 20.1084 73.2509 20.3602 72.8642 20.7789C72.4774 21.1981 72.3073 21.6707 72.3544 22.1967C72.4298 23.0383 73.0704 23.5381 74.2783 23.6951L79.0657 24.3017C80.7813 24.5195 82.1243 25.0826 83.0936 25.9896C84.0634 26.8977 84.6093 28.0355 84.7317 29.4031C84.9222 31.5338 84.2848 33.2347 82.8204 34.5055C81.357 35.7768 79.309 36.5299 76.6791 36.7649C74.338 36.9743 72.2963 36.6728 70.5529 35.8605C68.8096 35.0488 67.7324 33.6801 67.3221 31.7546L71.0533 30.6435Z" fill="#EA0029"/>
<path fill-rule="evenodd" clip-rule="evenodd" d="M5.29249 31.2229C6.19532 30.9371 7.20544 31.2365 7.74399 32.0158C8.64891 33.3242 10.3478 33.845 12.8412 33.5781C14.0805 33.4457 15.0357 33.0997 15.7077 32.5402C16.3787 31.9807 16.6739 31.3223 16.5927 30.565C16.4713 29.4287 15.4418 28.7557 13.5038 28.5447L8.1203 28.024C5.72742 27.7927 3.83489 27.107 2.44218 25.9676C1.04895 24.8288 0.252894 23.3293 0.0540109 21.4703C-0.215005 18.957 0.520862 16.8059 2.26266 15.0181C4.00394 13.2302 6.47585 12.1641 9.67682 11.8218C12.6726 11.5015 15.2529 11.939 17.4176 13.135C19.5833 14.3314 21.0106 16.0413 21.7019 18.2656L17.1559 19.6845C16.2536 19.9655 15.2702 19.6479 14.7128 18.8843C14.4102 18.4697 14.0167 18.1196 13.5331 17.8338C12.5858 17.2738 11.4223 17.0676 10.0458 17.2147C8.80593 17.3471 7.93816 17.6925 7.44043 18.251C6.9427 18.8089 6.73073 19.4322 6.80453 20.121C6.92229 21.2227 7.77435 21.8628 9.36071 22.0413L15.6501 22.7264C17.9043 22.9723 19.6775 23.68 20.9692 24.8471C22.2604 26.0147 23.0025 27.4938 23.1941 29.2838C23.4924 32.0728 22.6964 34.3171 20.8064 36.0165C18.9165 37.7164 16.2499 38.7501 12.8066 39.1185C9.74329 39.4462 7.05941 39.0976 4.75603 38.0734C2.45265 37.0491 1.00917 35.2796 0.426654 32.7653L5.29249 31.2229Z" fill="#EA0029"/>
<path fill-rule="evenodd" clip-rule="evenodd" d="M50.4716 43.4859L45.8921 43.6979L48.6429 36.3889L39.8041 18.11L44.3643 17.8985C45.0316 17.8676 45.6529 18.2429 45.9365 18.8479L51.1227 29.9027L55.8703 17.3657L61.5342 17.1035L51.9407 42.4203C51.7073 43.0369 51.13 43.4556 50.4716 43.4859Z" fill="#EA0029"/>
<path fill-rule="evenodd" clip-rule="evenodd" d="M37.1947 13.3194L37.9657 4.2948L39.7294 4.44553C40.1979 4.48583 40.5449 4.89773 40.5051 5.36563L39.7342 14.3902L37.9699 14.2395C37.5014 14.1997 37.1544 13.7878 37.1947 13.3194Z" fill="#EA0029"/>
<path fill-rule="evenodd" clip-rule="evenodd" d="M56.6358 13.2545L57.7449 4.26549L59.5019 4.48217C59.9682 4.53974 60.2995 4.9642 60.2424 5.43053L59.1329 14.4201L57.3759 14.2034C56.9096 14.1458 56.5783 13.7208 56.6358 13.2545Z" fill="#EA0029"/>
<path fill-rule="evenodd" clip-rule="evenodd" d="M52.2406 11.5113C53.0623 11.0492 53.5187 10.3526 53.6103 9.42096C53.7018 8.48935 53.3889 7.71737 52.6729 7.1045C52.2186 6.71563 51.656 6.4911 51.0604 6.43562C50.2366 6.35973 49.5321 6.54291 48.947 6.98621C48.3561 7.43318 48.0206 8.05913 47.9421 8.86514C47.863 9.67061 48.0698 10.3505 48.5628 10.9037C49.0506 11.4522 49.7059 11.7688 50.5291 11.8541C51.1237 11.9154 51.7193 11.8044 52.2406 11.5113ZM55.8179 14.3716C55.664 15.9412 55.0438 17.1115 53.9588 17.8814C52.8728 18.6518 51.4764 18.9532 49.7671 18.7858C47.3501 18.5487 45.7366 17.6186 44.9279 15.9967L46.63 14.9531C47.0084 14.7207 47.4951 14.8117 47.7783 15.154C48.0049 15.4278 48.2325 15.6455 48.4602 15.8067C48.8407 16.0752 49.3573 16.2416 50.0105 16.306C50.8997 16.3929 51.6298 16.205 52.2013 15.7423C52.7729 15.2791 53.1026 14.5961 53.191 13.6933L53.2078 13.5263C52.3531 14.0879 51.231 14.3004 49.8419 14.1643C48.5078 14.0335 47.3826 13.4253 46.4651 12.3393C45.5476 11.2533 45.1577 10.0087 45.2954 8.60554C45.4314 7.21597 46.0548 6.08129 47.1649 5.20149C48.2755 4.3217 49.497 3.94696 50.8311 4.0778C52.1924 4.21127 53.2517 4.63782 54.0085 5.35746L54.0724 4.71109L55.8278 4.88328C56.3198 4.93196 56.6804 5.3695 56.6333 5.862L55.8179 14.3716Z" fill="#EA0029"/>
<path fill-rule="evenodd" clip-rule="evenodd" d="M33.9155 10.5331C33.5659 11.4427 32.8802 11.964 31.8596 12.0959C31.0604 12.1995 30.3795 12.0284 29.8169 11.5835C29.2548 11.1386 28.9204 10.5032 28.8136 9.67788C28.7068 8.85252 28.868 8.15014 29.2982 7.56972C29.7279 6.98982 30.3424 6.64857 31.1416 6.54495C32.1684 6.41201 32.9388 6.74069 33.4533 7.53099C33.6726 7.86752 34.0892 8.01459 34.4582 7.85653L36.1351 7.13793C35.674 6.10897 34.9601 5.32652 33.9924 4.78954C33.0247 4.25255 31.9737 4.05733 30.8391 4.2044C29.3945 4.39125 28.2347 5.02977 27.3596 6.11944C26.4851 7.20964 26.1444 8.50238 26.3375 9.99819C26.5311 11.494 27.189 12.6543 28.3117 13.4792C29.0329 14.0094 29.8216 14.3276 30.6752 14.4401L30.8056 15.4502C30.8657 15.916 31.2923 16.2452 31.7581 16.1845L33.513 15.9579L33.2827 14.1732C33.9704 13.934 34.5843 13.5619 35.1198 13.051C35.9315 12.2775 36.4015 11.325 36.5303 10.1939L34.801 9.9851C34.4142 9.93852 34.0552 10.1693 33.9155 10.5331Z" fill="#EA0029"/>
<path fill-rule="evenodd" clip-rule="evenodd" d="M69.7637 4.65351C70.5723 5.34123 71.0455 6.29639 71.1821 7.51848L71.8536 13.5106L70.0966 13.7074C69.6303 13.7598 69.2095 13.4237 69.1571 12.9574L68.6421 8.36164C68.5641 7.66503 68.3208 7.12699 67.9125 6.74702C67.5038 6.36653 66.9977 6.21108 66.3932 6.2786C64.7634 6.46126 64.0751 7.6823 64.3285 9.94276L64.8168 14.2988L63.0593 14.4956C62.5929 14.548 62.1721 14.2125 62.1203 13.7456L61.1128 4.75452L62.8698 4.55721C63.3367 4.5054 63.7569 4.84088 63.8093 5.30773L63.814 5.35013C64.5142 4.47295 65.5013 3.96318 66.7763 3.8203C67.9586 3.68788 68.9546 3.9658 69.7637 4.65351Z" fill="#EA0029"/>
<path fill-rule="evenodd" clip-rule="evenodd" d="M42.209 13.4832L41.7573 0.0601501L43.5248 0.000485073C43.9937 -0.0152162 44.3868 0.352195 44.4025 0.821141L44.8542 14.2447L43.0872 14.3039C42.6178 14.3196 42.2247 13.9522 42.209 13.4832Z" fill="#EA0029"/>
</svg>
