<svg width="142" height="70" viewBox="0 0 142 70" fill="none" xmlns="http://www.w3.org/2000/svg">
<path fill-rule="evenodd" clip-rule="evenodd" d="M80.1205 20.9607C81.5882 19.4552 82.3224 17.4383 82.3224 14.9113C82.3224 12.3837 81.5882 10.3579 80.1205 8.83405C78.6522 7.30954 76.7843 6.54696 74.5167 6.54696C72.4354 6.54696 70.5953 7.32848 68.9969 8.88898C67.3985 10.4507 66.5993 12.4575 66.5993 14.9113C66.5993 17.3644 67.3985 19.3624 68.9969 20.9046C70.5953 22.4474 72.4354 23.2188 74.5167 23.2188C76.7843 23.2188 78.6522 22.4663 80.1205 20.9607ZM85.3613 4.34509C88.0935 7.15172 89.4595 10.6736 89.4595 14.9113C89.4595 19.1484 88.1029 22.6614 85.3891 25.4484C82.6753 28.2368 79.4785 29.6306 75.7988 29.6306C72.1564 29.6306 69.0897 28.6275 66.5993 26.6195V38.2733H61.4141C60.2128 38.2733 59.2394 37.2993 59.2394 36.0986V0.971587H64.3691C65.6007 0.971587 66.5993 1.97026 66.5993 3.20249C69.0525 1.15781 72.1185 0.135155 75.7988 0.135155C79.4419 0.135155 82.6298 1.5391 85.3613 4.34509Z" fill="#FF5100"/>
<path fill-rule="evenodd" clip-rule="evenodd" d="M101.857 7.61501C100.56 8.49184 99.7111 9.73355 99.309 11.3408H112.513C112.075 9.66032 111.27 8.40031 110.102 7.56072C108.933 6.7205 107.581 6.30007 106.048 6.30007C104.551 6.30007 103.154 6.73818 101.857 7.61501ZM117.561 16.4357H99.0899C99.4554 18.3718 100.268 19.9147 101.528 21.0655C102.789 22.2157 104.258 22.7914 105.939 22.7914C108.526 22.7914 110.529 21.9543 111.95 20.2795C112.496 19.6363 113.32 19.2998 114.146 19.4747L119.196 20.5447C118.028 23.3204 116.293 25.4206 113.992 26.8454C111.691 28.2702 109.006 28.9822 105.939 28.9822C101.994 28.9822 98.6695 27.6307 95.9677 24.9276C93.2646 22.2251 91.913 18.755 91.913 14.5186C91.913 10.2815 93.2734 6.80256 95.9942 4.08179C98.7156 1.36039 102.067 0 106.048 0C109.774 0 112.978 1.30547 115.663 3.91766C118.347 6.52859 119.763 9.88001 119.909 13.9706V14.088C119.909 15.3847 118.858 16.4357 117.561 16.4357Z" fill="#FF5100"/>
<mask id="mask0_6_28" style="mask-type:luminance" maskUnits="userSpaceOnUse" x="122" y="0" width="20" height="29">
<path d="M122.831 0.506851H141.788V28.2284H122.831V0.506851Z" fill="white"/>
</mask>
<g mask="url(#mask0_6_28)">
<path fill-rule="evenodd" clip-rule="evenodd" d="M141.788 0.725902L141.491 6.09738C141.442 6.98684 140.706 7.68313 139.815 7.68313C133.314 7.68313 130.064 11.5919 130.064 19.4083V28.2284H125.179C123.882 28.2284 122.831 27.1774 122.831 25.8807V0.890032H127.715C129.013 0.890032 130.064 1.9411 130.064 3.23772V5.8758C132.547 2.2965 135.816 0.506851 139.87 0.506851C140.71 0.506851 141.35 0.579447 141.788 0.725902Z" fill="#FF5100"/>
</g>
<path fill-rule="evenodd" clip-rule="evenodd" d="M5.27679 19.9257C6.25589 19.7269 7.2817 20.1549 7.75957 21.0323C8.56128 22.5064 10.2853 23.243 12.9303 23.243C14.2446 23.243 15.2849 22.9874 16.0526 22.4767C16.8196 21.9647 17.2034 21.3076 17.2034 20.504C17.2034 19.2982 16.199 18.477 14.1897 18.0382L8.60168 16.8881C6.11764 16.3761 4.20994 15.445 2.8767 14.0934C1.54282 12.7425 0.876203 11.081 0.876203 9.10828C0.876203 6.44243 1.89002 4.26834 3.91766 2.58916C5.94467 0.908717 8.65661 0.0684967 12.0528 0.0684967C15.2306 0.0684967 17.8883 0.817183 20.0245 2.31519C22.1614 3.81256 23.4668 5.76634 23.9415 8.17716L19.0151 9.15436C18.0373 9.34879 17.0411 8.90501 16.5424 8.04143C16.271 7.57303 15.8979 7.16145 15.4219 6.8073C14.4921 6.11354 13.2945 5.76634 11.8344 5.76634C10.5195 5.76634 9.57005 6.03084 8.98487 6.56048C8.40031 7.09011 8.10866 7.72075 8.10866 8.45113C8.10866 9.61961 8.92994 10.3866 10.5744 10.7515L17.0942 12.1763C19.4311 12.6876 21.2113 13.6282 22.4353 14.998C23.6587 16.3673 24.2711 18.0022 24.2711 19.9011C24.2711 22.8592 23.184 25.1236 21.0106 26.6948C18.8377 28.2654 15.9244 29.0507 12.2719 29.0507C9.02211 29.0507 6.24578 28.3835 3.94544 27.0509C1.64383 25.7176 0.32826 23.7001 0 20.997L5.27679 19.9257Z" fill="#FF5100"/>
<path fill-rule="evenodd" clip-rule="evenodd" d="M41.4904 29.0215H41.4039C32.7397 28.9748 25.7276 21.8875 25.7741 13.2227C25.7844 11.2847 27.3588 9.72105 29.2943 9.72105H29.3132C31.2575 9.73115 32.825 11.3163 32.8149 13.2599C32.789 18.0431 36.6599 21.9551 41.4424 21.9809C43.7674 21.9885 45.9421 21.1035 47.5891 19.4735C49.2361 17.8436 50.1502 15.6708 50.1622 13.3534C50.1735 11.4091 51.7511 9.83973 53.7017 9.85235C55.646 9.86245 57.2134 11.4476 57.2034 13.3919C57.156 22.0277 50.1154 29.0215 41.4904 29.0215Z" fill="#FF5100"/>
<path fill-rule="evenodd" clip-rule="evenodd" d="M32.345 6.35524C31.655 5.68042 31.3097 4.82189 31.3097 3.77903C31.3097 2.79741 31.655 1.95403 32.345 1.24827C33.035 0.543142 33.9017 0.190262 34.9439 0.190262C35.9874 0.190262 36.8605 0.550717 37.5669 1.27163C38.2726 1.99191 38.6242 2.82834 38.6242 3.77903C38.6242 4.82189 38.2796 5.68042 37.5896 6.35524C36.8996 7.03007 36.0177 7.3678 34.9439 7.3678C33.9017 7.3678 33.035 7.03007 32.345 6.35524Z" fill="#FF5100"/>
<path fill-rule="evenodd" clip-rule="evenodd" d="M45.3877 6.35524C44.6971 5.68042 44.3525 4.82189 44.3525 3.77903C44.3525 2.79741 44.6971 1.95403 45.3877 1.24827C46.0777 0.543142 46.9438 0.190262 47.9867 0.190262C49.0302 0.190262 49.9038 0.550717 50.609 1.27163C51.3147 1.99191 51.667 2.82834 51.667 3.77903C51.667 4.82189 51.3217 5.68042 50.6323 6.35524C49.9423 7.03007 49.0605 7.3678 47.9867 7.3678C46.9438 7.3678 46.0777 7.03007 45.3877 6.35524Z" fill="#FF5100"/>
<path fill-rule="evenodd" clip-rule="evenodd" d="M47.9664 55.2685C47.9664 63.326 41.4347 69.8578 33.3778 69.8578C25.3202 69.8578 18.7885 63.326 18.7885 55.2685C18.7885 47.2116 25.3202 40.6798 33.3778 40.6798C41.4347 40.6798 47.9664 47.2116 47.9664 55.2685Z" fill="#23AAE2"/>
<path fill-rule="evenodd" clip-rule="evenodd" d="M71.7999 57.0362C71.7999 64.1961 65.9961 70 58.8362 70C51.6763 70 45.8724 64.1961 45.8724 57.0362C45.8724 49.8764 51.6763 44.0719 58.8362 44.0719C65.9961 44.0719 71.7999 49.8764 71.7999 57.0362Z" fill="#23AAE2"/>
<path fill-rule="evenodd" clip-rule="evenodd" d="M99.1652 55.2685C99.1652 63.326 92.6335 69.8578 84.5766 69.8578C76.519 69.8578 69.9873 63.326 69.9873 55.2685C69.9873 47.2116 76.519 40.6798 84.5766 40.6798C92.6335 40.6798 99.1652 47.2116 99.1652 55.2685Z" fill="#23AAE2"/>
<path fill-rule="evenodd" clip-rule="evenodd" d="M122.999 57.0362C122.999 64.1961 117.195 70 110.035 70C102.875 70 97.0712 64.1961 97.0712 57.0362C97.0712 49.8764 102.875 44.0719 110.035 44.0719C117.195 44.0719 122.999 49.8764 122.999 57.0362Z" fill="#23AAE2"/>
<path fill-rule="evenodd" clip-rule="evenodd" d="M61.5788 59.9993C62.3685 59.2367 62.7643 58.2494 62.7643 57.0361C62.7643 55.8234 62.3685 54.8355 61.5788 54.0729C60.7884 53.3104 59.8876 52.9291 58.8776 52.9291C57.8303 52.9291 56.9068 53.3059 56.107 54.059C55.3071 54.8128 54.9082 55.8051 54.9082 57.0361C54.9082 58.2677 55.3071 59.2601 56.107 60.0132C56.9068 60.7663 57.8303 61.1432 58.8776 61.1432C59.8876 61.1432 60.7884 60.7619 61.5788 59.9993ZM64.1285 51.8401C65.571 53.191 66.2925 54.9226 66.2925 57.0361C66.2925 59.1496 65.571 60.8812 64.1285 62.2321C62.6854 63.583 60.9349 64.2585 58.8776 64.2585C56.7818 64.2585 55.0092 63.583 53.5573 62.2321C52.1053 60.8812 51.38 59.1496 51.38 57.0361C51.38 54.9226 52.1053 53.191 53.5573 51.8401C55.0092 50.4898 56.7818 49.8144 58.8776 49.8144C60.9349 49.8144 62.6854 50.4898 64.1285 51.8401Z" fill="#FEFEFE"/>
<path fill-rule="evenodd" clip-rule="evenodd" d="M112.778 59.9993C113.568 59.2367 113.963 58.2494 113.963 57.0361C113.963 55.8234 113.568 54.8355 112.778 54.0729C111.987 53.3104 111.086 52.9291 110.076 52.9291C109.029 52.9291 108.106 53.3059 107.306 54.059C106.507 54.8128 106.107 55.8051 106.107 57.0361C106.107 58.2677 106.507 59.2601 107.306 60.0132C108.106 60.7663 109.029 61.1432 110.076 61.1432C111.086 61.1432 111.987 60.7619 112.778 59.9993ZM115.327 51.8401C116.77 53.191 117.491 54.9226 117.491 57.0361C117.491 59.1496 116.77 60.8812 115.327 62.2321C113.884 63.583 112.134 64.2585 110.076 64.2585C107.981 64.2585 106.208 63.583 104.756 62.2321C103.304 60.8812 102.579 59.1496 102.579 57.0361C102.579 54.9226 103.304 53.191 104.756 51.8401C106.208 50.4898 107.981 49.8144 110.076 49.8144C112.134 49.8144 113.884 50.4898 115.327 51.8401Z" fill="#FEFEFE"/>
<path fill-rule="evenodd" clip-rule="evenodd" d="M89.6543 61.5652C89.8601 62.1611 89.5608 62.8151 88.9763 63.0505C88.0849 63.4091 87.2315 63.589 86.4171 63.589C84.7266 63.589 83.4041 63.1339 82.4483 62.2242C81.4926 61.3145 81.0147 59.9409 81.0147 58.1033V52.3972H79.2472C78.5938 52.3972 78.066 51.8682 78.066 51.2161V49.4202H81.0147V45.2582H83.4722C84.1244 45.2582 84.6534 45.7872 84.6534 46.4393V49.4202H87.965C88.6171 49.4202 89.1461 49.9492 89.1461 50.6019V52.3972H84.6534V57.8274C84.6534 59.4081 85.3244 60.1978 86.6658 60.1978C87.364 60.1978 88.1266 59.9775 88.9536 59.5363L89.6543 61.5652Z" fill="#FEFEFE"/>
<path fill-rule="evenodd" clip-rule="evenodd" d="M37.7842 62.2652C37.9969 62.8737 37.6926 63.5441 37.0961 63.7865C36.1858 64.1571 35.314 64.3433 34.482 64.3465C32.7523 64.3528 31.3976 63.8926 30.4172 62.9659C29.4362 62.0392 28.9426 60.6365 28.9356 58.7572L28.9142 52.9217L28.9034 49.8778L28.9647 44.5094L31.4778 44.5C32.1444 44.4975 32.6879 45.0366 32.6904 45.7038L32.6235 49.8639L32.6355 52.9085L32.6557 58.4618C32.6614 60.0778 33.3507 60.8833 34.7219 60.8783C35.4365 60.8757 36.2161 60.6472 37.0601 60.1927L37.7842 62.2652Z" fill="#FEFEFE"/>
</svg>
