<svg width="122" height="60" viewBox="0 0 122 60" fill="none" xmlns="http://www.w3.org/2000/svg">
<path fill-rule="evenodd" clip-rule="evenodd" d="M68.6747 17.9664C69.9328 16.6759 70.562 14.9471 70.562 12.7811C70.562 10.6146 69.9328 8.87823 68.6747 7.57204C67.4162 6.26531 65.8151 5.61168 63.8715 5.61168C62.0875 5.61168 60.5102 6.28155 59.1402 7.61912C57.7702 8.95777 57.0852 10.6779 57.0852 12.7811C57.0852 14.8838 57.7702 16.5963 59.1402 17.9182C60.5102 19.2406 62.0875 19.9018 63.8715 19.9018C65.8151 19.9018 67.4162 19.2568 68.6747 17.9664ZM73.1668 3.72436C75.5087 6.13004 76.6796 9.14877 76.6796 12.7811C76.6796 16.4129 75.5168 19.424 73.1907 21.813C70.8645 24.2029 68.1244 25.3977 64.9704 25.3977C61.8484 25.3977 59.2198 24.5379 57.0852 22.8167V32.8057H52.6407C51.611 32.8057 50.7766 31.9708 50.7766 30.9417V0.832786H55.1735C56.2292 0.832786 57.0852 1.68879 57.0852 2.74499C59.1878 0.992408 61.8159 0.115845 64.9704 0.115845C68.0931 0.115845 70.8256 1.31922 73.1668 3.72436Z" fill="white"/>
<path fill-rule="evenodd" clip-rule="evenodd" d="M87.3058 6.52715C86.1939 7.27872 85.4667 8.34304 85.122 9.72065H96.4394C96.0644 8.28028 95.3745 7.20026 94.3735 6.48062C93.3714 5.76043 92.2124 5.40006 90.8981 5.40006C89.6152 5.40006 88.4177 5.77558 87.3058 6.52715ZM100.766 14.0878H84.9342C85.2475 15.7473 85.9439 17.0697 87.0239 18.0561C88.1045 19.042 89.3641 19.5355 90.8045 19.5355C93.0219 19.5355 94.7393 18.818 95.9567 17.3825C96.4253 16.8311 97.1314 16.5427 97.8397 16.6926L102.168 17.6097C101.167 19.9889 99.68 21.7891 97.7077 23.0103C95.7349 24.2316 93.4336 24.8419 90.8045 24.8419C87.4232 24.8419 84.5739 23.6834 82.258 21.3665C79.9411 19.0501 78.7826 16.0757 78.7826 12.4445C78.7826 8.81271 79.9486 5.83077 82.2807 3.49868C84.6134 1.16605 87.486 0 90.8981 0C94.0916 0 96.8382 1.11897 99.1394 3.35799C101.441 5.59594 102.654 8.46858 102.779 11.9748V12.0755C102.779 13.1869 101.878 14.0878 100.766 14.0878Z" fill="white"/>
<mask id="mask0_6_29" style="mask-type:luminance" maskUnits="userSpaceOnUse" x="105" y="0" width="17" height="25">
<path d="M105.284 0.434441H121.532V24.1958H105.284V0.434441Z" fill="white"/>
</mask>
<g mask="url(#mask0_6_29)">
<path fill-rule="evenodd" clip-rule="evenodd" d="M121.532 0.622198L121.278 5.22632C121.236 5.98871 120.605 6.58553 119.841 6.58553C114.269 6.58553 111.483 9.93595 111.483 16.6357V24.1958H107.296C106.185 24.1958 105.284 23.2949 105.284 22.1835V0.762881H109.47C110.582 0.762881 111.483 1.66379 111.483 2.77519V5.0364C113.612 1.96843 116.414 0.434441 119.888 0.434441C120.609 0.434441 121.157 0.496666 121.532 0.622198Z" fill="white"/>
</g>
<path fill-rule="evenodd" clip-rule="evenodd" d="M4.52296 17.0792C5.36219 16.9087 6.24146 17.2756 6.65106 18.0277C7.33824 19.2912 8.81596 19.9226 11.0831 19.9226C12.2097 19.9226 13.1014 19.7035 13.7593 19.2657C14.4168 18.8269 14.7457 18.2636 14.7457 17.5748C14.7457 16.5413 13.8849 15.8374 12.1626 15.4613L7.37287 14.4755C5.24369 14.0366 3.60852 13.2385 2.46574 12.0801C1.32242 10.9221 0.751031 9.498 0.751031 7.80709C0.751031 5.52208 1.62002 3.65857 3.35799 2.21927C5.09543 0.778897 7.41995 0.0587082 10.331 0.0587082C13.0548 0.0587082 15.3328 0.700439 17.1639 1.98444C18.9955 3.2679 20.1144 4.94257 20.5213 7.00899L16.2987 7.8466C15.4605 8.01325 14.6067 7.63286 14.1792 6.89266C13.9466 6.49117 13.6268 6.13838 13.2188 5.83483C12.4218 5.24017 11.3953 4.94257 10.1438 4.94257C9.0167 4.94257 8.2029 5.16929 7.70131 5.62326C7.20027 6.07723 6.95028 6.61778 6.95028 7.24382C6.95028 8.24538 7.65424 8.9028 9.06377 9.21555L14.6521 10.4368C16.6552 10.8751 18.1811 11.6813 19.2303 12.8555C20.2789 14.0291 20.8038 15.4305 20.8038 17.0581C20.8038 19.5936 19.872 21.5345 18.009 22.8813C16.1466 24.2275 13.6495 24.9006 10.5188 24.9006C7.73324 24.9006 5.35353 24.3287 3.3818 23.1865C1.40899 22.0437 0.281366 20.3144 0 17.9974L4.52296 17.0792Z" fill="white"/>
<path fill-rule="evenodd" clip-rule="evenodd" d="M35.5632 24.8756H35.4891C28.0626 24.8355 22.0522 18.7607 22.0921 11.3337C22.1009 9.6726 23.4504 8.33233 25.1094 8.33233H25.1256C26.7921 8.34099 28.1357 9.69966 28.127 11.3657C28.1048 15.4655 31.4228 18.8186 35.5221 18.8408C37.5149 18.8473 39.3789 18.0887 40.7906 16.6916C42.2023 15.2945 42.9858 13.4321 42.9961 11.4458C43.0059 9.7792 44.358 8.43405 46.03 8.44488C47.6966 8.45353 49.0401 9.81221 49.0315 11.4788C48.9908 18.8808 42.9561 24.8756 35.5632 24.8756Z" fill="white"/>
<path fill-rule="evenodd" clip-rule="evenodd" d="M27.7243 5.44736C27.1329 4.86893 26.8369 4.13305 26.8369 3.23917C26.8369 2.39778 27.1329 1.67489 27.7243 1.06995C28.3157 0.465555 29.0586 0.163086 29.9519 0.163086C30.8464 0.163086 31.5947 0.472047 32.2002 1.08997C32.8051 1.70735 33.1065 2.42429 33.1065 3.23917C33.1065 4.13305 32.8111 4.86893 32.2197 5.44736C31.6282 6.02578 30.8723 6.31526 29.9519 6.31526C29.0586 6.31526 28.3157 6.02578 27.7243 5.44736Z" fill="white"/>
<path fill-rule="evenodd" clip-rule="evenodd" d="M38.9038 5.44736C38.3118 4.86893 38.0164 4.13305 38.0164 3.23917C38.0164 2.39778 38.3118 1.67489 38.9038 1.06995C39.4952 0.465555 40.2376 0.163086 41.1314 0.163086C42.0259 0.163086 42.7747 0.472047 43.3791 1.08997C43.9841 1.70735 44.286 2.42429 44.286 3.23917C44.286 4.13305 43.99 4.86893 43.3991 5.44736C42.8077 6.02578 42.0518 6.31526 41.1314 6.31526C40.2376 6.31526 39.4952 6.02578 38.9038 5.44736Z" fill="white"/>
<path fill-rule="evenodd" clip-rule="evenodd" d="M41.1141 47.373C41.1141 54.2794 35.5154 59.8781 28.6095 59.8781C21.7031 59.8781 16.1044 54.2794 16.1044 47.373C16.1044 40.4671 21.7031 34.8684 28.6095 34.8684C35.5154 34.8684 41.1141 40.4671 41.1141 47.373Z" fill="#23AAE2"/>
<path fill-rule="evenodd" clip-rule="evenodd" d="M61.5428 48.8882C61.5428 55.0252 56.568 60 50.431 60C44.294 60 39.3192 55.0252 39.3192 48.8882C39.3192 42.7512 44.294 37.7759 50.431 37.7759C56.568 37.7759 61.5428 42.7512 61.5428 48.8882Z" fill="#23AAE2"/>
<path fill-rule="evenodd" clip-rule="evenodd" d="M84.9988 47.373C84.9988 54.2794 79.4001 59.8781 72.4942 59.8781C65.5878 59.8781 59.9891 54.2794 59.9891 47.373C59.9891 40.4671 65.5878 34.8684 72.4942 34.8684C79.4001 34.8684 84.9988 40.4671 84.9988 47.373Z" fill="#23AAE2"/>
<path fill-rule="evenodd" clip-rule="evenodd" d="M105.428 48.8882C105.428 55.0252 100.453 60 94.3157 60C88.1787 60 83.2039 55.0252 83.2039 48.8882C83.2039 42.7512 88.1787 37.7759 94.3157 37.7759C100.453 37.7759 105.428 42.7512 105.428 48.8882Z" fill="#23AAE2"/>
<path fill-rule="evenodd" clip-rule="evenodd" d="M52.7818 51.428C53.4587 50.7743 53.798 49.9281 53.798 48.8881C53.798 47.8487 53.4587 47.0019 52.7818 46.3482C52.1044 45.6946 51.3323 45.3678 50.4665 45.3678C49.5689 45.3678 48.7772 45.6908 48.0917 46.3363C47.4061 46.9824 47.0641 47.833 47.0641 48.8881C47.0641 49.9438 47.4061 50.7944 48.0917 51.4399C48.7772 52.0854 49.5689 52.4084 50.4665 52.4084C51.3323 52.4084 52.1044 52.0816 52.7818 51.428ZM54.9673 44.4344C56.2037 45.5923 56.8221 47.0765 56.8221 48.8881C56.8221 50.6997 56.2037 52.1839 54.9673 53.3418C53.7304 54.4997 52.2299 55.0787 50.4665 55.0787C48.6701 55.0787 47.1507 54.4997 45.9062 53.3418C44.6617 52.1839 44.04 50.6997 44.04 48.8881C44.04 47.0765 44.6617 45.5923 45.9062 44.4344C47.1507 43.277 48.6701 42.698 50.4665 42.698C52.2299 42.698 53.7304 43.277 54.9673 44.4344Z" fill="white"/>
<path fill-rule="evenodd" clip-rule="evenodd" d="M96.6665 51.428C97.344 50.7743 97.6827 49.9281 97.6827 48.8881C97.6827 47.8487 97.344 47.0019 96.6665 46.3482C95.9891 45.6946 95.217 45.3678 94.3512 45.3678C93.4536 45.3678 92.6619 45.6908 91.9764 46.3363C91.2914 46.9824 90.9489 47.833 90.9489 48.8881C90.9489 49.9438 91.2914 50.7944 91.9764 51.4399C92.6619 52.0854 93.4536 52.4084 94.3512 52.4084C95.217 52.4084 95.9891 52.0816 96.6665 51.428ZM98.852 44.4344C100.088 45.5923 100.707 47.0765 100.707 48.8881C100.707 50.6997 100.088 52.1839 98.852 53.3418C97.6151 54.4997 96.1146 55.0787 94.3512 55.0787C92.5553 55.0787 91.0354 54.4997 89.7909 53.3418C88.5464 52.1839 87.9247 50.6997 87.9247 48.8881C87.9247 47.0765 88.5464 45.5923 89.7909 44.4344C91.0354 43.277 92.5553 42.698 94.3512 42.698C96.1146 42.698 97.6151 43.277 98.852 44.4344Z" fill="white"/>
<path fill-rule="evenodd" clip-rule="evenodd" d="M76.8465 52.7701C77.0229 53.2809 76.7664 53.8415 76.2654 54.0433C75.5014 54.3507 74.7698 54.5049 74.0718 54.5049C72.6228 54.5049 71.4892 54.1147 70.67 53.335C69.8508 52.5553 69.4412 51.3779 69.4412 49.8028V44.9119H67.9261C67.3661 44.9119 66.9138 44.4585 66.9138 43.8995V42.3601H69.4412V38.7927H71.5476C72.1066 38.7927 72.56 39.2462 72.56 39.8051V42.3601H75.3986C75.9575 42.3601 76.4109 42.8136 76.4109 43.3731V44.9119H72.56V49.5664C72.56 50.9212 73.1352 51.5981 74.285 51.5981C74.8834 51.5981 75.5371 51.4093 76.2459 51.0311L76.8465 52.7701Z" fill="white"/>
<path fill-rule="evenodd" clip-rule="evenodd" d="M32.3864 53.3701C32.5688 53.8918 32.308 54.4664 31.7966 54.6742C31.0164 54.9918 30.2691 55.1514 29.556 55.1542C28.0734 55.1595 26.9122 54.7651 26.0719 53.9708C25.2311 53.1764 24.8079 51.9741 24.802 50.3633L24.7836 45.3615L24.7744 42.7524L24.8269 38.151L26.9809 38.1428C27.5523 38.1407 28.0182 38.6028 28.0204 39.1747L27.963 42.7405L27.9733 45.3501L27.9906 50.1101C27.9955 51.4953 28.5863 52.1857 29.7616 52.1814C30.3741 52.1792 31.0424 51.9833 31.7658 51.5938L32.3864 53.3701Z" fill="white"/>
</svg>
